<?xml version="1.0" encoding="UTF-8" standalone="no"?><!DOCTYPE svg PUBLIC "-//W3C//DTD SVG 1.1//EN"
        "http://www.w3.org/Graphics/SVG/1.1/DTD/svg11.dtd">
<svg xmlns:xlink="http://www.w3.org/1999/xlink" xmlns:serif="http://www.serif.com/" width="100%" height="100%" viewBox="0 0 3334 2500"
     version="1.1" xmlns="http://www.w3.org/2000/svg" xml:space="preserve" id="contour-svg" preserveAspectRatio="xMidYMid slice"
     style="fill-rule:evenodd;clip-rule:evenodd;stroke-linecap:round;stroke-linejoin:round;stroke-miterlimit:10;"><g transform="scale(1.05)"><path class="contour" id="D35" d="M0,154.636l26.479,-27.031l28.173,-27.411l18.274,-15.99l19.035,-15.99l19.798,-15.99l19.035,-15.229l20.559,-14.467l33.792,-22.528" style="fill:none;fill-rule:nonzero;stroke:#ffe5ad;stroke-width:2.5px;"/><path
        class="contour" id="D34"
        d="M0,300.714l3.636,-4.072l48.731,-58.63l16.752,-19.035l17.512,-18.275l18.275,-17.512l18.274,-16.752l19.036,-16.751l19.797,-15.99l16.751,-12.945l17.513,-12.182l35.787,-24.366l32.742,-20.559l15.99,-9.898l17.512,-9.137l34.265,-17.513l55.787,-27.097"
        style="fill:none;fill-rule:nonzero;stroke:#ffe5ad;stroke-width:2.5px;"/><path class="contour" id="D33"
                                                                                      d="M0,483.021l1.352,-1.352l13.705,-15.99l15.229,-21.32l14.467,-22.843l42.64,-69.289l15.228,-22.843l15.99,-20.559l15.99,-19.797l17.513,-18.274l18.275,-17.513l19.035,-17.513l19.036,-15.99l31.218,-24.366l21.32,-14.467l22.082,-14.467l22.081,-13.706l44.925,-27.411l45.685,-25.889l91.372,-50.254l22.081,-12.944l21.32,-12.944l21.32,-14.467l12.073,-8.823"
                                                                                      style="fill:none;fill-rule:nonzero;stroke:#ffe5ad;stroke-width:2.5px;"/><path
        class="contour" id="D32"
        d="M0,658.501l4.397,-4.749l14.467,-15.99l13.706,-15.99l12.183,-15.99l13.706,-19.797l12.944,-20.559l12.183,-20.558l40.355,-73.859l13.706,-23.604l14.467,-23.604l10.66,-15.229l11.422,-15.228l16.751,-19.798l17.513,-18.274l18.274,-18.274l39.594,-33.503l20.559,-15.99l18.274,-13.706l38.833,-25.888l70.051,-44.924l47.97,-29.696l91.372,-54.061l22.081,-13.706l21.32,-14.467l26.65,-19.036l20.559,-16.751l24.365,-22.843l31.017,-32.427"
        style="fill:none;fill-rule:nonzero;stroke:#ffe5ad;stroke-width:2.5px;"/><path class="contour" id="C32"
                                                                                      d="M3333.33,2429l-3.019,3.45l-30.457,36.549l-12.183,12.183l-21.666,18.821"
                                                                                      style="fill:none;fill-rule:nonzero;stroke:#ffe5ad;stroke-width:2.5px;"/><path
        class="contour" id="D31"
        d="M0,832.713l25.717,-34.29l42.64,-59.391l27.412,-40.356l12.944,-20.558l25.888,-44.925l38.833,-68.528l25.889,-44.163l28.934,-42.64l15.99,-20.558l14.467,-15.99l15.229,-15.99l20.558,-19.036l21.32,-18.274l22.082,-17.513l22.843,-16.752l22.842,-15.99l23.605,-15.228l90.61,-57.107l148.478,-95.179l23.604,-15.99l22.082,-15.99l12.944,-10.66l25.888,-24.365l15.99,-16.752l28.935,-35.025l28.934,-36.549l11.536,-14.914"
        style="fill:none;fill-rule:nonzero;stroke:#ffe5ad;stroke-width:2.5px;"/><path class="contour" id="C31"
                                                                                      d="M3333.33,2323.06l-19.77,12.683l-12.183,7.614l-14.467,6.092l-38.833,15.228l-13.706,6.092l-11.421,7.614l-18.275,13.706l-5.33,4.568l-6.091,6.853l-16.751,20.559l-6.092,7.614l-49.493,50.254l-16.67,18.06"
                                                                                      style="fill:none;fill-rule:nonzero;stroke:#ffe5ad;stroke-width:2.5px;"/><path
        class="contour" id="D30"
        d="M0,995.752l6.682,-6.972l15.228,-19.036l14.467,-19.035l13.706,-20.559l55.584,-86.041l61.676,-93.656l26.65,-41.878l40.355,-65.483l27.412,-42.64l14.467,-21.32l12.944,-18.274l13.706,-17.513l14.467,-16.752l28.934,-30.457l15.229,-14.467l17.513,-15.228l18.274,-15.229l21.32,-15.99l21.32,-15.228l44.163,-30.458l110.407,-70.812l39.594,-27.412l104.316,-73.097l22.081,-16.751l19.036,-16.752l17.513,-18.274l27.411,-30.457l98.986,-124.113l10.031,-11.868"
        style="fill:none;fill-rule:nonzero;stroke:#ffe5ad;stroke-width:2.5px;"/><path class="contour" id="C30"
                                                                                      d="M3333.33,2265.56l-28.907,17.645l-19.798,11.422l-25.127,11.421l-52.538,21.32l-35.787,14.467l-47.97,25.128l-33.503,21.32l-14.467,9.898l-12.183,8.376l-31.219,24.365l-20.558,13.706l-27.412,16.752l-65.878,38.618"
                                                                                      style="fill:none;fill-rule:nonzero;stroke:#ffe5ad;stroke-width:2.5px;"/><path
        class="contour" id="D29"
        d="M0,1139.37l14.296,-12.009l23.604,-22.843l15.229,-15.99l14.467,-15.99l8.375,-11.421l9.138,-11.422l14.467,-19.797l26.65,-41.878l52.538,-83.757l53.3,-82.235l58.63,-91.371l29.696,-45.686l30.457,-44.162l16.751,-21.32l16.752,-20.559l18.274,-19.036l15.99,-15.99l15.99,-14.467l17.513,-14.467l16.751,-12.944l17.513,-12.944l35.026,-24.366l123.351,-82.996l38.071,-27.411l34.265,-25.127l104.315,-79.95l19.797,-15.99l17.513,-15.99l14.467,-15.229l13.706,-15.99l67.006,-83.757l76.904,-93.655l24.531,-28.62"
        style="fill:none;fill-rule:nonzero;stroke:#ffe5ad;stroke-width:2.5px;"/><path class="contour" id="C29"
                                                                                      d="M3333.33,2163.19l-67.74,38.542l-35.026,21.32l-67.767,43.401l-36.549,21.32l-36.548,20.559l-37.31,20.558l-36.549,18.274l-36.548,16.752l-111.93,47.97l-51.016,22.843l-21.32,10.66l-19.797,11.421l-11.421,6.853l-4.569,3.807l-1.523,2.284l-9.137,11.422l-13.175,18.821"
                                                                                      style="fill:none;fill-rule:nonzero;stroke:#ffe5ad;stroke-width:2.5px;"/><path
        class="contour" id="D28"
        d="M0,1263.15l33.332,-26.142l35.787,-30.457l16.751,-15.229l16.751,-15.99l15.99,-16.751l15.229,-17.513l15.229,-16.752l14.467,-18.274l24.365,-33.503l14.468,-22.843l46.447,-75.381l52.538,-82.234l57.869,-92.133l28.934,-45.686l15.228,-22.081l31.98,-44.163l14.468,-17.513l15.228,-16.751l15.229,-15.99l15.228,-13.706l15.229,-12.944l15.99,-12.944l15.228,-11.422l38.072,-26.65l110.407,-73.858l41.117,-28.934l39.594,-29.696l58.63,-44.924l57.869,-43.402l19.035,-14.467l19.036,-18.274l15.99,-15.99l12.944,-15.229l12.183,-15.99l49.493,-64.721l68.528,-87.564l27.412,-34.265l47.208,-55.584l15.288,-17.198"
        style="fill:none;fill-rule:nonzero;stroke:#ffe5ad;stroke-width:2.5px;"/><path class="contour" id="C28"
                                                                                      d="M3333.33,2053.87l-104.289,60.3l-35.026,21.319l-16.751,10.66l-105.838,71.575l-31.98,20.558l-16.752,9.137l-31.218,17.513l-29.696,14.467l-70.813,32.742l-35.025,15.99l-44.163,23.604l-34.265,17.513l-73.097,40.356l-38.071,22.842l-16.751,10.66l-12.183,8.376l-8.376,8.376l-12.183,22.081l-8.707,18.06"
                                                                                      style="fill:none;fill-rule:nonzero;stroke:#ffe5ad;stroke-width:2.5px;"/><path
        class="contour" id="D27"
        d="M0,1376.04l35.616,-26.346l44.163,-33.503l22.842,-18.274l38.072,-32.742l31.98,-29.695l23.604,-22.082l13.706,-18.274l36.548,-44.924l8.376,-11.422l11.421,-15.99l10.66,-17.512l9.138,-16.752l13.705,-29.695l8.376,-18.275l14.467,-38.071l8.376,-18.274l9.898,-18.275l8.376,-14.467l13.706,-22.081l11.421,-17.513l7.614,-11.421l13.706,-18.275l61.676,-71.574l9.137,-12.944l9.899,-12.944l13.705,-15.229l16.752,-18.274l15.99,-15.99l17.512,-16.752l19.036,-16.751l25.127,-20.559l25.889,-19.797l24.366,-18.274l23.604,-15.99l63.198,-41.117l22.082,-15.229l37.31,-25.888l30.457,-23.605l72.335,-55.584l72.336,-54.823l20.559,-15.99l12.182,-11.421l11.422,-11.421l11.421,-12.183l9.899,-12.183l15.99,-19.797l60.153,-85.28l25.888,-34.264l27.412,-33.503l70.051,-83.757l31.219,-36.549l17.512,-19.797l14.467,-15.228l15.229,-14.468l5.573,-5.015"
        style="fill:none;fill-rule:nonzero;stroke:#ffe5ad;stroke-width:2.5px;"/><path class="contour" id="C27"
                                                                                      d="M3333.33,1951.91l-52.512,36.62l-54.823,34.264l-25.888,17.513l-39.594,28.173l-34.265,26.65l-7.614,6.091l-18.274,9.137l-36.549,22.082l-25.888,13.705l-6.092,3.808l-6.852,5.33l-19.798,16.751l-25.888,19.797l-22.843,15.229l-34.264,21.32l-12.945,9.137l-48.731,39.594l-27.411,22.081l-32.742,23.605l-14.467,9.898l-12.944,7.615l-19.036,9.898l-16.751,7.614l-38.072,13.706l-22.081,6.853l-12.183,2.284l-30.457,4.569l-23.604,3.807l-12.183,3.807l-10.66,3.807l-5.33,2.285l-10.66,6.091l-15.99,9.899l-14.467,11.421l-14.467,12.183l-7.615,8.375l-6.852,9.899l-6.092,9.899l-8.376,15.99l-7.283,17.298"
                                                                                      style="fill:none;fill-rule:nonzero;stroke:#ffe5ad;stroke-width:2.5px;"/><path
        class="contour" id="D26"
        d="M0,1487.1l49.322,-36.131l22.842,-15.99l56.346,-38.072l10.66,-6.852l3.807,-3.807l18.274,-21.32l3.046,-6.092l15.229,-35.026l10.66,-19.797l16.751,-29.695l11.422,-18.275l11.421,-15.99l12.183,-15.228l18.274,-19.036l13.706,-13.706l49.493,-45.685l8.375,-9.899l12.183,-16.751l11.422,-16.752l12.944,-21.32l18.274,-34.264l2.284,-3.807l6.853,-10.66l9.137,-13.706l15.229,-19.797l18.274,-23.604l134.773,-169.037l18.274,-21.32l15.99,-16.751l16.752,-15.99l16.751,-15.229l17.513,-14.467l13.705,-9.899l27.412,-18.274l17.513,-10.66l59.391,-32.741l35.787,-21.32l52.539,-31.98l51.015,-31.98l37.31,-25.889l55.585,-41.117l18.274,-14.467l17.513,-15.229l16.751,-15.228l14.467,-14.467l14.467,-15.99l15.99,-19.036l15.229,-20.559l57.868,-79.949l27.412,-36.549l45.686,-57.869l32.741,-39.594l33.503,-38.071l17.513,-19.036l17.512,-17.513l19.798,-19.035l20.558,-17.513l23.604,-17.513l28.173,-17.513l15.99,-8.376l17.513,-7.614l19.001,-8.061"
        style="fill:none;fill-rule:nonzero;stroke:#ffe5ad;stroke-width:2.5px;"/><path class="contour" id="C26"
                                                                                      d="M3333.33,1875.33l-13.679,11.938l-94.417,76.143l-34.264,29.695l-41.879,38.072l-12.944,11.421l-22.843,18.275l-26.65,20.558l-77.665,52.539l-51.778,36.548l-70.812,49.493l-28.173,22.081l-33.503,27.412l-15.229,12.183l-15.99,12.182l-16.751,10.66l-14.467,9.138l-14.467,7.614l-30.457,15.228l-15.229,6.092l-15.228,5.33l-15.229,4.568l-17.513,4.569l-110.407,26.65l-56.346,14.467l-12.182,3.046l-6.092,2.284l-28.934,19.797l-16.751,12.944l-9.138,9.138l-8.375,11.421l-9.899,15.229l-10.66,20.558l-3.469,7.4"
                                                                                      style="fill:none;fill-rule:nonzero;stroke:#ffe5ad;stroke-width:2.5px;"/><path
        class="contour" id="D25"
        d="M0,1602.61l26.479,-19.155l121.067,-91.371l0.761,-1.523l5.33,-6.853l7.614,-12.183l9.899,-20.558l9.899,-22.082l10.66,-28.172l20.558,-61.676l9.899,-25.127l7.614,-15.99l3.807,-6.853l8.376,-12.944l8.375,-12.183l9.899,-11.422l10.66,-10.659l12.183,-11.422l12.944,-10.66l6.853,-4.568l15.229,-9.138l40.355,-22.081l19.036,-11.421l19.036,-12.945l25.888,-19.797l24.366,-23.604l5.33,-6.092l30.457,-45.685l22.843,-41.879l21.32,-37.31l32.741,-51.015l15.229,-22.082l13.705,-18.274l15.99,-18.274l25.889,-25.889l17.513,-18.274l42.64,-47.209l17.513,-18.274l17.512,-17.513l8.376,-7.614l25.889,-20.559l30.457,-21.32l44.163,-27.411l22.081,-12.944l12.183,-5.33l11.421,-6.092l28.935,-11.421l33.502,-11.421l62.437,-21.32l61.676,-27.412l25.127,-12.183l27.412,-16.751l12.944,-8.376l7.614,-6.853l8.376,-6.853l7.614,-8.375l10.66,-12.183l6.853,-8.376l15.229,-23.604l28.934,-47.209l23.604,-38.071l19.797,-25.889l89.087,-114.975l21.32,-25.889l20.559,-23.604l28.934,-31.218l31.219,-31.98l25.127,-22.843l16.751,-13.706l17.513,-11.421l18.274,-9.899l19.036,-7.614l9.898,-3.046l9.138,-2.284l18.274,-3.807l57.868,-6.092l24.366,-3.807l9.899,-2.284l9.898,-3.046l3.807,-2.284l2.285,-1.523l4.568,-8.376l7.614,-11.421l10.66,-15.229l5.449,-6.538"
        style="fill:none;fill-rule:nonzero;stroke:#ffe5ad;stroke-width:2.5px;"/><path class="contour" id="C25"
                                                                                      d="M3333.33,1766.22l-25.1,25.101l-36.549,37.31l-44.924,52.539l-22.082,23.604l-12.182,13.706l-12.183,15.228l-38.833,51.777l-6.091,7.614l-9.899,11.422l-12.944,13.706l-22.843,22.081l-29.696,24.366l-32.741,25.127l-72.336,52.538l-28.173,18.275l-35.787,21.32l-19.035,12.944l-17.513,13.706l-11.422,10.66l-33.503,31.98l-11.421,10.66l-12.183,9.898l-12.944,9.137l-12.944,8.376l-12.183,7.614l-25.889,13.706l-27.411,10.66l-13.706,4.568l-31.98,9.138l-81.473,17.512l-32.741,7.615l-37.31,9.898l-20.559,6.092l-21.32,6.853l-20.558,7.614l-19.797,8.376l-33.503,15.228l-10.66,5.33l-9.899,6.092l-12.944,8.375l-10.66,7.614l-15.99,12.183l-12.183,10.66l-7.614,6.853l-6.853,8.376l-14.796,20.344"
                                                                                      style="fill:none;fill-rule:nonzero;stroke:#ffe5ad;stroke-width:2.5px;"/><path
        class="contour" id="D24"
        d="M0,1720.37l16.58,-10.515l17.513,-12.183l17.513,-14.467l19.035,-15.99l17.513,-15.99l31.98,-31.98l18.275,-20.558l5.33,-7.614l6.852,-9.138l3.808,-7.614l11.421,-27.411l44.163,-117.26l13.705,-34.264l15.229,-31.98l9.137,-17.513l9.899,-15.99l10.66,-14.467l11.421,-13.706l17.513,-16.751l18.274,-15.229l21.32,-15.229l68.529,-42.639l45.685,-30.458l22.082,-16.751l20.558,-18.274l13.706,-13.706l13.706,-15.229l24.365,-33.502l12.945,-22.843l12.183,-22.843l23.604,-47.209l12.183,-23.604l9.898,-15.99l9.899,-16.751l8.376,-12.183l19.797,-26.65l25.127,-29.696l26.65,-30.457l16.751,-16.751l16.752,-15.99l18.274,-16.752l19.036,-15.99l19.797,-14.467l14.467,-10.66l15.228,-9.898l24.366,-15.229l17.513,-9.898l18.274,-9.899l20.559,-9.899l131.727,-58.629l41.878,-19.798l21.32,-10.66l21.32,-11.421l21.32,-12.183l19.797,-12.183l15.99,-11.421l15.229,-11.422l14.467,-12.182l15.99,-15.229l16.751,-16.751l73.859,-82.996l13.706,-14.467l21.32,-21.32l20.558,-19.036l18.274,-15.99l25.889,-22.081l11.421,-8.376l42.64,-52.538l20.559,-22.843l31.98,-31.219l22.081,-20.558l11.422,-9.899l16.751,-12.183l11.421,-6.853l11.422,-6.091l6.091,-2.284l13.706,-4.569l20.559,-4.568l38.832,-4.569l19.036,-3.807l9.137,-2.284l15.99,-5.33l10.66,-4.569l4.569,-3.046l8.375,-15.228l9.138,-14.467l11.421,-17.513l13.706,-18.274l15.99,-19.798l15.99,-18.274l12.275,-13.391"
        style="fill:none;fill-rule:nonzero;stroke:#ffe5ad;stroke-width:2.5px;"/><path class="contour" id="C24"
                                                                                      d="M3333.33,1650.45l-5.303,6.099l-8.376,7.615l-13.706,11.421l-34.264,31.98l-33.503,30.457l-18.274,19.036l-61.676,63.198l-13.705,14.468l-8.376,10.659l-7.614,12.183l-11.422,21.32l-32.741,67.006l-9.137,20.559l-12.945,33.502l-7.614,15.99l-8.376,13.706l-6.091,9.137l-5.33,6.853l-4.568,3.807l-6.092,4.569l-23.604,21.32l-22.843,19.797l-27.411,25.888l-12.945,9.899l-13.705,9.137l-9.138,4.569l-14.467,4.568l-9.898,1.523l-22.082,1.523l-10.66,1.523l-7.614,3.045l-7.614,4.569l-6.853,6.853l-7.614,9.898l-7.615,12.183l-12.944,22.843l-4.568,7.614l-15.229,18.275l-25.889,17.513l-23.604,14.467l-24.365,12.944l-12.183,5.33l-22.082,9.137l-9.898,3.046l-22.082,6.091l-79.188,17.513l-22.082,4.569l-44.924,8.375l-21.32,4.569l-30.457,9.137l-21.32,6.853l-22.843,9.137l-22.081,9.899l-55.584,25.127l-25.128,11.421l-42.639,21.32l-22.843,12.944l-18.275,11.422l-2.284,-0l-3.807,3.045l-7.614,6.853l-9.899,10.66l-11.421,13.706l-4.6,5.877"
                                                                                      style="fill:none;fill-rule:nonzero;stroke:#ffe5ad;stroke-width:2.5px;"/><path
        class="contour" id="D23"
        d="M0,1833.14l57.697,-30.394l19.036,-11.422l4.568,-3.046l0.762,-1.522l11.421,-12.183l35.026,-40.356l7.614,-7.614l22.843,-19.036l4.569,-6.853l12.944,-21.32l1.523,-4.568l0.761,-7.615l3.807,-20.558l3.046,-19.036l10.66,-48.731l8.376,-31.98l9.898,-33.503l10.66,-33.503l7.615,-24.366l8.375,-22.842l12.183,-29.696l12.944,-23.604l6.853,-12.183l7.615,-11.422l11.421,-14.467l13.706,-13.705l15.228,-13.706l12.183,-9.137l12.183,-8.376l17.513,-11.421l87.564,-51.016l20.559,-12.183l19.797,-12.944l19.035,-14.467l16.752,-12.945l15.228,-14.467l12.945,-15.228l11.421,-15.99l9.137,-12.945l8.376,-14.467l11.421,-22.081l33.503,-69.29l11.422,-22.081l11.421,-22.843l22.843,-36.549l12.183,-17.513l24.365,-30.457l12.945,-13.705l17.512,-17.513l18.275,-15.99l19.797,-15.229l19.797,-14.467l41.117,-27.411l22.843,-15.99l43.401,-27.412l60.153,-36.548l38.071,-22.082l42.64,-22.843l87.565,-45.685l22.081,-12.183l41.117,-24.366l19.797,-13.705l15.229,-11.422l30.457,-25.888l16.751,-17.513l35.026,-36.549l23.604,-22.081l27.412,-23.604l29.695,-23.605l29.696,-22.081l25.889,-18.274l44.162,-29.696l31.219,-19.036l70.051,-52.538l12.945,-6.853l19.035,-9.899l12.183,-6.091l19.797,-7.614l6.853,-1.523l11.422,-0.762l48.731,-3.807l13.706,-3.046l12.182,-6.091l10.66,-6.091l9.138,-7.615l4.568,-5.33l4.569,-4.568l8.375,-18.274l9.899,-15.99l12.183,-20.559l21.32,-32.741l15.99,-22.082l17.513,-22.843l23.604,-29.695l24.366,-27.412l1.083,-1.208"
        style="fill:none;fill-rule:nonzero;stroke:#ffe5ad;stroke-width:2.5px;"/><path class="contour" id="C23"
                                                                                      d="M3333.33,1197.28l-16.725,27.547l-9.137,15.228l-12.183,22.843l-25.127,50.254l-22.081,47.97l-30.457,73.859l-11.422,24.366l-18.274,36.548l-10.66,23.604l-9.137,22.082l-7.614,22.081l-25.127,82.996l-8.376,25.888l-13.706,38.072l-15.99,36.548l-12.183,22.843l-28.934,51.016l-52.538,95.94l-11.422,27.411l-10.66,29.696l-6.091,19.035l-9.899,36.549l-5.33,13.706l-6.091,14.467l-8.376,13.706l-8.376,12.944l-10.66,10.66l-5.33,4.568l-6.853,3.808l-6.852,1.522l-6.092,1.523l-6.853,0.762l-28.172,-0l-6.853,0.761l-6.092,0.762l-6.091,1.522l-6.853,2.285l-12.183,6.853l-12.183,9.137l-11.421,11.421l-12.183,15.229l-22.843,35.025l-6.091,7.615l-0.762,0.761l-11.421,10.66l-6.853,6.091l-55.584,38.072l-4.569,2.284l-14.467,5.33l-33.503,9.137l-26.65,6.092l-53.3,11.421l-37.31,8.376l-36.548,9.137l-29.696,9.137l-29.695,9.899l-19.798,7.614l-18.274,6.853l-33.503,14.467l-16.751,6.853l-64.721,22.081l-23.605,9.137l-57.868,25.127l-3.807,0.762l-9.138,3.807l-13.705,6.853l-15.229,9.137l-18.274,11.421l-18.274,13.706l-14.467,12.944l-14.468,14.467l-8.878,10.446"
                                                                                      style="fill:none;fill-rule:nonzero;stroke:#ffe5ad;stroke-width:2.5px;"/><path
        class="contour" id="D22"
        d="M0,1932.66l15.819,-12.655l18.274,-15.228l3.807,-4.569l66.244,-67.005l33.503,-36.549l21.32,-24.366l19.036,-25.127l11.421,-16.751l9.137,-16.752l8.376,-19.035l6.092,-17.513l3.807,-15.99l3.045,-15.99l12.183,-70.051l6.092,-26.65l5.33,-21.32l6.091,-20.559l7.614,-21.32l13.706,-35.026l8.376,-16.751l11.421,-19.797l12.183,-19.036l14.467,-18.274l9.899,-10.66l15.99,-15.229l17.513,-13.705l36.548,-24.366l58.63,-34.264l19.036,-12.183l18.274,-12.183l18.274,-12.944l19.797,-15.99l19.036,-17.513l15.99,-17.513l14.467,-18.274l10.66,-15.229l9.137,-15.99l9.899,-16.751l9.137,-17.513l10.66,-23.604l21.32,-47.97l11.421,-25.127l25.889,-48.732l14.467,-22.842l11.421,-16.752l12.945,-15.99l12.944,-14.467l14.467,-14.467l15.99,-12.944l15.99,-13.706l22.082,-15.99l22.842,-16.752l67.006,-46.447l20.559,-13.705l42.639,-26.65l42.64,-25.127l25.128,-14.468l50.254,-26.65l110.407,-56.345l19.036,-10.66l22.842,-13.706l22.082,-14.467l17.513,-13.706l18.274,-14.467l62.437,-56.345l19.036,-15.229l19.797,-15.229l20.558,-14.467l19.797,-14.467l21.32,-13.706l21.32,-12.944l19.798,-12.183l20.558,-11.421l22.082,-11.422l25.127,-12.182l27.411,-11.422l27.411,-10.66l27.412,-9.898l33.503,-9.899l31.98,-7.614l19.035,-3.046l17.513,-1.523l18.274,-0.761l12.945,-0l6.853,1.523l15.99,-3.807l6.852,-2.285l9.899,-3.807l7.614,-5.33l11.422,-9.898l8.375,-9.899l8.376,-12.944l4.569,-9.899l0.761,-3.046l3.807,-9.898l6.092,-15.229l14.467,-30.457l12.183,-22.081l13.705,-23.604l15.229,-25.128l15.99,-24.365l18.274,-25.889l18.274,-24.365l17.513,-22.082l11.846,-13.391"
        style="fill:none;fill-rule:nonzero;stroke:#ffe5ad;stroke-width:2.5px;"/><path class="contour" id="C22"
                                                                                      d="M3333.33,1059.17l-71.547,97.882l-51.778,74.62l-18.274,26.65l-14.467,19.035l-20.558,29.696l-11.422,17.513l-23.604,38.071l-30.457,54.062l-32.742,60.914l-16.751,30.457l-17.513,28.934l-14.467,22.843l-15.229,19.797l-36.548,43.402l-18.274,22.081l-7.615,11.421l-7.614,12.183l-13.706,27.412l-6.091,15.228l-5.33,15.229l-9.899,30.457l-8.375,31.98l-4.569,18.274l-22.843,106.6l-3.807,16.751l-4.568,13.706l-4.569,14.467l-6.853,15.229l-9.898,22.081l-11.422,21.32l-12.183,21.32l-11.421,19.797l-10.66,15.99l-9.899,12.945l-14.467,19.035l-11.421,15.99l-4.569,4.569l-2.284,1.523l-6.853,5.33l-14.467,9.898l-19.797,12.944l-25.127,14.468l-21.32,11.421l-22.082,11.421l-29.695,14.468l-30.457,13.705l-29.696,12.183l-30.457,12.183l-27.412,10.66l-50.254,16.751l-51.016,15.99l-98.985,29.696l-33.503,10.66l-45.686,18.274l-22.843,9.899l-22.081,9.898l-22.081,11.422l-34.265,18.274l-22.842,14.467l-22.082,14.467l-20.558,15.229l-20.559,16.751l-18.274,17.513l-16.752,19.036l-3.181,4.354"
                                                                                      style="fill:none;fill-rule:nonzero;stroke:#ffe5ad;stroke-width:2.5px;"/><path
        class="contour" id="D21"
        d="M0,2041.21l13.534,-6.985l6.853,-6.853l10.66,-19.797l20.559,-35.026l21.32,-33.503l19.797,-27.411l21.32,-26.65l17.513,-20.559l17.513,-19.036l16.751,-17.512l36.549,-36.549l9.898,-11.421l9.137,-11.422l13.706,-21.32l8.376,-16.751l6.852,-16.752l9.138,-31.979l3.045,-15.99l2.285,-17.513l7.614,-58.63l5.33,-29.696l3.807,-15.229l8.376,-25.888l9.898,-25.127l12.183,-23.604l13.706,-23.605l13.706,-20.558l15.99,-19.036l17.512,-19.036l19.797,-17.512l18.275,-14.468l19.035,-13.705l51.016,-33.503l15.99,-10.66l14.467,-10.66l20.559,-16.752l14.467,-13.705l18.274,-18.274l15.99,-19.798l15.99,-20.558l14.467,-21.32l18.275,-31.98l16.751,-35.026l37.31,-89.087l18.274,-38.071l11.422,-21.32l12.182,-21.32l11.422,-15.99l12.183,-15.99l17.513,-18.274l18.274,-16.752l19.036,-15.99l20.558,-15.228l41.879,-29.696l43.401,-29.696l22.081,-14.467l44.925,-27.411l45.685,-25.889l22.082,-12.183l44.924,-22.843l44.924,-22.081l99.747,-43.401l29.696,-15.229l22.843,-12.183l22.843,-13.705l22.081,-13.706l22.081,-14.467l21.32,-15.229l56.346,-41.878l19.797,-14.467l20.559,-13.706l22.081,-12.944l18.274,-9.899l19.036,-9.899l24.366,-11.421l25.127,-10.66l26.65,-10.66l29.696,-11.421l24.365,-8.376l38.072,-11.422l19.797,-5.33l19.035,-3.807l24.366,-3.807l40.356,-3.807l48.731,-3.046l27.412,-7.614l3.807,-1.523l3.807,-2.284l4.568,-3.807l6.853,-6.853l11.422,-15.99l2.284,-3.046l4.569,-9.898l19.797,-58.63l16.751,-44.163l8.376,-21.32l13.706,-30.457l15.228,-28.934l15.229,-27.412l15.228,-22.081l17.513,-22.082l17.513,-19.797l17.198,-17.198"
        style="fill:none;fill-rule:nonzero;stroke:#ffe5ad;stroke-width:2.5px;"/><path class="contour" id="C21"
                                                                                      d="M3333.33,986.135l-13.679,10.259l-14.467,12.183l-10.66,8.376l-34.264,22.843l-12.945,9.898l-16.751,13.706l-12.183,11.422l-7.614,8.375l-10.66,13.706l-51.777,70.051l-14.467,17.513l-15.229,16.752l-19.036,19.797l-58.63,53.3l-5.33,5.33l-2.284,3.045l-18.274,31.98l-18.274,38.072l-19.036,37.31l-21.32,38.832l-11.421,17.513l-8.376,12.945l-16.752,21.32l-10.66,12.944l-11.421,12.944l-22.843,22.082l-32.741,30.457l-10.66,10.66l-9.899,10.66l-10.66,12.944l-9.898,14.467l-8.376,14.467l-6.853,12.944l-6.091,12.945l-4.569,13.705l-5.33,16.752l-4.568,16.751l-3.808,16.752l-2.284,16.751l-4.568,32.741l-7.615,83.757l-3.807,34.265l-5.33,35.025l-3.807,16.752l-3.046,11.421l-3.807,12.183l-9.137,21.32l-9.137,18.274l-9.899,17.513l-9.898,16.752l-10.66,15.99l-9.899,13.705l-16.751,19.797l-6.853,7.615l-62.437,39.594l-41.879,28.173l-21.32,12.944l-22.081,12.944l-22.843,12.183l-24.366,12.183l-24.365,11.421l-15.99,6.853l-14.467,5.33l-15.99,5.33l-8.376,2.285l-19.036,3.807l-55.584,9.898l-22.843,5.33l-10.66,3.807l-21.32,6.853l-16.751,6.853l-12.183,6.092l-12.183,8.375l-48.731,34.264l-26.65,17.513l-112.692,72.336l-70.812,43.401l-18.275,8.376l-17.512,8.376l-18.275,11.421l-15.228,12.183l-5.877,5.877"
                                                                                      style="fill:none;fill-rule:nonzero;stroke:#ffe5ad;stroke-width:2.5px;"/><path
        class="contour" id="D20"
        d="M0,2115.76l12.012,-13.013l18.274,-21.32l20.558,-25.888l19.797,-27.412l16.752,-26.65l8.376,-15.99l22.842,-44.924l9.899,-15.99l11.421,-15.99l15.99,-19.797l17.513,-17.513l41.879,-37.31l28.934,-28.934l25.889,-31.98l11.421,-16.752l9.899,-16.751l8.375,-16.751l7.615,-17.513l6.091,-15.229l4.569,-15.99l3.045,-14.467l2.285,-13.706l8.375,-55.584l3.046,-12.944l5.33,-25.889l7.614,-22.842l9.137,-22.843l8.376,-17.513l9.899,-17.513l9.898,-15.229l10.66,-13.705l15.229,-18.275l17.513,-15.99l18.274,-15.989l19.036,-15.229l47.208,-34.264l19.797,-15.99l18.274,-17.513l12.945,-13.706l12.183,-14.467l12.182,-15.99l11.422,-16.751l14.467,-22.843l14.467,-23.604l12.944,-23.605l8.376,-15.99l6.853,-16.751l10.66,-25.127l38.071,-100.509l10.66,-25.127l11.422,-24.366l8.375,-15.228l8.376,-14.467l19.797,-25.889l11.422,-12.944l11.421,-12.183l19.036,-16.751l19.797,-15.99l18.274,-14.467l38.833,-27.412l39.594,-25.888l40.356,-23.605l45.686,-25.127l25.127,-12.944l49.493,-24.366l24.365,-11.421l25.127,-10.66l35.787,-13.706l18.275,-6.853l73.097,-24.365l53.3,-18.275l48.731,-17.512l31.98,-12.945l15.229,-6.853l28.934,-15.228l86.041,-47.97l36.549,-19.036l41.878,-21.32l24.366,-12.183l50.254,-23.604l56.346,-24.366l29.696,-12.182l31.218,-11.422l23.604,-7.614l23.605,-6.853l72.335,-20.559l15.229,-5.329l6.853,-3.046l0.761,-0.762l3.807,-4.568l3.046,-7.614l6.853,-15.229l36.548,-98.986l15.99,-41.878l7.615,-18.274l9.898,-22.082l10.66,-19.797l15.229,-25.889l15.228,-22.081l14.467,-18.274l15.99,-18.274l16.752,-16.752l18.274,-16.751l2.317,-1.97"
        style="fill:none;fill-rule:nonzero;stroke:#ffe5ad;stroke-width:2.5px;"/><path class="contour" id="C20"
                                                                                      d="M3333.33,938.574l-0.735,0.713l-21.32,19.036l-21.32,17.513l-22.081,17.513l-18.274,12.944l-12.183,7.614l-8.376,4.569l-3.046,0.761l-12.944,7.615l-9.898,7.614l-48.732,44.924l-12.183,10.66l-12.944,9.899l-32.741,22.081l-25.127,18.274l-23.605,24.366l-29.695,25.127l-9.137,7.614l-8.376,6.092l-22.843,12.944l-8.376,5.33l-31.98,25.127l-5.33,5.33l-3.807,4.569l-4.568,8.375l-4.569,11.422l-4.569,10.66l-5.33,11.421l-7.614,15.229l-9.137,16.751l-9.137,15.99l-9.899,15.99l-22.842,31.98l-14.468,15.99l-14.467,14.467l-12.944,11.422l-14.467,10.66l-35.787,25.888l-10.66,7.615l-13.706,12.182l-12.183,12.183l-9.137,9.899l-9.137,12.944l-8.376,13.706l-9.137,15.99l-8.376,16.751l-7.614,17.513l-21.32,52.539l-31.218,84.518l-10.66,31.219l-9.138,31.98l-3.807,18.274l-3.045,19.036l-3.046,38.071l-2.284,57.107l-1.523,19.036l-3.807,21.32l-5.33,17.513l-6.853,17.512l-8.376,16.752l-9.137,12.944l-9.137,12.183l-9.899,11.421l-10.66,10.66l-10.66,9.137l-7.614,6.092l-6.853,3.807l-26.65,28.173l-13.706,12.944l-18.274,12.944l-9.137,6.092l-9.137,5.33l-24.366,11.421l-30.457,11.422l-20.558,6.852l-42.64,9.899l-11.422,3.046l-20.558,6.853l-22.082,10.66l-43.401,25.888l-33.503,21.32l-16.751,12.944l-39.595,30.457l-41.878,31.219l-68.529,49.493l-34.264,23.604l-25.888,15.229l-25.889,14.467l-81.473,39.594l-19.035,9.137l-15.229,9.137l-12.641,8.923"
                                                                                      style="fill:none;fill-rule:nonzero;stroke:#ffe5ad;stroke-width:2.5px;"/><path
        class="contour" id="D19"
        d="M0,2191.53l88.154,-111.62l15.229,-20.558l14.467,-21.32l10.66,-17.513l36.549,-59.391l9.137,-14.468l9.898,-12.944l9.137,-11.421l9.899,-10.66l16.751,-16.752l98.986,-92.132l13.706,-12.945l12.183,-12.944l13.705,-17.513l8.376,-12.944l8.376,-15.99l6.091,-16.752l3.046,-12.944l3.045,-20.558l0.762,-18.275l0.761,-57.107l1.523,-21.32l2.284,-19.035l3.808,-19.036l4.568,-14.467l5.33,-15.229l9.899,-18.274l11.421,-18.274l11.422,-15.229l12.944,-14.467l13.706,-14.467l12.182,-11.422l12.183,-10.66l37.31,-31.218l18.274,-15.229l19.036,-19.035l16.752,-19.797l13.705,-18.275l12.945,-19.035l12.182,-19.798l11.422,-20.558l12.183,-22.081l11.421,-22.082l10.66,-22.843l9.137,-20.558l8.376,-20.559l8.376,-22.843l27.411,-82.995l7.614,-21.32l7.615,-20.559l9.137,-20.558l8.375,-16.752l9.138,-15.228l13.705,-19.036l12.183,-15.229l13.706,-14.467l20.558,-17.513l21.32,-17.512l17.513,-12.945l54.823,-36.548l22.081,-12.944l22.843,-12.945l22.843,-12.183l41.879,-20.558l43.401,-18.274l33.503,-14.468l24.365,-9.137l24.366,-8.375l24.366,-7.615l24.366,-6.853l23.604,-6.091l137.057,-31.218l42.64,-11.422l19.035,-5.33l48.732,-16.751l24.366,-9.899l51.777,-22.843l25.127,-12.944l22.843,-11.421l82.234,-44.163l102.793,-51.777l38.071,-17.513l63.198,-25.889l35.026,-15.99l17.513,-9.898l16.751,-10.66l13.706,-12.945l4.569,-4.568l12.183,-16.751l32.741,-65.483l39.594,-85.28l9.899,-19.797l11.421,-22.082l25.889,-42.64l13.705,-20.558l15.229,-19.797l15.99,-18.275l16.751,-17.512l15.229,-13.706l15.228,-12.944l10.899,-8.823"
        style="fill:none;fill-rule:nonzero;stroke:#ffe5ad;stroke-width:2.5px;"/><path class="contour" id="C19"
                                                                                      d="M3333.33,909.618l-17.486,17.487l-16.751,14.467l-17.513,14.467l-19.036,13.705l-187.311,130.205l-101.27,75.381l-21.32,15.229l-15.99,10.66l-8.376,5.33l-3.807,1.522l-18.274,9.899l-50.254,30.457l-7.615,5.33l-8.375,8.376l-15.229,17.513l-19.036,20.558l-25.888,24.366l-13.706,12.183l-15.229,11.421l-19.035,14.467l-19.036,12.183l-41.878,25.889l-11.422,8.375l-21.32,16.752l-12.183,12.183l-11.421,12.182l-11.422,13.706l-10.66,12.944l-9.898,14.468l-9.137,14.467l-9.899,15.99l-18.274,33.502l-25.127,49.493l-13.706,31.219l-12.944,31.98l-12.183,34.264l-27.411,87.564l-27.412,79.95l-22.081,73.097l-14.467,43.402l-14.467,40.355l-7.615,16.752l-10.66,23.604l-5.33,7.614l-2.284,3.046l-28.173,15.99l-59.391,29.696l-20.559,12.182l-21.32,12.945l-40.355,29.695l-39.595,29.696l-31.98,27.412l-44.924,41.117l-52.538,51.015l-28.935,28.173l-19.035,15.99l-21.32,15.99l-11.422,7.614l-11.421,6.853l-16.752,9.137l-23.604,10.66l-25.127,9.137l-80.711,29.696l-13.706,5.33l-24.366,10.66l-12.944,6.853l-12.183,7.614l-12.183,6.853l-2.897,2.07"
                                                                                      style="fill:none;fill-rule:nonzero;stroke:#ffe5ad;stroke-width:2.5px;"/><path
        class="contour" id="D18"
        d="M0,2260.85l17.342,-21.8l43.401,-58.63l28.934,-36.549l107.362,-129.443l31.218,-36.548l22.843,-23.604l17.513,-16.752l30.457,-25.888l50.254,-39.595l18.274,-15.99l15.99,-15.99l13.706,-17.512l12.944,-20.559l9.899,-21.32l5.33,-15.99l3.807,-16.751l2.284,-14.467l0.762,-14.468l0.761,-22.842l-0.761,-45.686l-0,-32.741l2.284,-20.559l3.807,-19.797l3.807,-15.99l5.33,-15.229l9.137,-20.558l11.422,-20.559l12.944,-19.035l14.467,-18.275l12.945,-14.467l13.705,-13.706l28.934,-28.172l16.752,-16.752l15.99,-18.274l11.421,-13.706l10.66,-14.467l18.275,-27.411l12.944,-22.082l11.421,-22.843l12.183,-23.604l22.843,-51.015l10.66,-25.128l9.898,-25.888l8.376,-22.082l6.853,-22.842l6.853,-22.082l13.706,-51.015l6.091,-19.798l6.853,-19.797l7.614,-19.035l6.853,-14.468l8.376,-14.467l9.137,-13.705l11.421,-15.229l12.945,-13.706l12.944,-12.944l14.467,-12.183l15.228,-11.421l21.32,-15.229l22.843,-14.467l22.843,-13.706l22.843,-12.944l22.843,-11.421l23.604,-10.66l51.777,-19.797l26.65,-8.376l26.65,-9.137l24.366,-6.853l44.924,-12.183l41.117,-9.137l40.356,-7.614l124.113,-22.843l48.731,-10.66l26.65,-6.092l51.777,-14.467l51.777,-16.751l50.254,-18.274l25.127,-9.899l32.742,-13.706l160.661,-76.142l41.117,-20.559l19.797,-10.66l54.062,-31.218l41.117,-19.798l15.99,-8.375l17.513,-11.422l5.33,-5.33l11.421,-12.183l7.614,-11.421l6.092,-12.183l7.614,-19.797l6.091,-21.32l12.945,-47.208l7.614,-25.128l8.376,-25.127l18.274,-42.64l12.944,-25.127l13.706,-24.365l15.99,-23.605l16.751,-22.081l17.513,-22.082l14.467,-14.467l14.467,-13.705l19.798,-15.99l20.558,-14.467l18.274,-11.422l18.275,-10.66l5.462,-2.731"
        style="fill:none;fill-rule:nonzero;stroke:#ffe5ad;stroke-width:2.5px;"/><path class="contour" id="C18"
                                                                                      d="M3333.33,870.644l-1.496,1.638l-15.99,17.513l-36.549,35.025l-16.751,13.706l-17.513,12.944l-15.228,11.422l-98.986,69.29l-55.584,38.071l-20.559,15.229l-62.437,47.969l-21.32,14.468l-23.604,15.228l-24.366,15.229l-22.081,12.944l-66.244,34.264l-41.118,19.036l-15.99,6.853l-17.512,6.853l-9.899,2.284l-30.457,3.807l-9.137,1.523l-6.853,3.046l-25.889,13.705l-40.355,16.752l-21.32,8.375l-12.183,5.33l-12.183,7.615l-8.376,6.091l-12.182,12.944l-44.163,51.016l-25.127,25.889l-3.046,3.807l-9.899,12.944l-22.081,32.741l-18.274,29.696l-15.99,27.412l-18.275,35.025l-60.152,114.976l-12.183,22.843l-28.935,49.492l-9.898,19.036l-8.376,17.513l-5.33,12.183l-9.137,24.366l-7.614,22.842l-6.092,22.843l-8.375,34.264l-21.32,102.032l-4.569,20.558l-2.284,6.092l-3.046,6.091l-18.274,21.32l-18.274,17.513l-9.899,9.137l-19.036,15.99l-41.117,30.457l-24.365,18.274l-22.843,19.798l-15.229,13.705l-19.797,20.559l-22.843,27.411l-18.274,24.366l-41.879,58.63l-12.944,15.99l-6.853,8.376l-9.137,9.137l-19.797,18.274l-10.66,7.614l-16.751,11.422l-17.513,9.898l-11.422,6.092l-15.228,6.091l-57.869,17.513l-49.493,16.751l-16.751,5.33l-8.376,1.523l-12.944,2.284l-38.071,5.33l-3.807,0.762l-9.899,2.284l-14.467,5.33l-7.614,3.046l-7.615,4.568l-8.375,5.33l-7.615,6.092l-6.091,5.33l-4.569,6.091l-5.576,8.923"
                                                                                      style="fill:none;fill-rule:nonzero;stroke:#ffe5ad;stroke-width:2.5px;"/><path
        class="contour" id="D17"
        d="M0,2329.01l46.276,-47.327l79.188,-84.519l28.935,-31.98l12.182,-15.228l11.422,-15.229l11.421,-15.99l34.264,-51.016l17.513,-22.842l12.183,-13.706l12.944,-13.706l13.706,-12.944l33.503,-28.934l20.559,-19.036l24.365,-24.366l15.99,-17.513l19.797,-24.365l22.843,-34.265l7.614,-14.467l9.899,-19.797l6.091,-17.513l5.33,-17.512l4.569,-19.036l3.046,-19.036l1.523,-17.513l0.761,-18.274l0.761,-42.64l0.762,-20.558l3.046,-25.889l2.284,-12.183l5.33,-19.036l6.091,-16.751l9.899,-19.797l10.66,-19.797l11.421,-17.513l12.944,-17.513l13.706,-17.513l9.137,-10.66l42.64,-47.208l17.513,-20.559l15.99,-22.081l13.706,-21.32l12.183,-21.32l12.183,-22.082l11.421,-22.081l21.32,-45.686l20.558,-49.492l9.138,-25.128l7.614,-21.32l6.091,-22.081l5.33,-18.274l5.33,-19.036l13.706,-60.153l3.807,-15.99l4.569,-15.99l9.137,-25.127l11.421,-23.604l10.66,-15.99l10.66,-13.706l11.422,-13.705l14.467,-12.945l30.457,-24.365l19.797,-12.945l20.559,-12.183l20.558,-10.66l22.082,-10.66l19.797,-7.614l20.558,-6.853l24.366,-6.853l48.731,-10.659l99.747,-17.513l76.143,-14.467l60.914,-10.66l45.686,-9.138l73.858,-15.99l47.97,-12.182l47.209,-12.945l66.244,-19.035l37.31,-11.422l38.072,-13.706l89.848,-32.741l67.767,-22.843l33.503,-12.944l21.32,-9.137l41.878,-19.036l20.559,-10.66l22.843,-12.183l60.153,-35.025l16.751,-10.66l9.899,-7.615l9.898,-8.375l11.422,-12.945l9.898,-15.99l7.614,-17.512l6.092,-19.036l4.568,-20.559l3.808,-22.081l10.66,-64.721l3.807,-19.798l3.045,-15.228l4.569,-15.99l4.569,-14.467l5.33,-13.706l8.375,-19.036l9.899,-19.035l12.183,-19.797l12.944,-19.036l15.228,-18.274l15.229,-16.752l16.751,-14.467l15.99,-12.183l15.99,-10.66l17.513,-9.898l18.275,-9.137l25.127,-10.66l51.777,-19.798l45.685,-19.035l15.121,-7.3"
        style="fill:none;fill-rule:nonzero;stroke:#ffe5ad;stroke-width:2.5px;"/><path class="contour" id="C17"
                                                                                      d="M3333.33,827.145l-10.633,11.634l-31.219,33.503l-14.467,15.99l-15.228,13.705l-31.98,27.412l-16.752,12.944l-65.483,48.731l-28.172,19.036l-42.64,28.934l-12.183,8.376l-15.99,12.183l-57.869,46.447l-21.32,16.751l-22.843,15.99l-13.705,9.138l-15.229,8.375l-26.65,12.945l-28.173,10.66l-30.457,9.898l-32.741,7.614l-31.219,5.33l-28.934,3.046l-16.751,0l-14.467,-0.761l-15.99,-1.523l-10.66,-1.523l-3.808,-1.523l-11.421,1.523l-5.33,2.284l-12.183,8.376l-9.137,9.899l-12.944,15.228l-8.376,9.137l-9.137,8.376l-9.899,7.614l-21.32,12.183l-44.924,25.889l-12.944,6.091l-27.412,11.421l-18.274,6.853l-9.898,6.092l-20.559,14.467l-21.32,14.467l-7.614,6.091l-13.706,13.706l-16.751,20.559l-6.092,9.898l-8.375,16.752l-51.778,102.792l-17.512,33.503l-11.422,19.797l-41.878,70.052l-15.229,26.65l-28.934,53.3l-13.706,25.888l-6.853,13.706l-0.761,2.284l-2.284,7.614l-19.036,82.235l-7.614,28.934l-8.376,29.696l-9.899,29.695l-9.137,22.082l-9.898,20.558l-12.183,21.32l-12.183,19.036l-14.467,19.036l-15.229,18.274l-15.99,18.274l-66.244,73.859l-67.006,76.904l-18.274,19.797l-18.274,18.274l-16.752,15.229l-18.274,15.228l-21.32,15.229l-22.843,14.467l-22.842,12.183l-19.798,8.376l-19.035,7.614l-16.752,5.33l-15.99,4.568l-51.777,12.945l-15.99,4.568l-18.274,6.092l-18.274,6.853l-15.99,7.614l-15.99,9.137l-15.99,9.898l-15.229,11.422l-13.705,12.944l-12.945,14.467l-9.898,13.706l-6.822,11.207"
                                                                                      style="fill:none;fill-rule:nonzero;stroke:#ffe5ad;stroke-width:2.5px;"/><path
        class="contour" id="D16"
        d="M0,2423.92l69.119,-82.079l22.081,-24.365l47.209,-51.016l15.99,-19.036l15.228,-20.558l13.706,-21.32l12.944,-22.082l21.32,-37.31l27.411,-50.254l12.183,-19.035l12.945,-18.275l11.421,-12.183l7.614,-7.614l9.899,-8.376l35.026,-28.934l11.421,-11.421l16.751,-17.513l15.99,-19.036l15.229,-20.558l12.944,-19.797l12.183,-19.798l12.183,-20.558l10.66,-20.559l9.898,-22.081l7.615,-20.559l6.091,-21.32l3.807,-17.512l3.046,-16.752l3.046,-21.32l6.091,-61.675l3.046,-20.559l3.046,-15.99l4.568,-15.229l8.376,-19.797l10.66,-19.797l12.183,-19.797l13.705,-19.036l25.127,-33.502l41.879,-52.539l15.99,-21.32l14.467,-21.32l13.706,-22.081l11.421,-19.036l9.899,-19.797l19.035,-38.833l21.32,-48.731l19.798,-48.732l9.137,-24.365l7.614,-25.128l6.853,-25.127l5.33,-19.797l3.807,-19.797l9.137,-51.016l5.33,-24.365l6.853,-24.366l6.853,-17.513l8.376,-17.513l6.091,-11.421l7.614,-10.66l7.614,-9.899l17.513,-18.274l19.797,-16.751l19.036,-12.945l20.559,-11.421l19.797,-10.66l19.036,-7.614l20.558,-6.092l30.457,-7.614l22.843,-3.046l95.94,-9.137l24.366,-3.807l34.264,-5.33l178.174,-34.264l140.103,-29.696l55.584,-12.183l28.173,-7.614l26.65,-7.614l19.035,-6.092l18.275,-6.091l62.437,-24.366l22.843,-8.376l20.558,-6.852l19.797,-5.33l23.605,-6.092l90.609,-20.558l21.32,-5.33l22.082,-6.092l44.163,-15.228l21.32,-8.376l20.558,-9.137l19.036,-10.66l19.036,-11.422l17.512,-12.182l14.468,-10.66l13.705,-12.183l6.853,-7.615l9.137,-12.182l9.137,-15.99l7.615,-21.32l3.807,-19.797l2.284,-19.798l3.046,-55.584l1.523,-22.843l2.284,-24.365l3.046,-22.843l3.807,-23.604l4.568,-22.843l6.853,-22.082l6.853,-18.274l7.614,-16.751l9.899,-16.752l11.421,-15.99l15.99,-19.035l17.513,-16.752l14.467,-11.421l15.229,-11.422l19.036,-11.421l19.797,-10.66l20.558,-9.899l84.519,-38.071l42.64,-20.559l21.32,-10.66l23.604,-12.944l23.062,-13.391"
        style="fill:none;fill-rule:nonzero;stroke:#ffe5ad;stroke-width:2.5px;"/><path class="contour" id="C16"
                                                                                      d="M3333.33,785.889l-28.146,30.808l-18.274,19.036l-17.513,18.274l-19.036,17.513l-18.274,16.752l-12.183,9.898l-28.934,22.843l-40.356,29.696l-85.28,61.675l-24.366,18.275l-19.035,14.467l-47.209,38.833l-19.797,15.228l-16.751,12.183l-16.752,11.421l-17.513,9.899l-21.319,10.66l-17.513,6.853l-17.513,5.33l-15.99,4.568l-15.229,3.046l-15.228,2.284l-24.366,1.523l-13.706,0l-13.705,-0.761l-19.797,-2.284l-42.64,-7.615l-19.798,-2.284l-19.797,-0.761l-19.035,2.284l-7.615,2.284l-9.137,4.569l-7.614,5.33l-9.137,9.137l-8.376,9.137l-17.513,21.32l-10.66,12.183l-12.944,12.944l-15.99,12.944l-17.513,12.945l-23.604,15.228l-24.366,15.229l-52.538,30.457l-44.925,25.127l-17.512,8.376l-15.229,7.614l-28.934,21.32l-19.036,12.183l-6.091,3.807l-6.092,7.614l-12.944,18.274l-5.33,8.376l-6.091,10.66l-45.686,86.803l-12.183,21.32l-59.391,92.894l-9.899,15.99l-2.284,3.046l-3.807,8.376l-6.092,15.99l-14.467,45.685l-8.376,27.412l-34.264,126.397l-8.376,27.411l-6.852,19.036l-7.615,19.035l-8.375,18.275l-10.66,20.558l-11.422,19.797l-11.421,17.513l-23.604,34.264l-25.889,34.265l-13.706,17.513l-28.173,33.502l-17.512,19.036l-17.513,18.274l-19.036,17.513l-17.513,14.467l-18.274,13.706l-30.457,19.797l-19.797,10.66l-20.559,9.899l-21.32,9.137l-21.32,8.375l-66.244,25.128l-21.32,9.137l-19.036,9.137l-18.274,9.898l-20.558,12.945l-19.798,13.705l-18.274,13.706l-19.797,15.99l-19.036,17.513l-22.081,22.081l-16.752,20.559l-15.99,25.127l-8.819,16.537"
                                                                                      style="fill:none;fill-rule:nonzero;stroke:#ffe5ad;stroke-width:2.5px;"/><path
        class="contour" id="D15"
        d="M140.333,2500l-1.163,-1.308l-13.706,-22.082l-9.137,-21.32l-3.046,-12.944l-2.284,-25.127l1.523,-17.513l4.569,-16.751l5.33,-15.99l6.091,-14.468l6.853,-13.705l6.853,-11.422l36.548,-54.061l14.467,-23.604l12.183,-22.082l19.797,-38.071l38.833,-79.189l9.137,-15.99l10.66,-14.467l9.137,-10.66l18.275,-16.751l29.695,-22.843l13.706,-11.421l9.137,-8.376l12.944,-15.229l12.945,-16.751l12.183,-17.513l24.365,-39.594l11.422,-20.559l10.66,-20.558l9.898,-21.32l9.137,-21.32l8.376,-22.843l7.614,-23.604l3.808,-17.513l3.807,-18.274l13.705,-81.473l4.569,-19.036l4.569,-12.944l8.375,-20.559l10.66,-19.797l12.183,-19.036l13.706,-19.035l47.97,-65.483l31.218,-45.686l14.467,-22.843l14.467,-23.604l25.889,-47.208l24.366,-51.777l10.66,-25.889l10.66,-26.65l9.898,-27.411l8.376,-25.889l7.614,-26.65l6.853,-26.65l5.33,-24.366l12.183,-67.005l4.569,-18.274l3.807,-14.468l4.568,-14.467l8.376,-20.558l9.898,-19.036l10.66,-13.706l11.422,-12.944l13.706,-11.421l14.467,-9.899l22.843,-12.183l13.705,-5.33l28.935,-7.614l15.228,-2.284l24.366,-2.285l47.208,-3.045l28.173,-2.285l56.346,-6.091l28.173,-4.569l28.172,-5.33l35.026,-7.614l105.839,-28.173l54.822,-12.183l54.062,-11.421l83.757,-15.228l54.823,-12.183l21.32,-5.33l21.32,-6.092l18.274,-6.091l17.513,-6.092l59.391,-23.604l38.833,-12.944l19.036,-5.33l24.365,-6.092l25.127,-5.33l50.255,-8.375l73.858,-11.422l35.787,-6.853l22.843,-6.091l22.843,-6.853l22.843,-8.376l21.32,-8.375l20.558,-9.899l20.559,-12.183l19.036,-12.944l16.751,-15.228l7.614,-8.376l8.376,-11.422l6.853,-12.182l3.807,-9.138l7.614,-27.411l2.284,-15.99l1.523,-16.751l0.762,-16.752l-0,-16.751l-2.285,-50.254l0,-23.605l3.046,-35.025l3.046,-22.082l5.33,-20.558l6.091,-20.559l7.615,-20.558l10.66,-19.798l9.898,-15.99l12.183,-15.228l15.99,-18.274l17.513,-16.752l21.32,-16.751l22.081,-15.99l22.082,-14.467l22.842,-13.706l23.605,-13.706l118.021,-64.721l67.767,-38.833l14.657,-8.061"
        style="fill:none;fill-rule:nonzero;stroke:#ffe5ad;stroke-width:2.5px;"/><path class="contour" id="C15"
                                                                                      d="M3333.33,748.568l-27.385,28.535l-19.035,19.036l-38.833,37.31l-20.559,18.274l-20.558,17.513l-19.797,15.229l-20.559,15.228l-65.483,46.447l-105.838,71.574l-70.052,46.448l-32.741,19.797l-15.99,9.137l-16.751,8.375l-22.082,8.376l-22.843,6.092l-22.081,3.045l-22.081,0l-21.32,-2.284l-20.559,-4.569l-19.797,-6.091l-38.833,-13.706l-16.751,-5.33l-16.752,-3.045l-18.274,-2.285l-18.274,0.762l-16.752,3.807l-9.137,3.807l-10.66,6.853l-7.614,7.614l-11.421,15.229l-5.33,11.421l-16.752,41.117l-9.137,19.797l-9.899,13.706l-9.137,11.422l-11.421,10.66l-23.604,20.558l-15.229,12.183l-15.99,12.183l-25.127,16.751l-19.036,11.422l-20.558,12.182l-53.3,28.935l-120.306,62.437l-12.183,6.091l-4.568,3.046l-1.523,1.523l-6.092,5.33l-9.137,8.375l-10.66,12.183l-12.944,15.229l-12.183,15.228l-12.183,16.752l-12.182,17.513l-22.082,34.264l-8.376,15.228l-15.228,28.173l-21.32,42.64l-12.944,28.935l-12.183,29.695l-6.092,15.99l-5.33,16.752l-9.898,33.502l-8.376,33.503l-15.228,64.722l-8.376,31.98l-11.422,31.98l-6.091,15.228l-12.183,28.173l-12.944,26.65l-34.264,63.96l-15.99,29.696l-9.899,15.99l-10.66,16.751l-10.66,15.99l-22.843,29.696l-20.558,24.365l-8.376,8.376l-5.33,4.569l-17.513,12.182l-26.65,18.275l-6.091,3.807l-5.33,2.284l-22.843,8.376l-15.99,5.33l-9.899,1.523l-15.228,1.523l-13.706,2.284l-15.99,3.807l-21.32,9.137l-15.228,7.614l-20.559,12.183l-9.137,6.853l-18.274,15.99l-15.229,15.99l-3.807,3.807l-25.889,31.219l-12.182,13.705l-16.752,14.468l-80.711,71.574l-26.65,23.604l-12.183,12.183l-9.146,9.684"
                                                                                      style="fill:none;fill-rule:nonzero;stroke:#ffe5ad;stroke-width:2.5px;"/><path
        class="contour" id="D14"
        d="M221.559,2500l-10.053,-11.968l-13.706,-20.559l-8.376,-15.99l-6.091,-16.751l-3.046,-10.66l-2.284,-14.467l-0.762,-15.229l1.523,-22.081l2.285,-10.66l3.807,-12.183l4.568,-12.183l6.853,-14.467l25.127,-50.254l61.676,-130.205l6.853,-12.944l7.614,-13.706l8.376,-12.944l6.091,-7.614l10.66,-9.899l43.402,-33.503l10.659,-9.898l11.422,-12.944l6.091,-8.376l8.376,-12.183l8.376,-13.706l13.705,-25.888l28.173,-55.584l19.036,-39.595l8.376,-19.797l7.614,-19.035l6.853,-19.036l6.091,-19.797l6.853,-22.843l17.513,-70.813l7.614,-23.604l7.614,-22.843l9.138,-20.559l10.66,-19.035l9.898,-16.752l86.803,-134.772l13.706,-22.843l25.888,-46.447l12.944,-24.366l12.183,-24.366l10.66,-24.365l9.137,-21.32l9.138,-22.082l7.614,-22.843l7.614,-22.081l13.706,-45.686l22.081,-88.325l6.092,-21.32l5.33,-16.752l6.091,-15.99l10.66,-20.558l9.137,-12.183l10.66,-9.899l13.706,-10.66l13.706,-6.853l15.228,-5.33l18.274,-5.33l19.798,-3.807l20.558,-3.807l118.783,-17.513l25.127,-4.568l25.127,-5.33l25.127,-6.092l25.127,-7.614l24.366,-8.376l24.366,-9.137l48.731,-20.558l23.604,-8.376l22.843,-8.376l25.127,-6.853l25.127,-6.091l25.128,-5.33l128.681,-22.843l25.127,-5.33l25.127,-6.091l25.127,-6.853l17.513,-6.092l81.473,-29.695l19.035,-6.853l20.559,-5.33l19.797,-5.33l42.64,-9.137l21.32,-3.046l33.503,-4.568l75.381,-6.092l16.752,-1.523l17.513,-3.045l24.365,-5.33l23.604,-6.853l22.843,-7.615l22.843,-9.137l22.082,-9.898l21.32,-10.66l16.751,-9.899l15.99,-11.421l13.706,-11.422l12.944,-12.182l9.898,-12.183l9.138,-12.945l4.568,-9.137l2.284,-6.853l6.092,-20.558l3.807,-21.32l2.284,-22.082l1.523,-22.081l0.762,-23.604l0.761,-73.859l1.523,-21.32l1.523,-14.467l3.045,-14.467l6.092,-22.081l6.091,-15.99l6.853,-15.99l9.899,-17.513l11.421,-15.99l11.422,-15.229l12.944,-15.228l15.228,-16.752l15.99,-15.99l16.752,-15.99l17.513,-14.467l15.228,-12.944l15.229,-11.421l15.99,-11.422l21.32,-13.706l22.081,-13.705l44.163,-25.127l47.208,-25.889l48.732,-25.888l24.366,-12.183l25.127,-11.422l25.127,-9.898l20.558,-6.092l4.661,-1.208"
        style="fill:none;fill-rule:nonzero;stroke:#ffe5ad;stroke-width:2.5px;"/><path class="contour" id="C14"
                                                                                      d="M3333.33,714.701l-16.725,17.478l-48.731,48.731l-19.797,18.275l-39.594,33.502l-17.513,13.706l-36.549,25.127l-51.015,32.742l-90.61,53.3l-42.64,23.604l-68.529,35.787l-61.675,29.696l-13.706,6.091l-12.944,4.569l-17.513,5.33l-19.036,3.045l-15.229,0l-15.228,-1.522l-18.274,-4.569l-19.036,-5.33l-50.254,-16.751l-21.32,-6.092l-21.32,-3.807l-21.32,-2.284l-20.559,-0l-13.705,1.523l-12.945,3.045l-6.853,3.046l-6.852,4.569l-8.376,6.091l-7.614,7.614l-9.138,12.183l-7.614,13.706l-8.376,19.035l-15.228,41.118l-6.092,15.228l-6.852,14.467l-6.853,12.183l-7.615,12.183l-8.375,11.421l-13.706,16.752l-14.467,15.228l-15.99,15.229l-16.751,13.706l-16.752,12.182l-17.513,11.422l-19.797,12.183l-19.797,11.421l-40.356,21.32l-83.757,41.879l-24.365,13.705l-26.65,17.513l-21.32,15.229l-21.32,16.751l-21.32,17.513l-21.32,19.797l-19.797,19.036l-22.082,22.843l-18.274,20.558l-19.036,22.843l-2.284,3.807l-4.569,6.853l-13.705,21.32l-16.752,29.696l-15.228,31.218l-6.853,15.99l-6.092,14.467l-7.614,24.366l-6.853,25.127l-20.558,90.61l-16.752,54.823l-9.898,25.888l-10.66,24.366l-38.072,86.803l-31.98,75.381l-11.421,24.366l-6.853,13.706l-9.137,13.705l-9.899,13.706l-11.421,12.944l-12.183,11.422l-11.421,9.898l-9.137,6.092l-9.137,5.33l-7.615,4.568l-6.091,2.285l-3.807,0.761l-51.777,15.99l-22.082,7.614l-16.751,8.376l-7.615,4.569l-17.512,12.182l-6.853,5.33l-5.33,5.33l-10.66,11.422l-44.163,55.584l-19.036,21.32l-14.467,14.467l-19.797,19.036l-21.32,18.274l-86.041,70.813l-12.945,10.66l-9.684,9.684"
                                                                                      style="fill:none;fill-rule:nonzero;stroke:#ffe5ad;stroke-width:2.5px;"/><path
        class="contour" id="D13"
        d="M337.903,2496.41l-6.092,-9.137l-5.33,-9.898l-4.568,-9.899l-3.807,-9.899l-3.808,-10.66l-2.284,-10.66l0,-13.705l1.523,-9.899l3.046,-9.137l5.33,-9.898l7.614,-9.899l9.137,-10.66l11.422,-9.137l12.182,-9.137l12.183,-7.615l10.66,-5.33l9.137,-3.045l7.615,-2.285l6.091,-0.761l3.807,0l0.762,0.761l12.182,0.762l21.32,3.807l3.046,0.761l3.046,-0.761l6.853,-3.046l17.513,-9.898l6.852,-5.33l3.808,-3.807l3.807,-6.853l4.568,-15.229l0.762,-8.376l-0,-6.852l-0.762,-6.853l-5.33,-23.604l-3.807,-16.752l-3.807,-9.898l-5.33,-8.376l-12.183,-20.559l-6.091,-12.944l-6.853,-20.559l-2.284,-7.614l-0.762,-4.568l19.036,-44.163l3.807,-11.422l2.284,-12.182l0,-5.33l-0.761,-9.899l-10.66,-48.731l-2.284,-16.752l-0.762,-9.137l0,-3.807l2.284,-10.66l4.569,-15.99l7.614,-21.32l27.412,-80.711l37.31,-111.93l8.375,-24.366l9.899,-25.889l11.421,-25.888l11.422,-25.127l15.99,-31.98l26.65,-48.732l63.96,-112.691l22.842,-40.356l21.32,-41.878l10.66,-22.081l19.798,-44.163l15.228,-40.356l12.944,-40.356l22.082,-69.29l8.375,-25.888l10.66,-23.604l9.138,-17.513l11.421,-15.99l10.66,-11.422l10.66,-9.137l10.66,-7.614l14.467,-8.376l22.082,-9.137l22.842,-7.614l24.366,-6.092l25.127,-4.568l76.143,-14.467l25.889,-5.33l25.888,-6.853l25.127,-6.853l25.127,-8.376l25.127,-9.137l84.519,-32.741l18.274,-6.853l19.036,-5.33l21.32,-5.33l21.32,-4.569l24.366,-4.568l73.097,-10.66l49.492,-8.376l24.366,-4.568l48.731,-10.66l25.128,-7.615l24.365,-8.375l44.163,-16.752l31.219,-10.66l22.842,-6.853l22.843,-5.33l42.64,-9.898l21.32,-4.569l22.082,-3.045l19.797,-2.285l22.081,-2.284l44.163,-3.046l23.604,-2.284l23.605,-3.046l22.842,-4.568l19.797,-5.33l19.798,-6.092l21.32,-8.375l22.081,-9.899l22.843,-11.421l22.843,-12.945l21.32,-13.705l19.035,-14.468l12.945,-11.421l11.421,-12.183l4.569,-6.091l6.091,-9.137l6.091,-10.66l4.569,-12.183l4.569,-14.467l3.807,-15.99l3.045,-21.32l1.523,-21.32l3.807,-56.346l4.569,-46.447l5.33,-43.401l3.046,-20.559l4.568,-19.797l3.046,-9.899l6.853,-16.751l8.376,-15.99l11.421,-18.274l13.706,-17.513l15.228,-18.274l12.183,-13.706l27.411,-28.934l14.468,-14.468l19.797,-17.512l22.081,-16.752l14.467,-10.66l15.229,-9.898l19.035,-11.422l20.559,-11.421l20.559,-10.66l43.401,-22.082l23.604,-10.66l23.605,-9.137l24.365,-9.137l19.797,-6.091l19.797,-5.33l26.65,-5.33l21.32,-2.284l22.843,-2.285l22.082,-0.761l70.051,-0.762l105.838,0l24.366,-0.761l23.604,-3.046l14.468,-3.045l13.705,-4.569l19.036,-9.137l19.797,-13.706l12.944,-9.898l8.823,-8.823"
        style="fill:none;fill-rule:nonzero;stroke:#ffe5ad;stroke-width:2.5px;"/><path class="contour" id="C13"
                                                                                      d="M3333.33,681.321l-32.715,34.107l-34.264,34.264l-17.513,16.751l-18.274,15.99l-26.65,22.082l-31.98,22.842l-17.513,10.66l-35.025,19.798l-32.742,15.99l-20.558,9.898l-41.117,18.274l-70.813,31.219l-50.255,21.32l-41.878,15.99l-41.117,13.706l-23.604,6.852l-22.843,4.569l-25.889,3.046l-11.421,-0l-25.127,-1.523l-24.366,-3.046l-75.381,-14.467l-25.127,-3.807l-19.798,-2.284l-18.274,-0.762l-17.513,0.762l-15.99,3.807l-6.853,3.045l-12.182,8.376l-6.853,6.853l-7.615,10.66l-6.091,11.421l-7.614,20.559l-19.797,67.767l-8.376,23.604l-8.376,19.797l-9.898,17.513l-10.66,16.752l-12.183,15.99l-22.843,22.843l-16.751,14.467l-17.513,13.705l-19.036,12.183l-21.32,13.706l-22.081,13.706l-19.797,10.66l-73.098,37.31l-22.081,11.421l-23.604,14.467l-24.366,14.467l-22.843,15.229l-22.843,15.99l-35.025,27.411l-36.549,33.503l-35.787,35.787l-19.036,22.082l-19.035,24.365l-21.32,29.696l-19.797,29.696l-18.275,29.695l-14.467,25.127l-12.944,22.843l-20.559,40.356l-26.65,58.63l-9.898,19.036l-15.99,31.218l-11.422,22.843l-8.375,24.366l-15.229,48.731l-6.091,16.751l-22.843,57.869l-9.137,25.888l-13.706,43.402l-6.853,19.036l-9.898,21.32l-10.66,17.512l-9.899,14.467l-6.091,6.092l-3.046,2.284l-13.706,9.899l-6.853,3.807l-51.015,25.888l-25.127,13.706l-22.082,13.706l-12.183,9.137l-15.228,14.467l-14.467,15.229l-7.615,9.898l-33.502,50.254l-13.706,19.036l-5.33,6.853l-8.376,9.899l-11.421,11.421l-12.944,12.183l-12.183,10.66l-65.483,52.538l-21.32,17.513l-15.99,13.706l-20.807,20.344m-902.15,-0l-2.939,-3.593"
                                                                                      style="fill:none;fill-rule:nonzero;stroke:#ffe5ad;stroke-width:2.5px;"/><path
        class="contour" id="D12"
        d="M1025.91,2500l-6.531,-4.354l-6.092,-4.569l-5.33,-5.33l-9.898,-12.944l-32.742,-47.97l-15.228,-19.797l-14.467,-15.99l-15.229,-14.467l-17.513,-12.944l-44.163,-28.173l-51.015,-34.265l-25.889,-15.99l-18.274,-9.898l-12.944,-9.137l-11.422,-5.33l-9.137,-3.807l-28.934,-6.853l-9.137,-2.284l-9.138,-3.808l-10.66,-6.852l-6.852,-6.853l-6.092,-7.615l-25.888,-41.878l-25.127,-34.264l-10.66,-14.467l-8.376,-13.706l-3.807,-8.376l-3.807,-9.137l-6.853,-19.036l-5.33,-19.035l-4.569,-20.559l-8.376,-45.686l-3.045,-15.228l-3.807,-10.66l-15.229,-45.686l-0.761,-3.807l0.761,-19.797l2.284,-19.797l3.807,-23.605l5.33,-26.649l6.853,-28.173l8.376,-29.696l9.899,-28.934l10.66,-28.173l10.66,-26.65l10.66,-25.127l9.898,-21.32l31.98,-64.722l23.604,-44.162l58.63,-107.362l22.843,-44.924l10.66,-22.843l9.899,-22.081l9.137,-22.082l8.376,-22.081l14.467,-43.401l20.558,-66.245l7.614,-21.32l9.138,-21.32l10.66,-19.797l12.182,-17.513l6.853,-7.614l11.422,-9.898l12.183,-8.376l12.944,-7.614l14.467,-6.853l21.32,-6.853l22.843,-6.091l23.604,-5.33l79.189,-15.99l26.65,-6.092l24.365,-6.853l24.366,-7.614l25.127,-7.614l74.62,-25.127l22.843,-7.615l23.604,-6.091l23.604,-5.33l25.127,-4.569l24.366,-3.045l25.127,-2.285l75.382,-6.091l47.208,-5.33l22.843,-3.807l22.081,-3.807l22.082,-4.569l22.081,-6.091l29.696,-9.899l23.604,-9.137l53.3,-22.081l25.889,-9.899l26.65,-9.137l26.65,-8.376l26.65,-6.853l25.127,-5.33l25.127,-4.568l25.127,-3.046l53.3,-6.091l34.264,-4.569l16.752,-3.046l17.512,-3.807l17.513,-4.568l21.32,-6.092l19.797,-7.614l24.366,-9.137l23.604,-9.137l22.843,-10.66l22.081,-11.422l20.559,-12.183l19.036,-14.467l15.228,-16.751l8.376,-11.422l9.899,-22.081l6.091,-23.604l3.807,-22.843l2.284,-24.366l4.569,-73.097l3.807,-31.218l4.569,-23.605l4.568,-22.842l5.33,-22.082l6.853,-22.081l7.614,-20.559l9.138,-20.558l4.568,-8.376l11.421,-18.274l12.183,-16.752l14.467,-18.274l14.468,-16.751l13.705,-14.468l12.945,-12.944l16.751,-15.228l16.751,-13.706l20.559,-14.467l22.081,-13.706l22.082,-12.944l22.843,-12.183l22.842,-11.421l23.605,-9.899l24.365,-9.137l36.549,-10.66l31.98,-6.092l22.843,-2.284l23.604,-1.523l21.32,-0.761l41.878,0.761l75.382,5.33l24.366,1.523l24.365,0l23.604,-1.523l23.605,-3.045l17.513,-5.33l16.751,-6.853l19.797,-10.66l19.797,-13.706l18.275,-15.229l17.512,-17.512l15.229,-15.99l14.467,-17.513l21.372,-27.097"
        style="fill:none;fill-rule:nonzero;stroke:#ffe5ad;stroke-width:2.5px;"/><path class="contour" id="C12"
                                                                                      d="M3333.33,641.935l-16.725,18.67l-18.274,19.035l-37.31,37.31l-35.026,33.503l-17.512,15.99l-18.275,14.467l-21.32,15.229l-19.035,12.183l-19.797,11.421l-19.798,9.899l-20.558,9.898l-21.32,9.137l-23.604,9.138l-98.986,36.548l-53.3,19.036l-53.3,16.751l-24.366,7.615l-25.127,6.091l-24.365,4.568l-25.128,3.808l-15.989,0.761l-16.752,0l-22.843,-0.761l-22.843,-2.285l-110.407,-19.035l-15.228,-1.523l-10.66,-0.762l-12.183,0.762l-10.66,1.523l-11.421,3.045l-10.66,4.569l-10.66,6.091l-9.138,9.137l-5.33,6.853l-9.137,15.99l-5.33,15.229l-3.807,15.99l-10.66,54.061l-5.33,19.797l-6.091,20.559l-4.569,12.183l-5.33,12.183l-3.807,7.614l-14.467,22.081l-16.751,19.797l-14.468,14.468l-15.228,12.944l-15.229,11.421l-15.99,10.66l-16.751,10.66l-41.117,25.889l-72.336,41.878l-31.218,18.275l-22.843,14.467l-22.843,15.228l-22.081,15.229l-22.082,15.99l-21.32,17.513l-20.558,17.512l-19.797,16.752l-18.275,17.513l-36.548,36.548l-16.752,19.036l-14.467,16.751l-26.65,34.265l-12.183,17.512l-28.934,43.402l-80.711,127.92l-31.219,47.208l-11.421,15.99l-6.092,7.615l-3.807,3.045l-1.523,0.762l-9.898,7.614l-12.944,12.183l-13.706,14.467l-6.092,7.614l-4.568,6.853l-6.092,12.944l-6.852,18.275l-5.33,21.32l-21.32,95.939l-6.853,28.935l-3.807,12.944l-4.569,12.944l-8.376,19.036l-6.853,12.944l-4.568,6.092l-11.422,13.705l-19.035,19.036l-11.422,9.899l-9.137,6.852l-51.015,34.265l-12.183,8.375l-19.797,16.752l-6.092,6.853l-6.853,8.375l-42.64,53.3l-7.614,11.422l-22.081,34.264l-8.376,12.183l-5.33,6.091l-17.513,19.036l-19.797,19.036l-86.803,81.472l-12.183,10.66l-8.375,6.853l-13.706,6.853l-7.244,2.07"
                                                                                      style="fill:none;fill-rule:nonzero;stroke:#ffe5ad;stroke-width:2.5px;"/><path
        class="contour" id="D11"
        d="M1168.62,2446.15l-4.568,-1.523l-8.376,-2.284l-9.137,-4.569l-19.797,-12.944l-13.706,-9.898l-9.898,-9.138l-57.869,-55.584l-21.32,-20.558l-47.97,-39.595l-11.421,-11.421l-19.036,-21.32l-22.081,-31.219l-10.66,-12.182l-23.605,-25.889l-6.091,-5.33l-37.31,-22.843l-18.274,-6.091l-14.467,-6.092l-10.66,-6.091l-12.183,-9.137l-11.422,-9.899l-8.375,-7.614l-22.843,-26.65l-7.614,-8.376l-9.138,-7.614l-15.228,-12.944l-12.183,-9.899l-6.853,-6.853l-5.33,-6.091l-9.898,-13.706l-33.503,-44.163l-1.523,-0.761l-4.569,-3.807l-9.137,-9.899l-12.183,-16.751l-9.137,-14.467l-8.375,-17.513l-6.853,-18.274l-6.092,-19.036l-3.807,-17.513l-2.284,-18.274l-1.523,-25.889l1.523,-25.888l3.807,-24.366l6.853,-23.604l7.614,-20.559l9.137,-19.797l19.797,-44.163l22.843,-47.208l23.604,-46.447l38.833,-73.097l25.127,-48.732l22.082,-44.924l23.604,-51.016l10.66,-25.888l9.137,-23.605l31.219,-92.894l9.137,-22.081l6.091,-14.467l7.615,-14.467l7.614,-12.183l8.376,-10.66l5.33,-6.092l11.421,-10.66l15.229,-10.66l16.751,-9.137l22.081,-8.375l22.843,-6.092l24.366,-5.33l73.858,-15.99l25.128,-6.091l33.502,-9.137l92.895,-30.458l22.842,-6.852l23.605,-6.092l18.274,-3.807l18.274,-3.046l26.65,-3.807l53.3,-3.046l80.711,-2.284l28.173,-1.523l28.173,-2.284l27.412,-2.284l27.411,-3.807l27.411,-4.569l26.65,-6.091l15.99,-5.33l15.229,-5.33l21.32,-8.376l65.483,-28.173l22.081,-9.898l22.843,-8.376l47.208,-13.706l24.366,-5.33l28.173,-4.568l64.721,-9.899l31.98,-6.853l16.752,-4.568l15.99,-4.569l26.65,-9.137l98.985,-34.264l20.559,-8.376l17.513,-8.376l15.99,-9.137l14.467,-9.898l12.944,-10.66l9.899,-9.899l8.375,-11.421l5.33,-8.376l6.853,-16.752l4.569,-16.751l3.807,-24.366l2.284,-25.127l3.807,-78.427l1.523,-16.751l1.523,-15.99l9.137,-45.686l6.853,-22.081l6.853,-18.275l7.614,-17.512l8.376,-17.513l10.66,-19.036l12.183,-17.513l15.228,-19.797l12.183,-14.467l12.944,-13.706l13.706,-13.705l15.229,-12.945l16.751,-12.183l16.751,-11.421l17.513,-11.421l22.843,-13.706l23.604,-12.183l24.366,-11.421l16.751,-6.853l17.513,-6.092l22.082,-6.853l22.842,-4.568l18.275,-2.284l18.274,-1.523l18.274,-0.762l18.275,0.762l27.411,1.523l27.411,3.807l51.777,7.614l15.229,1.523l15.99,1.523l19.036,0.761l18.274,0l13.706,-1.523l14.467,-1.523l13.705,-3.045l13.706,-4.569l14.467,-5.33l12.945,-7.614l9.137,-6.091l19.035,-15.99l17.513,-18.275l15.99,-19.797l15.99,-21.32l78.427,-109.645l2.62,-3.493"
        style="fill:none;fill-rule:nonzero;stroke:#ffe5ad;stroke-width:2.5px;"/><path class="contour" id="C11"
                                                                                      d="M3333.33,593.748l-33.476,38.684l-15.99,16.751l-33.503,32.742l-36.548,35.787l-19.798,18.274l-21.319,17.513l-24.366,18.274l-14.467,9.899l-22.082,12.944l-22.081,12.183l-22.843,10.66l-23.604,9.898l-22.843,9.138l-50.254,18.274l-53.3,19.036l-41.879,12.944l-20.558,5.33l-25.889,6.853l-25.127,5.33l-19.797,3.807l-20.559,3.807l-19.797,2.284l-21.32,1.523l-24.365,0l-22.843,-1.523l-23.605,-3.045l-22.842,-3.808l-67.767,-13.705l-16.752,-2.285l-15.99,-1.522l-19.797,-0l-18.274,1.522l-18.275,3.808l-16.751,5.33l-13.706,6.852l-12.944,8.376l-9.898,9.899l-7.615,9.898l-5.33,9.899l-6.853,19.797l-5.33,22.081l-7.614,45.686l-3.807,18.274l-4.569,17.513l-6.852,16.752l-6.853,14.467l-12.183,18.274l-14.467,17.513l-13.706,12.944l-14.467,12.183l-16.751,12.944l-16.752,11.422l-54.823,35.025l-32.741,21.32l-44.163,31.219l-43.401,31.98l-41.879,32.741l-21.32,17.513l-20.558,17.513l-19.797,19.036l-20.559,19.035l-38.071,39.594l-19.036,21.32l-36.549,44.163l-16.751,22.843l-15.229,20.559l-57.868,86.041l-34.264,48.731l-37.31,50.255l-17.513,22.842l-17.513,21.32l-15.99,18.275l-12.944,13.705l-9.899,9.899l-6.853,6.091l-3.045,1.523l-24.366,15.229l-15.99,12.944l-7.614,6.853l-6.853,6.853l-5.33,6.853l-4.569,6.852l-3.807,6.853l-2.284,6.853l-4.569,15.229l-3.046,15.99l-9.137,56.345l-5.33,23.605l-3.807,15.99l-4.568,14.467l-5.33,14.467l-6.092,13.706l-7.614,14.467l-9.137,13.705l-5.33,6.092l-5.33,6.853l-11.422,12.183l-20.558,19.797l-31.98,29.695l-11.422,10.66l-6.852,7.615l-6.092,6.852l-22.081,33.503l-12.944,19.797l-12.945,15.229l-12.183,16.751l-6.852,10.66l-16.752,28.173l-11.421,15.99l-12.183,15.99l-25.889,25.889l-11.421,9.898l-38.071,28.935l-10.66,6.852l-12.183,6.853l-13.706,5.33l-5.33,1.523l-15.229,0"
                                                                                      style="fill:none;fill-rule:nonzero;stroke:#ffe5ad;stroke-width:2.5px;"/><path
        class="contour" id="D10"
        d="M1192.99,2379.91l-11.421,-1.523l-10.66,-3.046l-11.422,-4.568l-16.751,-9.137l-26.65,-18.275l-15.99,-11.421l-19.036,-15.99l-22.843,-22.082l-6.852,-9.137l-10.66,-16.751l-38.833,-65.483l-8.376,-12.183l-5.33,-5.33l-9.137,-6.853l-12.183,-7.614l-31.98,-18.274l-16.751,-12.944l-6.853,-6.853l-12.944,-17.513l-6.092,-12.944l-6.853,-17.513l-3.045,-5.33l-3.808,-4.569l-16.751,-13.705l-6.853,-7.615l-38.071,-41.117l-6.853,-7.614l-7.614,-5.33l-21.32,-12.944l-36.549,-22.082l-17.513,-11.421l-13.705,-9.899l-15.229,-12.183l-15.99,-12.944l-15.229,-15.99l-12.182,-13.706l-11.422,-15.99l-8.375,-14.467l-7.615,-14.467l-4.568,-12.944l-4.569,-18.274l-2.284,-18.275l0.761,-18.274l2.285,-16.751l7.614,-24.366l8.376,-23.604l10.66,-24.366l10.66,-23.604l22.842,-47.97l66.245,-132.489l48.731,-105.838l18.274,-41.879l34.264,-86.802l9.899,-22.843l9.137,-19.036l10.66,-17.513l9.899,-13.705l10.66,-12.945l12.944,-12.944l12.183,-9.137l9.898,-6.092l22.082,-9.898l18.274,-6.853l19.036,-5.33l101.27,-25.888l43.401,-12.945l83.757,-27.411l20.559,-6.092l17.512,-4.568l18.275,-3.807l25.127,-3.807l16.751,-1.523l44.163,-1.523l92.133,-0l23.604,-0.762l27.412,-0.761l27.411,-2.284l26.65,-2.285l22.081,-2.284l22.082,-3.046l21.32,-3.045l17.513,-3.807l17.512,-4.569l20.559,-6.091l20.559,-7.615l19.797,-7.614l66.244,-28.934l17.513,-7.614l17.513,-6.092l21.32,-6.091l20.558,-6.092l22.081,-4.568l59.392,-9.899l17.513,-3.807l20.558,-4.569l20.559,-6.091l22.843,-6.853l57.868,-20.558l66.244,-21.32l19.036,-6.853l19.797,-8.376l18.274,-9.899l12.183,-7.614l11.422,-8.376l12.183,-9.898l10.66,-10.66l5.33,-6.853l5.33,-7.614l6.852,-13.706l6.092,-15.228l5.33,-21.32l3.046,-22.843l2.284,-23.605l3.046,-73.858l2.284,-24.366l2.284,-19.797l3.046,-19.797l6.091,-23.604l6.853,-22.843l8.376,-22.843l6.853,-15.228l7.614,-14.468l11.421,-17.512l12.945,-16.752l11.421,-13.706l12.944,-12.944l14.467,-11.421l13.706,-10.66l15.229,-9.137l15.228,-8.376l15.229,-7.614l39.594,-16.752l17.513,-6.853l18.274,-6.091l15.99,-4.569l15.229,-3.807l12.944,-3.045l24.366,-3.808l24.365,-3.045l25.127,-1.523l24.366,-0.762l34.264,0.762l70.813,3.807l26.65,0.761l26.65,-0.761l25.127,-2.284l25.127,-3.807l15.99,-3.808l14.467,-5.33l19.798,-9.898l10.66,-7.614l9.137,-7.615l15.99,-15.99l14.467,-18.274l13.706,-20.558l13.705,-22.082l32.742,-57.107l28.172,-44.924l14.468,-22.082l12.182,-16.751l12.945,-16.751l7.188,-8.823"
        style="fill:none;fill-rule:nonzero;stroke:#ffe5ad;stroke-width:2.5px;"/><path class="contour" id="C10"
                                                                                      d="M3333.33,538.049l-19.77,25.854l-31.98,38.833l-16.752,18.275l-21.32,22.842l-19.035,18.275l-38.072,35.025l-18.274,15.99l-19.036,15.99l-20.558,15.229l-20.559,14.467l-22.081,13.706l-16.752,9.137l-17.513,9.137l-17.512,8.376l-36.549,15.99l-45.686,16.751l-22.842,7.614l-39.595,10.66l-44.162,9.137l-25.889,4.569l-26.65,3.046l-25.889,3.045l-26.65,1.523l-25.888,0.762l-27.411,-1.523l-26.65,-2.284l-26.65,-3.808l-69.29,-10.66l-15.99,-1.522l-15.229,-0.762l-25.888,-0.761l-25.128,1.523l-23.604,2.284l-15.228,2.284l-14.467,2.284l-15.99,3.808l-14.468,5.33l-10.66,4.568l-9.137,6.092l-6.091,4.568l-5.33,5.33l-7.614,9.899l-6.853,10.66l-9.899,19.797l-8.376,21.32l-15.228,45.685l-12.944,33.503l-6.853,15.229l-8.376,15.228l-7.614,12.183l-8.376,11.422l-9.137,10.66l-12.183,12.182l-12.944,10.66l-21.32,15.229l-60.153,39.594l-36.548,25.889l-17.513,13.706l-16.752,14.467l-16.751,15.228l-18.274,17.513l-17.513,17.513l-35.787,37.31l-37.31,40.356l-17.513,20.558l-29.696,35.787l-31.98,41.117l-45.685,63.96l-79.189,115.737l-28.173,41.117l-16.751,22.082l-19.036,24.365l-19.797,24.366l-20.559,23.604l-20.558,22.082l-19.797,19.036l-18.275,16.751l-16.751,13.706l-13.706,10.66l-9.898,6.091l-6.092,3.807l-3.045,0.762l-9.137,6.852l-16.752,15.229l-10.66,12.183l-9.137,12.944l-9.137,17.513l-5.33,12.183l-3.807,12.944l-9.137,39.594l-5.33,19.797l-6.092,18.275l-7.614,18.274l-9.137,15.229l-13.706,19.797l-44.924,54.822l-9.137,11.422l-8.376,12.944l-9.899,14.467l-3.807,7.615l-3.045,9.137l-7.615,29.695l-4.568,13.706l-9.137,21.32l-12.945,21.32l-17.513,28.934l-14.467,21.32l-9.898,12.183l-8.376,7.614l-15.99,12.183l-11.421,6.853l-6.092,3.046l-11.421,5.33l-6.092,2.284l-12.182,2.284l-6.092,0.762l-5.33,-0"
                                                                                      style="fill:none;fill-rule:nonzero;stroke:#ffe5ad;stroke-width:2.5px;"/><path
        class="contour" id="C9"
        d="M1078.01,2214.68l-7.615,-24.366l-2.284,-4.568l-3.046,-5.33l-7.614,-8.376l-19.797,-20.559l-6.853,-5.33l-41.117,-27.411l-6.092,-3.807l-4.568,-5.33l-6.853,-9.137l-32.741,-51.016l-3.807,-6.091l-3.046,-3.046l-35.787,-22.843l-41.117,-31.218l-5.33,-5.33l-12.945,-14.467l-54.061,-62.438l-22.843,-13.705l-19.797,-15.229l-20.559,-19.036l-17.512,-19.797l-15.229,-22.842l-7.614,-15.229l-5.33,-15.229l-3.807,-15.228l-2.285,-24.366l1.523,-22.843l3.807,-17.513l5.33,-15.989l8.376,-22.082l137.057,-312.947l21.32,-52.538l10.66,-22.843l10.66,-22.082l11.421,-20.558l14.468,-21.32l16.751,-19.036l10.66,-9.898l10.66,-8.376l12.944,-8.376l13.706,-7.614l21.32,-9.137l22.081,-7.614l46.447,-13.706l69.29,-18.274l86.042,-25.127l21.32,-6.092l21.32,-4.568l29.695,-6.092l15.229,-1.523l25.127,-2.284l22.081,-0.761l93.656,1.522l24.366,0l34.264,-1.522l22.081,-1.523l44.163,-4.569l24.366,-3.046l23.604,-3.807l24.366,-4.568l16.751,-4.569l17.513,-4.568l19.036,-6.092l19.036,-6.853l36.548,-15.228l46.447,-22.082l19.797,-9.137l21.32,-8.376l25.889,-7.614l14.467,-3.046l24.366,-4.568l60.914,-7.614l18.274,-3.046l18.274,-3.807l21.32,-5.33l20.559,-5.33l65.483,-19.797l70.051,-20.559l22.843,-5.33l17.513,-3.807l16.751,-1.523l18.274,0.762l11.422,3.045l9.898,4.569l6.853,6.091l9.137,14.467l4.569,17.513l-0,19.797l-2.284,20.559l-6.092,20.558l-9.137,21.32l-11.421,20.559l-18.275,24.366l-15.228,15.99l-16.752,13.705l-14.467,10.66l-14.467,9.899l-19.036,10.66l-52.538,30.457l-16.751,10.66l-18.275,11.421l-16.751,11.422l-16.752,12.944l-19.035,15.229l-18.274,15.99l-17.513,16.751l-15.99,17.513l-25.127,28.934l-15.229,19.036l-29.696,38.071l-13.705,19.797l-28.935,45.686l-55.584,92.133l-23.604,36.548l-78.427,112.692l-26.65,37.31l-15.229,20.558l-16.751,21.32l-19.036,22.843l-23.604,27.411l-25.127,26.65l-22.843,22.082l-21.32,19.035l-16.751,13.706l-34.265,27.412l-9.137,9.898l-8.376,10.66l-25.127,37.31l-21.32,27.412l-9.137,15.989l-26.65,58.63l-29.695,54.823l-12.183,23.605l-9.137,20.558l-6.092,16.751l-4.568,15.229l-9.899,41.879l-4.569,16.751l-5.33,15.99l-6.852,15.229l-9.138,14.467l-10.66,14.467l-6.091,6.853l-13.706,12.182l-7.614,4.569l-7.614,3.807l-15.229,4.569l-7.614,1.523l-9.137,-0l-9.137,-0.762l-9.137,-2.284l-7.615,-2.284l-6.853,-2.285l-8.375,-4.568l-7.615,-4.569l-8.375,-5.33l-7.615,-6.091l-8.375,-7.615l-7.615,-9.137l-6.852,-9.137l-6.853,-9.898l-6.092,-10.66l-5.33,-9.899l-8.375,-18.274l-3.807,-12.183"
        style="fill:none;fill-rule:nonzero;stroke:#ffe5ad;stroke-width:2.5px;"/><path class="contour" id="C8"
                                                                                      d="M1137.4,2185.74l-4.569,-14.467l-2.284,-6.853l-3.807,-7.615l-6.853,-11.421l-3.807,-4.569l-7.614,-6.091l-6.092,-4.568l-6.853,-3.808l-3.045,-0.761l-6.853,-5.33l-12.944,-9.137l-13.706,-11.422l-76.143,-67.767l-73.097,-62.437l-37.31,-33.503l-95.94,-87.564l-15.99,-15.99l-14.467,-15.99l-11.421,-15.228l-9.138,-15.99l-6.091,-12.945l-6.091,-22.842l-2.285,-15.229l0,-15.229l3.046,-23.604l5.33,-23.604l7.614,-24.366l15.229,-47.97l9.137,-24.365l57.869,-145.433l38.832,-92.894l9.899,-22.843l11.421,-22.843l6.853,-12.944l7.614,-12.945l9.138,-12.944l15.99,-19.035l18.274,-17.513l12.944,-9.899l13.706,-9.137l12.944,-7.614l13.706,-6.092l23.604,-9.137l24.366,-8.376l53.3,-15.228l54.061,-14.467l54.061,-12.945l27.412,-6.091l27.411,-4.569l27.412,-3.807l27.411,-2.284l12.944,0l18.275,-0.761l69.29,1.522l25.888,0l26.65,-1.522l25.127,-1.523l25.889,-1.523l51.015,-6.092l25.127,-3.045l25.128,-4.569l24.365,-4.568l24.366,-6.092l22.843,-6.091l22.843,-7.614l31.98,-13.706l66.244,-31.219l22.843,-9.898l15.228,-4.569l15.229,-3.807l12.183,-2.284l22.081,-2.285l20.559,-0.761l48.731,-0.761l19.797,-1.523l20.559,-2.285l17.512,-2.284l17.513,-3.807l15.229,-3.807l93.656,-25.889l19.797,-4.568l18.274,-3.046l11.421,0l10.66,1.523l11.422,5.33l3.045,3.046l4.569,6.852l1.523,9.138l-0,10.66l-2.284,10.66l-7.615,16.751l-10.66,16.751l-9.898,11.422l-9.137,8.376l-10.66,8.375l-16.752,12.183l-18.274,11.422l-82.996,44.924l-22.843,13.705l-27.411,18.275l-18.274,12.944l-16.752,13.706l-20.558,17.513l-19.036,17.512l-19.036,20.559l-19.035,19.797l-17.513,21.32l-33.503,44.163l-14.467,22.081l-12.944,22.082l-11.422,19.797l-38.833,73.858l-10.66,20.559l-12.182,19.797l-14.468,22.843l-15.228,22.081l-15.99,21.32l-33.503,42.64l-23.604,27.412l-45.686,51.015l-15.228,19.797l-16.752,20.559l-36.548,50.254l-19.036,25.127l-19.036,24.366l-19.035,22.081l-56.346,63.199l-9.137,11.421l-19.797,19.036l-8.376,7.614l-19.036,14.467l-5.33,5.33l-4.568,6.092l-3.046,3.807l-6.091,12.944l-9.138,19.797l-9.898,22.843l-11.422,31.219l-15.99,44.163l-8.375,27.411l-6.092,25.127l-9.898,44.163l-4.569,18.274l-5.33,13.706l-3.807,6.853l-3.807,6.091l-3.807,5.33l-4.569,4.569l-5.33,3.807l-6.091,3.807l-6.092,2.284l-6.091,1.523l-6.091,0.762l-7.615,-0.762l-6.853,-1.523l-6.852,-3.807l-6.092,-3.807l-6.853,-6.853l-4.568,-5.33l-4.569,-6.091l-5.33,-9.899l-4.568,-10.66l-4.569,-9.898l-6.091,-19.798l-3.046,-13.705"
                                                                                      style="fill:none;fill-rule:nonzero;stroke:#ffe5ad;stroke-width:2.5px;"/><path
        class="contour" id="C7"
        d="M1224.51,2133.05l-6.506,11.57l-9.173,10.55l-7.801,1.423l-7.875,-5.016l-6.023,-7.944l-11.289,-16.582l-8.456,-15.966l-10.726,-13.734l-8.601,-8.303l-7.614,-4.568l-24.366,-15.99l-23.604,-17.513l-24.366,-19.797l-26.65,-22.843l-80.711,-70.051l-85.28,-71.575l-16.752,-14.467l-31.98,-30.457l-15.99,-18.274l-14.467,-19.036l-11.421,-18.274l-9.137,-19.036l-7.615,-20.558l-3.045,-13.706l-3.046,-25.888l0.761,-25.889l3.046,-26.65l4.569,-26.65l6.091,-27.411l16.752,-53.3l24.365,-71.575l15.99,-42.64l15.229,-35.787l17.513,-40.355l12.182,-23.605l13.706,-22.081l10.66,-14.467l9.137,-10.66l9.899,-9.899l16.751,-12.944l17.513,-11.421l23.604,-12.945l25.127,-10.66l26.65,-9.137l26.65,-8.375l52.539,-15.229l26.65,-6.091l26.65,-5.33l23.604,-4.569l24.366,-3.807l24.366,-3.046l22.842,-1.523l23.605,-1.523l23.604,-0.761l88.326,-0.761l47.969,-2.285l25.889,-1.523l52.539,-4.568l26.65,-3.807l51.015,-6.853l48.732,-8.376l24.365,-5.33l23.605,-6.091l20.558,-6.092l19.036,-6.853l76.904,-28.172l12.183,-3.807l17.513,-3.808l10.66,-0.761l7.614,-0l11.421,0.761l10.66,1.523l12.945,4.569l11.421,5.33l9.899,6.853l7.614,9.137l3.807,7.614l2.284,13.706l-1.523,10.66l-3.045,11.421l-6.853,14.467l-9.137,15.99l-9.899,15.99l-15.228,19.797l-15.99,20.559l-70.052,85.28l-16.751,22.081l-16.752,23.605l-15.228,22.842l-15.229,24.366l-46.447,76.904l-12.183,19.797l-12.944,19.036l-14.467,19.797l-13.706,15.99l-13.705,15.229l-18.275,17.513l-36.548,32.741l-18.274,17.513l-12.183,12.183l-15.99,18.274l-11.422,14.467l-9.898,15.229l-12.183,19.035l-11.422,19.036l-32.741,60.153l-11.421,21.32l-12.945,21.32l-12.944,20.558l-13.706,19.797l-14.467,19.798l-18.274,22.081l-61.676,69.29l-19.035,23.604l-10.597,18.683l-9.657,18.044l-8.679,24.533l-5.029,16.014l-4.705,13.874l-6.387,15.423l-7.939,19.665Z"
        style="fill:none;fill-rule:nonzero;stroke:#ffe5ad;stroke-width:2.5px;"/><path class="contour" id="C6"
                                                                                      d="M1160.25,1996.91l-11.422,-0.762l-12.183,-2.284l-18.274,-6.853l-17.513,-8.376l-17.512,-11.421l-16.752,-12.183l-16.751,-13.706l-19.797,-16.751l-67.768,-63.199l-50.254,-44.924l-16.751,-15.99l-15.99,-15.99l-13.706,-16.751l-12.944,-17.513l-11.422,-16.751l-9.137,-17.513l-8.375,-16.752l-6.853,-16.751l-4.569,-15.99l-3.807,-20.559l-1.523,-15.228l-0.761,-15.229l0.761,-16.751l3.046,-26.65l4.568,-22.082l5.33,-22.842l10.66,-42.64l9.138,-34.265l6.091,-18.274l9.899,-28.173l7.614,-19.035l16.751,-36.549l9.899,-17.513l8.376,-13.705l9.137,-12.183l9.137,-10.66l11.421,-10.66l19.036,-13.706l20.558,-12.183l21.32,-10.66l22.082,-8.375l22.081,-7.615l23.605,-6.853l22.842,-6.852l47.209,-10.66l23.604,-4.569l24.366,-4.569l30.457,-3.045l24.366,-1.523l23.604,-0.762l23.604,0l70.052,0.762l28.172,-0.762l27.412,-0.761l55.584,-3.046l51.777,-4.568l120.306,-12.945l95.94,-9.898l22.081,-0.762l20.559,0.762l11.421,2.284l9.899,3.807l8.375,6.092l3.807,6.091l2.285,8.376l-0,4.568l-1.523,12.945l-5.33,13.705l-8.376,15.99l-9.898,16.752l-25.128,35.787l-48.731,67.767l-66.244,92.894l-14.467,19.036l-14.467,18.274l-13.706,15.99l-10.66,11.422l-19.797,19.035l-33.503,29.696l-13.706,12.183l-12.944,13.705l-15.99,17.513l-14.467,19.036l-21.32,31.98l-15.229,28.934l-10.66,22.082l-29.695,63.96l-9.137,19.035l-12.183,22.843l-12.183,22.082l-13.706,21.319l-14.467,21.32l-15.99,19.798l-15.99,17.512l-16.751,17.513l-15.99,12.945l-15.99,12.182l-16.752,11.422l-16.751,10.66l-17.513,8.375l-11.421,3.808l-11.422,3.045l-13.706,2.285l-8.375,-0"
                                                                                      style="fill:none;fill-rule:nonzero;stroke:#ffe5ad;stroke-width:2.5px;"/><path
        class="contour" id="D5"
        d="M3333.33,460.5l-13.785,18.189l-9.792,14.402l-38.072,63.198l-15.228,22.082l-15.99,22.081l-15.99,18.274l-15.99,17.513l-15.229,15.229l-15.228,13.705l-32.742,28.173l-17.513,13.706l-17.513,12.944l-22.081,14.467l-22.081,13.706l-21.32,12.183l-22.082,10.66l-21.32,9.898l-36.548,15.229l-21.32,6.853l-20.559,6.853l-23.604,5.33l-22.843,4.568l-23.604,3.807l-53.3,6.092l-26.65,2.284l-26.65,0.761l-41.117,0l-25.889,-0.761l-122.59,-8.376l-76.142,-3.045l-22.082,-1.523l-16.751,-2.285l-16.752,-3.045l-15.99,-3.807l-15.99,-5.33l-15.99,-7.615l-14.467,-8.375l-8.375,-6.853l-7.615,-7.614l-11.421,-13.706l-9.137,-16.752l-7.615,-18.274l-6.091,-19.036l-4.569,-22.081l-3.045,-22.843l-1.523,-22.843l0.761,-27.411l3.807,-28.173l4.569,-23.604l6.091,-22.843l8.376,-22.843l9.899,-21.32l11.421,-20.558l8.376,-12.183l9.898,-11.422l12.945,-12.944l14.467,-12.183l15.228,-9.898l15.99,-8.376l15.99,-6.853l31.219,-9.898l40.356,-11.422l53.3,-12.944l26.649,-6.092l27.412,-5.329l26.65,-4.569l27.411,-3.807l33.503,-3.046l26.65,-0.761l26.65,-0l52.539,0.761l26.65,0.762l25.127,-1.523l24.365,-2.285l19.036,-3.045l18.274,-5.33l16.752,-6.853l12.183,-6.853l11.421,-7.614l9.899,-9.137l12.944,-15.99l7.614,-12.945l9.899,-19.035l8.375,-19.798l23.605,-61.675l8.375,-19.797l9.137,-20.559l9.899,-20.558l13.706,-22.843l14.467,-22.082l15.228,-20.558l16.752,-20.559l17.513,-19.035l4.044,-3.493"
        style="fill:none;fill-rule:nonzero;stroke:#ffe5ad;stroke-width:2.5px;"/><path class="contour" id="C5"
                                                                                      d="M1169.38,1932.19l-10.66,0l-22.843,-5.33l-16.751,-6.853l-16.752,-9.137l-11.421,-8.375l-11.422,-9.138l-19.035,-17.512l-17.513,-19.036l-17.513,-20.559l-42.64,-51.777l-50.254,-59.391l-31.219,-39.594l-14.467,-19.797l-13.706,-20.559l-10.66,-21.32l-5.33,-12.944l-2.284,-9.899l-3.046,-13.706l-1.522,-14.467l-0.762,-16.751l0.762,-17.513l2.284,-19.036l6.091,-41.878l4.569,-22.843l5.33,-22.081l5.33,-17.513l13.706,-33.503l7.614,-15.229l9.898,-16.751l10.66,-15.99l15.229,-16.751l11.421,-9.899l12.183,-8.376l22.082,-12.183l24.365,-9.898l25.127,-8.376l25.889,-6.853l25.889,-5.33l27.411,-5.33l19.036,-3.045l39.594,-5.33l20.558,-1.523l20.559,-0.762l22.843,0l44.924,0.762l72.336,3.807l142.387,4.568l48.731,0.762l64.721,-2.284l20.559,-0l18.274,1.522l15.99,3.808l8.376,4.568l6.091,5.33l3.046,3.807l1.523,3.807l2.284,12.183l-2.284,14.467l-5.33,17.513l-9.137,19.036l-11.422,19.797l-12.944,20.559l-14.467,20.558l-15.229,21.32l-16.751,20.559l-17.513,20.558l-17.513,18.275l-38.071,37.31l-19.036,18.274l-10.66,11.421l-9.898,10.66l-15.99,19.797l-15.99,20.559l-14.467,20.558l-13.706,21.32l-12.944,22.082l-12.183,21.32l-33.503,64.721l-22.081,39.594l-20.559,33.503l-11.421,16.752l-15.229,21.32l-15.99,19.797l-17.513,18.274l-17.513,14.467l-19.035,12.183l-11.422,6.091l-12.944,3.808l-12.183,2.284l-12.944,0.761"
                                                                                      style="fill:none;fill-rule:nonzero;stroke:#ffe5ad;stroke-width:2.5px;"/><path
        class="contour" id="D4"
        d="M3333.33,405.256l-12.917,10.93l-19.036,18.275l-16.752,18.274l-15.228,19.797l-10.66,15.229l-9.899,15.99l-32.741,60.152l-9.899,15.99l-10.66,14.468l-15.99,19.797l-17.512,17.513l-18.275,17.512l-19.035,15.99l-20.559,15.229l-21.32,14.467l-18.274,11.421l-20.559,11.422l-20.558,10.66l-44.163,20.558l-22.843,9.899l-15.99,6.091l-15.99,5.33l-23.604,6.092l-23.604,5.33l-24.366,4.568l-47.209,6.092l-23.604,2.284l-48.731,1.523l-25.127,-0.761l-121.067,-6.092l-86.042,-2.284l-26.65,-2.284l-20.558,-2.285l-20.559,-3.045l-19.797,-5.33l-18.274,-6.853l-12.945,-7.615l-12.182,-8.375l-9.138,-8.376l-10.66,-12.944l-9.137,-15.99l-7.614,-16.752l-4.569,-16.751l-3.807,-16.752l-1.523,-17.512l0,-18.275l1.523,-17.512l3.046,-18.275l4.569,-17.513l6.091,-17.512l9.137,-18.275l10.66,-18.274l12.183,-15.99l13.706,-14.467l12.183,-9.899l13.705,-8.375l14.467,-7.615l16.752,-6.091l16.751,-5.33l128.682,-36.549l41.878,-9.898l20.559,-4.569l21.32,-3.045l18.274,-2.285l19.036,-0.761l18.274,-0l19.035,0.761l22.843,2.285l46.447,5.33l20.559,1.522l19.797,0.762l24.366,-0.762l23.604,-2.284l22.843,-4.568l21.32,-7.615l15.99,-7.614l14.467,-9.137l5.33,-4.569l15.99,-15.99l13.706,-18.274l11.421,-22.843l6.092,-15.228l5.329,-15.99l4.569,-17.513l12.183,-52.539l5.33,-21.32l6.853,-21.32l6.853,-20.558l10.66,-23.604l9.137,-16.752l10.66,-15.99l11.421,-15.228l16.752,-18.275l15.99,-15.228l19.035,-15.229l18.275,-10.66l15.989,-8.375l16.752,-6.853l5.346,-1.97"
        style="fill:none;fill-rule:nonzero;stroke:#ffe5ad;stroke-width:2.5px;"/><path class="contour" id="C4"
                                                                                      d="M1165.58,1859.09l-10.66,0l-10.66,-2.284l-9.137,-3.046l-12.183,-6.091l-11.422,-7.615l-14.467,-13.705l-15.228,-15.229l-13.706,-17.513l-13.706,-18.274l-40.355,-54.061l-26.65,-34.264l-22.843,-28.173l-30.457,-35.787l-12.945,-15.229l-10.66,-15.99l-6.091,-12.183l-6.091,-15.228l-4.569,-15.229l-2.284,-15.228l-1.523,-16.752l-0,-17.513l0.761,-16.751l2.285,-16.752l3.045,-15.228l4.569,-14.467l6.853,-16.752l8.375,-15.99l10.66,-15.99l9.899,-11.421l18.274,-15.99l8.376,-5.33l18.274,-9.137l19.797,-7.614l21.32,-6.853l25.127,-6.092l25.889,-5.33l25.127,-4.568l40.356,-6.092l40.355,-3.807l52.539,-2.284l54.823,-1.523l28.173,0.761l28.934,2.285l28.173,2.284l27.411,3.046l27.411,3.807l25.889,5.33l19.797,4.568l18.274,6.092l15.99,7.614l13.706,8.376l10.66,12.183l3.807,8.375l1.523,5.33l0,12.183l-2.284,12.183l-5.33,13.706l-6.853,13.705l-12.944,20.559l-15.229,20.559l-54.061,70.051l-27.412,38.833l-13.705,19.035l-27.412,41.879l-49.493,79.188l-28.934,44.163l-12.944,17.513l-13.706,17.513l-13.705,15.99l-14.468,14.467l-14.467,11.422l-13.705,9.898l-15.229,7.614l-14.467,4.569l-14.467,2.284"
                                                                                      style="fill:none;fill-rule:nonzero;stroke:#ffe5ad;stroke-width:2.5px;"/><path
        class="contour" id="D3"
        d="M3333.33,364.099l-22.055,17.062l-19.035,15.99l-19.036,16.751l-17.513,16.752l-17.513,17.512l-21.32,24.366l-13.705,16.752l-12.183,17.512l-41.879,61.676l-11.421,16.751l-12.183,15.229l-14.467,16.751l-15.99,15.99l-14.467,12.183l-14.467,11.422l-22.082,15.228l-22.843,13.706l-24.365,12.944l-19.797,9.899l-19.798,9.137l-20.558,9.137l-21.32,7.614l-21.32,6.853l-22.081,6.092l-21.32,5.33l-23.605,4.568l-22.843,3.046l-25.888,2.284l-22.843,0.762l-23.604,0.761l-24.366,-0.761l-159.9,-8.376l-51.777,-3.807l-25.127,-3.046l-23.604,-3.807l-22.843,-6.092l-21.32,-7.614l-16.751,-9.898l-9.138,-7.615l-7.614,-7.614l-12.183,-18.274l-7.614,-19.797l-2.284,-12.945l-1.523,-12.944l0.761,-14.467l2.285,-14.467l5.33,-18.274l7.614,-17.513l9.898,-14.467l12.183,-13.706l13.706,-11.422l12.944,-9.137l14.467,-7.614l19.036,-7.614l19.797,-6.092l20.559,-4.568l89.848,-22.082l28.173,-6.091l34.264,-5.33l33.503,-3.046l19.797,-1.523l19.036,-0.761l17.513,-0l34.264,1.523l57.869,4.568l35.025,0l15.99,-1.522l15.99,-2.285l18.274,-3.807l18.275,-6.091l24.365,-10.66l22.843,-13.706l17.513,-13.706l16.752,-15.228l9.898,-11.422l9.137,-11.421l9.137,-12.944l7.615,-13.706l10.66,-22.081l8.375,-23.605l7.615,-24.365l17.512,-71.575l6.092,-20.558l7.614,-19.797l8.376,-18.275l10.66,-16.751l11.421,-15.229l15.229,-13.705l13.706,-10.66l7.614,-4.569l21.32,-9.898l21.32,-7.615l22.081,-6.853l104.289,-26.477"
        style="fill:none;fill-rule:nonzero;stroke:#ffe5ad;stroke-width:2.5px;"/><path class="contour" id="C3"
                                                                                      d="M1161.01,1780.66l-12.183,-1.523l-10.66,-3.045l-19.035,-9.899l-17.513,-12.944l-15.229,-15.99l-15.228,-16.752l-15.229,-19.035l-38.833,-51.777l-47.97,-60.153l-9.898,-15.229l-9.899,-14.467l-5.33,-11.421l-6.853,-19.797l-3.807,-18.275l-1.523,-18.274l1.523,-17.513l3.046,-13.706l5.33,-12.944l3.807,-6.091l9.137,-12.945l12.183,-11.421l12.183,-8.376l13.706,-7.614l19.797,-7.614l21.32,-6.853l22.843,-5.33l38.071,-6.853l54.823,-6.853l55.584,-5.33l23.604,-1.523l23.605,-0.761l26.649,-0l15.99,1.523l15.99,2.284l23.605,4.569l22.081,7.614l19.797,9.137l15.99,9.899l12.944,11.421l7.615,12.183l3.045,9.137l1.523,6.853l-0.761,17.513l-4.569,18.274l-7.614,19.036l-9.137,19.797l-11.421,20.558l-12.945,20.559l-26.65,41.878l-25.888,39.595l-24.366,34.264l-15.229,22.081l-15.99,21.32l-16.751,20.559l-16.751,18.274l-12.945,10.66l-13.705,9.137l-15.229,7.615l-18.274,4.568l-8.376,0"
                                                                                      style="fill:none;fill-rule:nonzero;stroke:#ffe5ad;stroke-width:2.5px;"/><path
        class="contour" id="D2"
        d="M3333.33,315.701l-20.532,18.251l-43.401,36.549l-34.264,30.457l-32.742,31.218l-16.751,17.513l-16.752,18.275l-14.467,17.512l-14.467,18.275l-50.254,66.244l-12.944,15.228l-13.706,15.229l-20.559,19.797l-21.32,18.274l-18.274,14.467l-19.797,12.945l-20.559,12.944l-19.035,9.899l-19.797,9.898l-19.798,8.376l-20.558,6.853l-16.751,5.33l-17.513,4.568l-18.275,3.046l-19.035,2.284l-25.127,2.285l-25.889,0.761l-25.888,-0.761l-46.448,-2.285l-107.361,-6.853l-48.731,-3.807l-27.412,-3.045l-26.65,-3.046l-25.127,-4.569l-22.843,-6.091l-15.228,-5.33l-12.944,-6.853l-4.569,-3.807l-11.421,-10.66l-7.615,-12.183l-3.807,-11.421l-1.523,-12.183l1.523,-12.944l3.807,-10.66l8.376,-15.229l12.183,-13.706l12.944,-9.898l15.229,-9.137l21.32,-8.376l22.842,-6.853l24.366,-6.091l48.732,-8.376l49.492,-7.614l52.539,-6.092l25.888,-2.284l41.118,-0l19.797,0.761l60.914,5.33l24.366,0.762l15.99,-0l15.99,-1.523l19.797,-3.046l19.797,-5.33l14.467,-4.568l13.706,-6.092l19.035,-9.137l18.275,-10.66l19.797,-14.467l19.035,-15.229l18.275,-16.751l16.751,-17.513l17.513,-20.558l15.228,-22.082l10.66,-15.99l9.138,-16.751l15.228,-30.457l19.797,-44.925l9.899,-21.32l8.376,-15.99l9.137,-14.467l15.99,-20.558l15.99,-15.229l17.512,-12.944l19.036,-10.66l19.797,-8.376l20.559,-6.853l19.797,-5.33l22.081,-3.807l22.082,-1.523l15.228,0l0.735,0.123"
        style="fill:none;fill-rule:nonzero;stroke:#ffe5ad;stroke-width:2.5px;"/><path class="contour" id="C2"
                                                                                      d="M1138.92,1689.29l-4.569,-0.762l-8.376,-3.807l-9.137,-4.568l-10.66,-7.615l-10.66,-9.137l-6.852,-7.614l-15.229,-15.229l-22.081,-25.127l-27.412,-31.218l-12.183,-15.99l-11.421,-16.752l-8.376,-16.751l-3.807,-9.137l-2.284,-9.137l-1.523,-15.229l2.284,-14.467l5.33,-12.944l5.33,-7.615l6.092,-6.852l9.898,-8.376l11.422,-6.853l15.99,-6.853l16.751,-5.33l18.274,-4.568l38.833,-6.853l38.833,-6.092l19.797,-1.523l31.219,-2.284l21.32,0l21.32,0.762l21.319,2.284l19.798,3.046l18.274,4.568l9.137,3.807l7.614,3.807l9.899,8.376l7.614,9.137l3.046,6.092l3.046,14.467l-0,8.376l-3.046,14.467l-4.569,15.228l-8.375,17.513l-9.899,17.513l-9.899,15.228l-10.66,15.99l-11.421,15.229l-12.183,14.467l-12.944,14.467l-13.706,13.706l-13.705,12.944l-13.706,11.422l-14.467,10.66l-12.183,7.614l-11.422,6.853l-9.898,4.568l-9.899,3.808l-9.898,2.284l-9.137,0.761l-6.853,-0.761"
                                                                                      style="fill:none;fill-rule:nonzero;stroke:#ffe5ad;stroke-width:2.5px;"/><path
        class="contour" id="D1"
        d="M2817.11,694.869l-22.082,0.761l-22.081,-0.761l-53.3,-3.046l-86.041,-8.375l-74.62,-6.092l-38.072,-3.807l-20.558,-3.046l-18.275,-3.807l-17.512,-4.568l-10.66,-4.569l-9.138,-4.569l-6.852,-5.329l-5.33,-6.092l-0.762,-3.046l-0.761,-2.284l0.761,-3.807l2.285,-5.33l4.568,-5.33l13.706,-8.376l15.228,-6.091l18.275,-5.33l20.558,-3.807l22.082,-3.046l47.208,-4.569l48.731,-1.522l21.32,-0l20.559,0.761l67.006,4.569l22.842,0.761l22.843,-0.761l23.605,-2.285l23.604,-3.807l22.843,-6.091l13.705,-4.569l14.468,-5.33l19.035,-7.614l18.274,-8.376l18.275,-9.898l25.888,-15.99l19.036,-12.945l22.081,-17.512l20.559,-17.513l19.797,-17.513l18.274,-17.513l14.467,-14.467l21.32,-22.843l33.503,-39.594l49.493,-61.676l15.99,-18.274l12.944,-12.944l13.706,-10.66l12.944,-7.615l12.945,-4.568l9.137,-0.762l8.375,2.285l5.33,3.807l3.046,5.33l0.762,6.091l-1.523,6.853l-1.523,6.091l-7.614,14.468l-10.66,15.228l-18.275,20.559l-68.528,72.335l-35.026,38.833l-35.787,41.879l-48.731,63.198l-15.99,20.559l-15.99,18.274l-16.752,16.751l-17.513,15.99l-18.274,15.229l-15.228,10.66l-15.99,10.66l-16.752,9.137l-12.944,6.091l-12.944,5.33l-18.275,6.092l-19.035,4.568l-15.99,3.046l-15.99,1.523"
        style="fill:none;fill-rule:nonzero;stroke:#ffe5ad;stroke-width:2.5px;"/><path class="contour" id="C1"
                                                                                      d="M1162.53,1610.87l-10.66,-0.762l-10.66,-2.284l-19.797,-6.091l-9.899,-4.569l-18.274,-9.899l-9.137,-5.33l-16.751,-13.705l-7.615,-6.853l-7.614,-8.376l-6.091,-8.376l-4.569,-9.137l-2.284,-8.375l-1.523,-8.376l0.761,-7.614l3.046,-8.376l3.807,-6.853l5.33,-5.33l6.092,-5.33l7.614,-5.33l8.376,-4.568l18.274,-8.376l12.183,-4.569l24.365,-7.614l12.945,-3.046l12.944,-2.284l12.944,-1.523l23.604,0l12.183,1.523l11.422,2.284l11.421,3.046l11.422,4.569l9.898,4.568l8.376,6.092l7.614,6.852l4.569,7.615l3.045,6.853l1.523,7.614l0.762,7.614l-0.762,10.66l-3.046,10.66l-3.807,11.422l-10.66,18.274l-6.852,9.137l-6.853,8.376l-7.615,7.614l-9.898,8.376l-10.66,6.852l-11.422,6.092l-8.375,3.046l-9.137,2.284l-9.899,1.523l-10.66,-0"
                                                                                      style="fill:none;fill-rule:nonzero;stroke:#ffe5ad;stroke-width:2.5px;"/></g></svg>