<?xml version="1.0" encoding="UTF-8" standalone="no"?><!DOCTYPE svg PUBLIC "-//W3C//DTD SVG 1.1//EN" "http://www.w3.org/Graphics/SVG/1.1/DTD/svg11.dtd"><svg width="100%" height="100%" viewBox="0 0 3334 1667" version="1.1" xmlns="http://www.w3.org/2000/svg" xmlns:xlink="http://www.w3.org/1999/xlink" xml:space="preserve" xmlns:serif="http://www.serif.com/" style="fill-rule:evenodd;clip-rule:evenodd;stroke-linecap:round;stroke-linejoin:round;stroke-miterlimit:10;"><g><path class="contour" id="D35" d="M0,103.09l26.479,-18.02l28.173,-18.274l18.274,-10.66l19.035,-10.66l19.798,-10.66l19.035,-10.152l20.559,-9.645l33.792,-15.019" style="fill:none;fill-rule:nonzero;stroke:#ffe5ad;stroke-width:1.25px;"/><path class="contour" id="D34" d="M0,200.476l3.636,-2.714l48.731,-39.087l16.752,-12.691l17.512,-12.182l18.275,-11.676l18.274,-11.167l19.036,-11.168l19.797,-10.66l16.751,-8.629l17.513,-8.122l35.787,-16.244l32.742,-13.706l15.99,-6.599l17.512,-6.091l34.265,-11.675l55.787,-18.065" style="fill:none;fill-rule:nonzero;stroke:#ffe5ad;stroke-width:1.25px;"/><path class="contour" id="D33" d="M0,322.014l1.352,-0.901l13.705,-10.66l15.229,-14.213l14.467,-15.229l42.64,-46.193l15.228,-15.229l15.99,-13.706l15.99,-13.198l17.513,-12.183l18.275,-11.675l19.035,-11.675l19.036,-10.66l31.218,-16.244l21.32,-9.645l22.082,-9.644l22.081,-9.137l44.925,-18.275l45.685,-17.259l91.372,-33.503l22.081,-8.629l21.32,-8.63l21.32,-9.644l12.073,-5.882" style="fill:none;fill-rule:nonzero;stroke:#ffe5ad;stroke-width:1.25px;"/><path class="contour" id="D32" d="M0,439.001l4.397,-3.166l14.467,-10.66l13.706,-10.66l12.183,-10.66l13.706,-13.198l12.944,-13.706l12.183,-13.706l40.355,-49.239l13.706,-15.736l14.467,-15.736l10.66,-10.153l11.422,-10.152l16.751,-13.198l17.513,-12.183l18.274,-12.183l39.594,-22.335l20.559,-10.66l18.274,-9.137l38.833,-17.259l70.051,-29.95l47.97,-19.797l91.372,-36.041l22.081,-9.137l21.32,-9.644l26.65,-12.691l20.559,-11.168l24.365,-15.228l31.017,-21.618" style="fill:none;fill-rule:nonzero;stroke:#ffe5ad;stroke-width:1.25px;"/><path class="contour" id="C32" d="M3333.33,1619.33l-3.019,2.301l-30.457,24.365l-12.183,8.122l-21.666,12.548" style="fill:none;fill-rule:nonzero;stroke:#ffe5ad;stroke-width:1.25px;"/><path class="contour" id="D31" d="M0,555.142l25.717,-22.86l42.64,-39.594l27.412,-26.904l12.944,-13.706l25.888,-29.949l38.833,-45.686l25.889,-29.442l28.934,-28.426l15.99,-13.706l14.467,-10.66l15.229,-10.66l20.558,-12.69l21.32,-12.183l22.082,-11.675l22.843,-11.168l22.842,-10.66l23.605,-10.152l90.61,-38.072l148.478,-63.452l23.604,-10.66l22.082,-10.66l12.944,-7.107l25.888,-16.244l15.99,-11.167l28.935,-23.351l28.934,-24.365l11.536,-9.943" style="fill:none;fill-rule:nonzero;stroke:#ffe5ad;stroke-width:1.25px;"/><path class="contour" id="C31" d="M3333.33,1548.71l-19.77,8.455l-12.183,5.076l-14.467,4.061l-38.833,10.153l-13.706,4.06l-11.421,5.077l-18.275,9.137l-5.33,3.045l-6.091,4.569l-16.751,13.706l-6.092,5.076l-49.493,33.503l-16.67,12.04" style="fill:none;fill-rule:nonzero;stroke:#ffe5ad;stroke-width:1.25px;"/><path class="contour" id="D30" d="M0,663.835l6.682,-4.648l15.228,-12.691l14.467,-12.69l13.706,-13.706l55.584,-57.361l61.676,-62.437l26.65,-27.919l40.355,-43.655l27.412,-28.427l14.467,-14.213l12.944,-12.183l13.706,-11.675l14.467,-11.168l28.934,-20.304l15.229,-9.645l17.513,-10.153l18.274,-10.152l21.32,-10.66l21.32,-10.152l44.163,-20.305l110.407,-47.209l39.594,-18.274l104.316,-48.731l22.081,-11.168l19.036,-11.167l17.513,-12.183l27.411,-20.305l98.986,-82.742l10.031,-7.912" style="fill:none;fill-rule:nonzero;stroke:#ffe5ad;stroke-width:1.25px;"/><path class="contour" id="C30" d="M3333.33,1510.38l-28.907,11.763l-19.798,7.615l-25.127,7.614l-52.538,14.213l-35.787,9.645l-47.97,16.751l-33.503,14.214l-14.467,6.599l-12.183,5.584l-31.219,16.243l-20.558,9.137l-27.412,11.168l-65.878,25.746" style="fill:none;fill-rule:nonzero;stroke:#ffe5ad;stroke-width:1.25px;"/><path class="contour" id="D29" d="M0,759.579l14.296,-8.006l23.604,-15.228l15.229,-10.66l14.467,-10.66l8.375,-7.614l9.138,-7.615l14.467,-13.198l26.65,-27.919l52.538,-55.838l53.3,-54.823l58.63,-60.914l29.696,-30.457l30.457,-29.442l16.751,-14.213l16.752,-13.706l18.274,-12.69l15.99,-10.66l15.99,-9.645l17.513,-9.645l16.751,-8.629l17.513,-8.63l35.026,-16.244l123.351,-55.33l38.071,-18.274l34.265,-16.752l104.315,-53.3l19.797,-10.66l17.513,-10.66l14.467,-10.152l13.706,-10.66l67.006,-55.838l76.904,-62.437l24.531,-19.08" style="fill:none;fill-rule:nonzero;stroke:#ffe5ad;stroke-width:1.25px;"/><path class="contour" id="C29" d="M3333.33,1442.13l-67.74,25.695l-35.026,14.213l-67.767,28.935l-36.549,14.213l-36.548,13.706l-37.31,13.705l-36.549,12.183l-36.548,11.168l-111.93,31.98l-51.016,15.228l-21.32,7.107l-19.797,7.614l-11.421,4.569l-4.569,2.538l-1.523,1.523l-9.137,7.614l-13.175,12.548" style="fill:none;fill-rule:nonzero;stroke:#ffe5ad;stroke-width:1.25px;"/><path class="contour" id="D28" d="M0,842.099l33.332,-17.429l35.787,-20.304l16.751,-10.153l16.751,-10.66l15.99,-11.167l15.229,-11.676l15.229,-11.167l14.467,-12.183l24.365,-22.335l14.468,-15.229l46.447,-50.254l52.538,-54.823l57.869,-61.422l28.934,-30.457l15.228,-14.721l31.98,-29.442l14.468,-11.675l15.228,-11.167l15.229,-10.66l15.228,-9.138l15.229,-8.629l15.99,-8.63l15.228,-7.614l38.072,-17.766l110.407,-49.239l41.117,-19.29l39.594,-19.797l58.63,-29.95l57.869,-28.934l19.035,-9.645l19.036,-12.182l15.99,-10.66l12.944,-10.153l12.183,-10.66l49.493,-43.147l68.528,-58.377l27.412,-22.842l47.208,-37.056l15.288,-11.466" style="fill:none;fill-rule:nonzero;stroke:#ffe5ad;stroke-width:1.25px;"/><path class="contour" id="C28" d="M3333.33,1369.25l-104.289,40.2l-35.026,14.213l-16.751,7.107l-105.838,47.716l-31.98,13.706l-16.752,6.091l-31.218,11.675l-29.696,9.645l-70.813,21.828l-35.025,10.66l-44.163,15.736l-34.265,11.675l-73.097,26.904l-38.071,15.229l-16.751,7.106l-12.183,5.584l-8.376,5.584l-12.183,14.721l-8.707,12.04" style="fill:none;fill-rule:nonzero;stroke:#ffe5ad;stroke-width:1.25px;"/><path class="contour" id="D27" d="M0,917.362l35.616,-17.564l44.163,-22.335l22.842,-12.183l38.072,-21.828l31.98,-19.797l23.604,-14.721l13.706,-12.183l36.548,-29.949l8.376,-7.614l11.421,-10.66l10.66,-11.676l9.138,-11.167l13.705,-19.797l8.376,-12.183l14.467,-25.381l8.376,-12.183l9.898,-12.183l8.376,-9.645l13.706,-14.72l11.421,-11.676l7.614,-7.614l13.706,-12.183l61.676,-47.716l9.137,-8.629l9.899,-8.63l13.705,-10.152l16.752,-12.183l15.99,-10.66l17.512,-11.168l19.036,-11.167l25.127,-13.706l25.889,-13.198l24.366,-12.183l23.604,-10.66l63.198,-27.411l22.082,-10.153l37.31,-17.259l30.457,-15.736l72.335,-37.056l72.336,-36.549l20.559,-10.66l12.182,-7.614l11.422,-7.614l11.421,-8.122l9.899,-8.122l15.99,-13.198l60.153,-56.853l25.888,-22.843l27.412,-22.335l70.051,-55.838l31.219,-24.366l17.512,-13.198l14.467,-10.153l15.229,-9.644l5.573,-3.344" style="fill:none;fill-rule:nonzero;stroke:#ffe5ad;stroke-width:1.25px;"/><path class="contour" id="C27" d="M3333.33,1301.28l-52.512,24.414l-54.823,22.843l-25.888,11.675l-39.594,18.782l-34.265,17.767l-7.614,4.06l-18.274,6.092l-36.549,14.721l-25.888,9.137l-6.092,2.538l-6.852,3.553l-19.798,11.168l-25.888,13.198l-22.843,10.152l-34.264,14.214l-12.945,6.091l-48.731,26.396l-27.411,14.721l-32.742,15.736l-14.467,6.6l-12.944,5.076l-19.036,6.599l-16.751,5.076l-38.072,9.137l-22.081,4.569l-12.183,1.523l-30.457,3.045l-23.604,2.538l-12.183,2.538l-10.66,2.538l-5.33,1.523l-10.66,4.061l-15.99,6.599l-14.467,7.615l-14.467,8.122l-7.615,5.583l-6.852,6.599l-6.092,6.599l-8.376,10.66l-7.283,11.533" style="fill:none;fill-rule:nonzero;stroke:#ffe5ad;stroke-width:1.25px;"/><path class="contour" id="D26" d="M0,991.399l49.322,-24.088l22.842,-10.66l56.346,-25.381l10.66,-4.568l3.807,-2.538l18.274,-14.214l3.046,-4.061l15.229,-23.35l10.66,-13.198l16.751,-19.797l11.422,-12.183l11.421,-10.66l12.183,-10.152l18.274,-12.691l13.706,-9.137l49.493,-30.457l8.375,-6.599l12.183,-11.168l11.422,-11.167l12.944,-14.214l18.274,-22.843l2.284,-2.538l6.853,-7.106l9.137,-9.137l15.229,-13.199l18.274,-15.736l134.773,-112.691l18.274,-14.213l15.99,-11.168l16.752,-10.66l16.751,-10.152l17.513,-9.645l13.705,-6.599l27.412,-12.183l17.513,-7.107l59.391,-21.827l35.787,-14.214l52.539,-21.32l51.015,-21.32l37.31,-17.259l55.585,-27.411l18.274,-9.645l17.513,-10.152l16.751,-10.152l14.467,-9.645l14.467,-10.66l15.99,-12.691l15.229,-13.705l57.868,-53.3l27.412,-24.366l45.686,-38.579l32.741,-26.396l33.503,-25.381l17.513,-12.691l17.512,-11.675l19.798,-12.69l20.558,-11.675l23.604,-11.676l28.173,-11.675l15.99,-5.584l17.513,-5.076l19.001,-5.374" style="fill:none;fill-rule:nonzero;stroke:#ffe5ad;stroke-width:1.25px;"/><path class="contour" id="C26" d="M3333.33,1250.22l-13.679,7.959l-94.417,50.762l-34.264,19.797l-41.879,25.381l-12.944,7.614l-22.843,12.183l-26.65,13.705l-77.665,35.026l-51.778,24.366l-70.812,32.995l-28.173,14.721l-33.503,18.274l-15.229,8.122l-15.99,8.122l-16.751,7.107l-14.467,6.091l-14.467,5.076l-30.457,10.153l-15.229,4.061l-15.228,3.553l-15.229,3.046l-17.513,3.045l-110.407,17.767l-56.346,9.645l-12.182,2.03l-6.092,1.523l-28.934,13.198l-16.751,8.63l-9.138,6.091l-8.375,7.614l-9.899,10.153l-10.66,13.705l-3.469,4.934" style="fill:none;fill-rule:nonzero;stroke:#ffe5ad;stroke-width:1.25px;"/><path class="contour" id="D25" d="M0,1068.41l26.479,-12.77l121.067,-60.914l0.761,-1.016l5.33,-4.568l7.614,-8.122l9.899,-13.706l9.899,-14.721l10.66,-18.782l20.558,-41.117l9.899,-16.751l7.614,-10.66l3.807,-4.569l8.376,-8.629l8.375,-8.122l9.899,-7.614l10.66,-7.107l12.183,-7.614l12.944,-7.107l6.853,-3.046l15.229,-6.091l40.355,-14.721l19.036,-7.614l19.036,-8.63l25.888,-13.198l24.366,-15.736l5.33,-4.061l30.457,-30.457l22.843,-27.919l21.32,-24.873l32.741,-34.011l15.229,-14.721l13.705,-12.183l15.99,-12.183l25.889,-17.259l17.513,-12.182l42.64,-31.473l17.513,-12.183l17.512,-11.675l8.376,-5.076l25.889,-13.706l30.457,-14.213l44.163,-18.274l22.081,-8.63l12.183,-3.553l11.421,-4.061l28.935,-7.614l33.502,-7.615l62.437,-14.213l61.676,-18.274l25.127,-8.122l27.412,-11.168l12.944,-5.584l7.614,-4.568l8.376,-4.569l7.614,-5.583l10.66,-8.122l6.853,-5.584l15.229,-15.736l28.934,-31.473l23.604,-25.381l19.797,-17.259l89.087,-76.65l21.32,-17.259l20.559,-15.736l28.934,-20.813l31.219,-21.32l25.127,-15.228l16.751,-9.137l17.513,-7.615l18.274,-6.599l19.036,-5.076l9.898,-2.03l9.138,-1.523l18.274,-2.538l57.868,-4.061l24.366,-2.538l9.899,-1.523l9.898,-2.031l3.807,-1.522l2.285,-1.016l4.568,-5.584l7.614,-7.614l10.66,-10.152l5.449,-4.359" style="fill:none;fill-rule:nonzero;stroke:#ffe5ad;stroke-width:1.25px;"/><path class="contour" id="C25" d="M3333.33,1177.48l-25.1,16.734l-36.549,24.873l-44.924,35.026l-22.082,15.736l-12.182,9.137l-12.183,10.152l-38.833,34.518l-6.091,5.077l-9.899,7.614l-12.944,9.137l-22.843,14.721l-29.696,16.244l-32.741,16.751l-72.336,35.026l-28.173,12.183l-35.787,14.213l-19.035,8.63l-17.513,9.137l-11.422,7.106l-33.503,21.32l-11.421,7.107l-12.183,6.599l-12.944,6.091l-12.944,5.584l-12.183,5.076l-25.889,9.138l-27.411,7.106l-13.706,3.046l-31.98,6.091l-81.473,11.676l-32.741,5.076l-37.31,6.599l-20.559,4.061l-21.32,4.568l-20.558,5.077l-19.797,5.583l-33.503,10.153l-10.66,3.553l-9.899,4.061l-12.944,5.584l-10.66,5.076l-15.99,8.122l-12.183,7.107l-7.614,4.568l-6.853,5.584l-14.796,13.563" style="fill:none;fill-rule:nonzero;stroke:#ffe5ad;stroke-width:1.25px;"/><path class="contour" id="D24" d="M0,1146.91l16.58,-7.009l17.513,-8.122l17.513,-9.645l19.035,-10.66l17.513,-10.66l31.98,-21.32l18.275,-13.706l5.33,-5.076l6.852,-6.091l3.808,-5.077l11.421,-18.274l44.163,-78.173l13.705,-22.843l15.229,-21.32l9.137,-11.675l9.899,-10.66l10.66,-9.645l11.421,-9.137l17.513,-11.168l18.274,-10.152l21.32,-10.152l68.529,-28.427l45.685,-20.305l22.082,-11.167l20.558,-12.183l13.706,-9.137l13.706,-10.153l24.365,-22.335l12.945,-15.228l12.183,-15.229l23.604,-31.472l12.183,-15.737l9.898,-10.66l9.899,-11.167l8.376,-8.122l19.797,-17.767l25.127,-19.797l26.65,-20.305l16.751,-11.167l16.752,-10.66l18.274,-11.168l19.036,-10.66l19.797,-9.644l14.467,-7.107l15.228,-6.599l24.366,-10.153l17.513,-6.599l18.274,-6.599l20.559,-6.599l131.727,-39.086l41.878,-13.198l21.32,-7.107l21.32,-7.614l21.32,-8.122l19.797,-8.122l15.99,-7.614l15.229,-7.615l14.467,-8.122l15.99,-10.152l16.751,-11.168l73.859,-55.33l13.706,-9.645l21.32,-14.213l20.558,-12.691l18.274,-10.66l25.889,-14.72l11.421,-5.584l42.64,-35.026l20.559,-15.228l31.98,-20.813l22.081,-13.706l11.422,-6.599l16.751,-8.121l11.421,-4.569l11.422,-4.061l6.091,-1.523l13.706,-3.046l20.559,-3.045l38.832,-3.046l19.036,-2.538l9.137,-1.523l15.99,-3.553l10.66,-3.046l4.569,-2.03l8.375,-10.153l9.138,-9.645l11.421,-11.675l13.706,-12.183l15.99,-13.198l15.99,-12.183l12.275,-8.927" style="fill:none;fill-rule:nonzero;stroke:#ffe5ad;stroke-width:1.25px;"/><path class="contour" id="C24" d="M3333.33,1100.3l-5.303,4.066l-8.376,5.076l-13.706,7.615l-34.264,21.32l-33.503,20.304l-18.274,12.691l-61.676,42.132l-13.705,9.645l-8.376,7.107l-7.614,8.122l-11.422,14.213l-32.741,44.67l-9.137,13.706l-12.945,22.335l-7.614,10.66l-8.376,9.137l-6.091,6.092l-5.33,4.568l-4.568,2.538l-6.092,3.046l-23.604,14.213l-22.843,13.199l-27.411,17.259l-12.945,6.599l-13.705,6.091l-9.138,3.046l-14.467,3.045l-9.898,1.016l-22.082,1.015l-10.66,1.015l-7.614,2.031l-7.614,3.045l-6.853,4.569l-7.614,6.599l-7.615,8.122l-12.944,15.228l-4.568,5.077l-15.229,12.182l-25.889,11.676l-23.604,9.644l-24.365,8.63l-12.183,3.553l-22.082,6.092l-9.898,2.03l-22.082,4.061l-79.188,11.675l-22.082,3.046l-44.924,5.584l-21.32,3.046l-30.457,6.091l-21.32,4.569l-22.843,6.091l-22.081,6.599l-55.584,16.751l-25.128,7.615l-42.639,14.213l-22.843,8.63l-18.275,7.614l-2.284,-0l-3.807,2.03l-7.614,4.569l-9.899,7.107l-11.421,9.137l-4.6,3.918" style="fill:none;fill-rule:nonzero;stroke:#ffe5ad;stroke-width:1.25px;"/><path class="contour" id="D23" d="M0,1222.09l57.697,-20.263l19.036,-7.614l4.568,-2.031l0.762,-1.015l11.421,-8.122l35.026,-26.904l7.614,-5.076l22.843,-12.69l4.569,-4.569l12.944,-14.213l1.523,-3.046l0.761,-5.076l3.807,-13.706l3.046,-12.69l10.66,-32.488l8.376,-21.32l9.898,-22.335l10.66,-22.335l7.615,-16.244l8.375,-15.229l12.183,-19.797l12.944,-15.736l6.853,-8.122l7.615,-7.614l11.421,-9.645l13.706,-9.137l15.228,-9.137l12.183,-6.092l12.183,-5.583l17.513,-7.615l87.564,-34.01l20.559,-8.122l19.797,-8.629l19.035,-9.645l16.752,-8.63l15.228,-9.644l12.945,-10.153l11.421,-10.66l9.137,-8.629l8.376,-9.645l11.421,-14.721l33.503,-46.193l11.422,-14.721l11.421,-15.229l22.843,-24.366l12.183,-11.675l24.365,-20.304l12.945,-9.138l17.512,-11.675l18.275,-10.66l19.797,-10.152l19.797,-9.645l41.117,-18.274l22.843,-10.66l43.401,-18.274l60.153,-24.366l38.071,-14.721l42.64,-15.229l87.565,-30.457l22.081,-8.122l41.117,-16.243l19.797,-9.138l15.229,-7.614l30.457,-17.259l16.751,-11.675l35.026,-24.366l23.604,-14.721l27.412,-15.736l29.695,-15.736l29.696,-14.721l25.889,-12.183l44.162,-19.797l31.219,-12.69l70.051,-35.026l12.945,-4.569l19.035,-6.599l12.183,-4.061l19.797,-5.076l6.853,-1.015l11.422,-0.508l48.731,-2.538l13.706,-2.03l12.182,-4.061l10.66,-4.061l9.138,-5.076l4.568,-3.554l4.569,-3.045l8.375,-12.183l9.899,-10.66l12.183,-13.706l21.32,-21.828l15.99,-14.721l17.513,-15.228l23.604,-19.797l24.366,-18.274l1.083,-0.806" style="fill:none;fill-rule:nonzero;stroke:#ffe5ad;stroke-width:1.25px;"/><path class="contour" id="C23" d="M3333.33,798.184l-16.725,18.365l-9.137,10.152l-12.183,15.228l-25.127,33.503l-22.081,31.98l-30.457,49.239l-11.422,16.244l-18.274,24.366l-10.66,15.736l-9.137,14.721l-7.614,14.721l-25.127,55.33l-8.376,17.259l-13.706,25.381l-15.99,24.366l-12.183,15.228l-28.934,34.011l-52.538,63.96l-11.422,18.274l-10.66,19.797l-6.091,12.691l-9.899,24.365l-5.33,9.137l-6.091,9.645l-8.376,9.137l-8.376,8.63l-10.66,7.107l-5.33,3.045l-6.853,2.538l-6.852,1.016l-6.092,1.015l-6.853,0.507l-28.172,0l-6.853,0.508l-6.092,0.508l-6.091,1.015l-6.853,1.523l-12.183,4.568l-12.183,6.092l-11.421,7.614l-12.183,10.152l-22.843,23.351l-6.091,5.076l-0.762,0.508l-11.421,7.106l-6.853,4.061l-55.584,25.381l-4.569,1.523l-14.467,3.553l-33.503,6.092l-26.65,4.061l-53.3,7.614l-37.31,5.584l-36.548,6.091l-29.696,6.092l-29.695,6.599l-19.798,5.076l-18.274,4.568l-33.503,9.645l-16.751,4.569l-64.721,14.721l-23.605,6.091l-57.868,16.752l-3.807,0.507l-9.138,2.538l-13.705,4.569l-15.229,6.091l-18.274,7.615l-18.274,9.137l-14.467,8.629l-14.468,9.645l-8.878,6.964" style="fill:none;fill-rule:nonzero;stroke:#ffe5ad;stroke-width:1.25px;"/><path class="contour" id="D22" d="M0,1288.44l15.819,-8.437l18.274,-10.152l3.807,-3.046l66.244,-44.67l33.503,-24.366l21.32,-16.244l19.036,-16.751l11.421,-11.168l9.137,-11.167l8.376,-12.691l6.092,-11.675l3.807,-10.66l3.045,-10.66l12.183,-46.701l6.092,-17.767l5.33,-14.213l6.091,-13.706l7.614,-14.213l13.706,-23.35l8.376,-11.168l11.421,-13.198l12.183,-12.691l14.467,-12.182l9.899,-7.107l15.99,-10.152l17.513,-9.138l36.548,-16.243l58.63,-22.843l19.036,-8.122l18.274,-8.122l18.274,-8.629l19.797,-10.66l19.036,-11.676l15.99,-11.675l14.467,-12.183l10.66,-10.152l9.137,-10.66l9.899,-11.168l9.137,-11.675l10.66,-15.736l21.32,-31.98l11.421,-16.752l25.889,-32.487l14.467,-15.229l11.421,-11.167l12.945,-10.66l12.944,-9.645l14.467,-9.645l15.99,-8.629l15.99,-9.137l22.082,-10.66l22.842,-11.168l67.006,-30.965l20.559,-9.137l42.639,-17.767l42.64,-16.751l25.128,-9.645l50.254,-17.766l110.407,-37.564l19.036,-7.107l22.842,-9.137l22.082,-9.645l17.513,-9.137l18.274,-9.645l62.437,-37.563l19.036,-10.153l19.797,-10.152l20.558,-9.645l19.797,-9.645l21.32,-9.137l21.32,-8.629l19.798,-8.122l20.558,-7.614l22.082,-7.615l25.127,-8.122l27.411,-7.614l27.411,-7.107l27.412,-6.599l33.503,-6.599l31.98,-5.076l19.035,-2.03l17.513,-1.015l18.274,-0.508l12.945,-0l6.853,1.015l15.99,-2.538l6.852,-1.523l9.899,-2.538l7.614,-3.553l11.422,-6.599l8.375,-6.599l8.376,-8.63l4.569,-6.599l0.761,-2.03l3.807,-6.599l6.092,-10.153l14.467,-20.305l12.183,-14.72l13.705,-15.737l15.229,-16.751l15.99,-16.244l18.274,-17.259l18.274,-16.244l17.513,-14.721l11.846,-8.927" style="fill:none;fill-rule:nonzero;stroke:#ffe5ad;stroke-width:1.25px;"/><path class="contour" id="C22" d="M3333.33,706.116l-71.547,65.254l-51.778,49.747l-18.274,17.767l-14.467,12.69l-20.558,19.797l-11.422,11.676l-23.604,25.38l-30.457,36.041l-32.742,40.61l-16.751,20.305l-17.513,19.289l-14.467,15.229l-15.229,13.198l-36.548,28.934l-18.274,14.721l-7.615,7.614l-7.614,8.122l-13.706,18.274l-6.091,10.153l-5.33,10.152l-9.899,20.305l-8.375,21.32l-4.569,12.183l-22.843,71.066l-3.807,11.168l-4.568,9.137l-4.569,9.645l-6.853,10.152l-9.898,14.721l-11.422,14.213l-12.183,14.214l-11.421,13.198l-10.66,10.66l-9.899,8.629l-14.467,12.691l-11.421,10.66l-4.569,3.046l-2.284,1.015l-6.853,3.553l-14.467,6.599l-19.797,8.63l-25.127,9.644l-21.32,7.615l-22.082,7.614l-29.695,9.645l-30.457,9.137l-29.696,8.122l-30.457,8.122l-27.412,7.106l-50.254,11.168l-51.016,10.66l-98.985,19.797l-33.503,7.107l-45.686,12.183l-22.843,6.599l-22.081,6.599l-22.081,7.614l-34.265,12.183l-22.842,9.644l-22.082,9.645l-20.558,10.153l-20.559,11.167l-18.274,11.675l-16.752,12.691l-3.181,2.903" style="fill:none;fill-rule:nonzero;stroke:#ffe5ad;stroke-width:1.25px;"/><path class="contour" id="D21" d="M0,1360.8l13.534,-4.657l6.853,-4.569l10.66,-13.198l20.559,-23.35l21.32,-22.335l19.797,-18.275l21.32,-17.766l17.513,-13.706l17.513,-12.69l16.751,-11.676l36.549,-24.365l9.898,-7.615l9.137,-7.614l13.706,-14.213l8.376,-11.168l6.852,-11.167l9.138,-21.32l3.045,-10.66l2.285,-11.676l7.614,-39.086l5.33,-19.797l3.807,-10.153l8.376,-17.259l9.898,-16.751l12.183,-15.736l13.706,-15.736l13.706,-13.706l15.99,-12.691l17.512,-12.69l19.797,-11.675l18.275,-9.645l19.035,-9.137l51.016,-22.335l15.99,-7.107l14.467,-7.107l20.559,-11.167l14.467,-9.137l18.274,-12.183l15.99,-13.198l15.99,-13.706l14.467,-14.213l18.275,-21.32l16.751,-23.351l37.31,-59.391l18.274,-25.381l11.422,-14.213l12.182,-14.214l11.422,-10.66l12.183,-10.66l17.513,-12.183l18.274,-11.167l19.036,-10.66l20.558,-10.153l41.879,-19.797l43.401,-19.797l22.081,-9.645l44.925,-18.274l45.685,-17.259l22.082,-8.122l44.924,-15.228l44.924,-14.721l99.747,-28.935l29.696,-10.152l22.843,-8.122l22.843,-9.137l22.081,-9.137l22.081,-9.645l21.32,-10.152l56.346,-27.919l19.797,-9.645l20.559,-9.137l22.081,-8.63l18.274,-6.599l19.036,-6.599l24.366,-7.614l25.127,-7.107l26.65,-7.106l29.696,-7.615l24.365,-5.583l38.072,-7.615l19.797,-3.553l19.035,-2.538l24.366,-2.538l40.356,-2.538l48.731,-2.031l27.412,-5.076l3.807,-1.015l3.807,-1.523l4.568,-2.538l6.853,-4.569l11.422,-10.66l2.284,-2.03l4.569,-6.599l19.797,-39.087l16.751,-29.442l8.376,-14.213l13.706,-20.305l15.228,-19.289l15.229,-18.275l15.228,-14.72l17.513,-14.721l17.513,-13.198l17.198,-11.466" style="fill:none;fill-rule:nonzero;stroke:#ffe5ad;stroke-width:1.25px;"/><path class="contour" id="C21" d="M3333.33,657.423l-13.679,6.84l-14.467,8.122l-10.66,5.584l-34.264,15.228l-12.945,6.599l-16.751,9.137l-12.183,7.615l-7.614,5.583l-10.66,9.138l-51.777,46.701l-14.467,11.675l-15.229,11.167l-19.036,13.198l-58.63,35.534l-5.33,3.553l-2.284,2.031l-18.274,21.32l-18.274,25.38l-19.036,24.874l-21.32,25.888l-11.421,11.676l-8.376,8.629l-16.752,14.213l-10.66,8.63l-11.421,8.629l-22.843,14.721l-32.741,20.305l-10.66,7.107l-9.899,7.106l-10.66,8.63l-9.898,9.645l-8.376,9.644l-6.853,8.63l-6.091,8.629l-4.569,9.138l-5.33,11.167l-4.568,11.168l-3.808,11.167l-2.284,11.168l-4.568,21.828l-7.615,55.838l-3.807,22.842l-5.33,23.351l-3.807,11.168l-3.046,7.614l-3.807,8.122l-9.137,14.213l-9.137,12.183l-9.899,11.675l-9.898,11.168l-10.66,10.66l-9.899,9.137l-16.751,13.198l-6.853,5.076l-62.437,26.396l-41.879,18.782l-21.32,8.63l-22.081,8.629l-22.843,8.122l-24.366,8.122l-24.365,7.614l-15.99,4.569l-14.467,3.553l-15.99,3.554l-8.376,1.522l-19.036,2.538l-55.584,6.599l-22.843,3.554l-10.66,2.538l-21.32,4.568l-16.751,4.569l-12.183,4.061l-12.183,5.584l-48.731,22.843l-26.65,11.675l-112.692,48.224l-70.812,28.934l-18.275,5.584l-17.512,5.583l-18.275,7.615l-15.228,8.122l-5.877,3.918" style="fill:none;fill-rule:nonzero;stroke:#ffe5ad;stroke-width:1.25px;"/><path class="contour" id="D20" d="M0,1410.51l12.012,-8.675l18.274,-14.214l20.558,-17.259l19.797,-18.274l16.752,-17.767l8.376,-10.66l22.842,-29.949l9.899,-10.66l11.421,-10.66l15.99,-13.198l17.513,-11.675l41.879,-24.874l28.934,-19.289l25.889,-21.32l11.421,-11.168l9.899,-11.167l8.375,-11.168l7.615,-11.675l6.091,-10.153l4.569,-10.66l3.045,-9.644l2.285,-9.137l8.375,-37.057l3.046,-8.629l5.33,-17.259l7.614,-15.229l9.137,-15.228l8.376,-11.675l9.899,-11.676l9.898,-10.152l10.66,-9.137l15.229,-12.183l17.513,-10.66l18.274,-10.66l19.036,-10.152l47.208,-22.843l19.797,-10.66l18.274,-11.675l12.945,-9.138l12.183,-9.644l12.182,-10.66l11.422,-11.168l14.467,-15.228l14.467,-15.737l12.944,-15.736l8.376,-10.66l6.853,-11.167l10.66,-16.752l38.071,-67.005l10.66,-16.752l11.422,-16.244l8.375,-10.152l8.376,-9.645l19.797,-17.259l11.422,-8.629l11.421,-8.122l19.036,-11.168l19.797,-10.66l18.274,-9.645l38.833,-18.274l39.594,-17.259l40.356,-15.736l45.686,-16.751l25.127,-8.63l49.493,-16.244l24.365,-7.614l25.127,-7.107l35.787,-9.137l18.275,-4.568l73.097,-16.244l53.3,-12.183l48.731,-11.675l31.98,-8.63l15.229,-4.568l28.934,-10.153l86.041,-31.98l36.549,-12.69l41.878,-14.214l24.366,-8.121l50.254,-15.737l56.346,-16.243l29.696,-8.122l31.218,-7.615l23.604,-5.076l23.605,-4.568l72.335,-13.706l15.229,-3.553l6.853,-2.031l0.761,-0.507l3.807,-3.046l3.046,-5.076l6.853,-10.153l36.548,-65.99l15.99,-27.919l7.615,-12.183l9.898,-14.721l10.66,-13.198l15.229,-17.259l15.228,-14.721l14.467,-12.183l15.99,-12.183l16.752,-11.167l18.274,-11.168l2.317,-1.313" style="fill:none;fill-rule:nonzero;stroke:#ffe5ad;stroke-width:1.25px;"/><path class="contour" id="C20" d="M3333.33,625.716l-0.735,0.476l-21.32,12.69l-21.32,11.675l-22.081,11.675l-18.274,8.63l-12.183,5.076l-8.376,3.046l-3.046,0.508l-12.944,5.076l-9.898,5.076l-48.732,29.949l-12.183,7.107l-12.944,6.599l-32.741,14.721l-25.127,12.183l-23.605,16.244l-29.695,16.751l-9.137,5.076l-8.376,4.061l-22.843,8.63l-8.376,3.553l-31.98,16.751l-5.33,3.554l-3.807,3.046l-4.568,5.583l-4.569,7.615l-4.569,7.106l-5.33,7.615l-7.614,10.152l-9.137,11.168l-9.137,10.66l-9.899,10.659l-22.842,21.32l-14.468,10.66l-14.467,9.645l-12.944,7.614l-14.467,7.107l-35.787,17.259l-10.66,5.076l-13.706,8.122l-12.183,8.122l-9.137,6.599l-9.137,8.63l-8.376,9.137l-9.137,10.66l-8.376,11.167l-7.614,11.676l-21.32,35.025l-31.218,56.346l-10.66,20.812l-9.138,21.32l-3.807,12.183l-3.045,12.691l-3.046,25.381l-2.284,38.071l-1.523,12.69l-3.807,14.214l-5.33,11.675l-6.853,11.675l-8.376,11.168l-9.137,8.629l-9.137,8.122l-9.899,7.615l-10.66,7.106l-10.66,6.092l-7.614,4.061l-6.853,2.538l-26.65,18.782l-13.706,8.629l-18.274,8.63l-9.137,4.061l-9.137,3.553l-24.366,7.614l-30.457,7.614l-20.558,4.569l-42.64,6.599l-11.422,2.03l-20.558,4.569l-22.082,7.107l-43.401,17.259l-33.503,14.213l-16.751,8.63l-39.595,20.304l-41.878,20.813l-68.529,32.995l-34.264,15.736l-25.888,10.152l-25.889,9.645l-81.473,26.396l-19.035,6.092l-15.229,6.091l-12.641,5.949" style="fill:none;fill-rule:nonzero;stroke:#ffe5ad;stroke-width:1.25px;"/><path class="contour" id="D19" d="M0,1461.02l88.154,-74.413l15.229,-13.706l14.467,-14.213l10.66,-11.675l36.549,-39.594l9.137,-9.645l9.898,-8.63l9.137,-7.614l9.899,-7.107l16.751,-11.167l98.986,-61.422l13.706,-8.629l12.183,-8.63l13.705,-11.675l8.376,-8.63l8.376,-10.66l6.091,-11.167l3.046,-8.63l3.045,-13.706l0.762,-12.182l0.761,-38.072l1.523,-14.213l2.284,-12.691l3.808,-12.69l4.568,-9.645l5.33,-10.152l9.899,-12.183l11.421,-12.183l11.422,-10.152l12.944,-9.645l13.706,-9.645l12.182,-7.614l12.183,-7.107l37.31,-20.812l18.274,-10.152l19.036,-12.691l16.752,-13.198l13.705,-12.183l12.945,-12.69l12.182,-13.198l11.422,-13.706l12.183,-14.721l11.421,-14.721l10.66,-15.228l9.137,-13.706l8.376,-13.706l8.376,-15.228l27.411,-55.331l7.614,-14.213l7.615,-13.706l9.137,-13.706l8.375,-11.167l9.138,-10.153l13.705,-12.69l12.183,-10.152l13.706,-9.645l20.558,-11.675l21.32,-11.676l17.513,-8.629l54.823,-24.366l22.081,-8.629l22.843,-8.63l22.843,-8.122l41.879,-13.705l43.401,-12.183l33.503,-9.645l24.365,-6.091l24.366,-5.584l24.366,-5.076l24.366,-4.569l23.604,-4.061l137.057,-20.812l42.64,-7.615l19.035,-3.553l48.732,-11.168l24.366,-6.599l51.777,-15.228l25.127,-8.63l22.843,-7.614l82.234,-29.442l102.793,-34.518l38.071,-11.675l63.198,-17.259l35.026,-10.66l17.513,-6.599l16.751,-7.107l13.706,-8.629l4.569,-3.046l12.183,-11.168l32.741,-43.655l39.594,-56.853l9.899,-13.198l11.421,-14.721l25.889,-28.427l13.705,-13.705l15.229,-13.199l15.99,-12.182l16.751,-11.676l15.229,-9.137l15.228,-8.629l10.899,-5.882" style="fill:none;fill-rule:nonzero;stroke:#ffe5ad;stroke-width:1.25px;"/><path class="contour" id="C19" d="M3333.33,606.412l-17.486,11.658l-16.751,9.644l-17.513,9.645l-19.036,9.137l-187.311,86.803l-101.27,50.254l-21.32,10.153l-15.99,7.106l-8.376,3.554l-3.807,1.015l-18.274,6.599l-50.254,20.305l-7.615,3.553l-8.375,5.584l-15.229,11.675l-19.036,13.706l-25.888,16.244l-13.706,8.121l-15.229,7.615l-19.035,9.644l-19.036,8.122l-41.878,17.259l-11.422,5.584l-21.32,11.168l-12.183,8.122l-11.421,8.122l-11.422,9.137l-10.66,8.629l-9.898,9.645l-9.137,9.645l-9.899,10.66l-18.274,22.335l-25.127,32.995l-13.706,20.813l-12.944,21.32l-12.183,22.842l-27.411,58.377l-27.412,53.299l-22.081,48.732l-14.467,28.934l-14.467,26.904l-7.615,11.167l-10.66,15.737l-5.33,5.076l-2.284,2.03l-28.173,10.66l-59.391,19.797l-20.559,8.122l-21.32,8.63l-40.355,19.797l-39.595,19.797l-31.98,18.274l-44.924,27.412l-52.538,34.01l-28.935,18.782l-19.035,10.66l-21.32,10.66l-11.422,5.076l-11.421,4.569l-16.752,6.091l-23.604,7.107l-25.127,6.091l-80.711,19.797l-13.706,3.554l-24.366,7.106l-12.944,4.569l-12.183,5.076l-12.183,4.569l-2.897,1.38" style="fill:none;fill-rule:nonzero;stroke:#ffe5ad;stroke-width:1.25px;"/><path class="contour" id="D18" d="M0,1507.23l17.342,-14.534l43.401,-39.086l28.934,-24.366l107.362,-86.295l31.218,-24.366l22.843,-15.736l17.513,-11.167l30.457,-17.26l50.254,-26.396l18.274,-10.66l15.99,-10.66l13.706,-11.675l12.944,-13.706l9.899,-14.213l5.33,-10.66l3.807,-11.168l2.284,-9.644l0.762,-9.645l0.761,-15.229l-0.761,-30.457l-0,-21.827l2.284,-13.706l3.807,-13.198l3.807,-10.66l5.33,-10.152l9.137,-13.706l11.422,-13.706l12.944,-12.69l14.467,-12.183l12.945,-9.645l13.705,-9.137l28.934,-18.782l16.752,-11.168l15.99,-12.182l11.421,-9.138l10.66,-9.644l18.275,-18.275l12.944,-14.72l11.421,-15.229l12.183,-15.736l22.843,-34.011l10.66,-16.751l9.898,-17.259l8.376,-14.721l6.853,-15.229l6.853,-14.721l13.706,-34.01l6.091,-13.198l6.853,-13.198l7.614,-12.691l6.853,-9.644l8.376,-9.645l9.137,-9.137l11.421,-10.153l12.945,-9.137l12.944,-8.629l14.467,-8.122l15.228,-7.614l21.32,-10.153l22.843,-9.645l22.843,-9.137l22.843,-8.629l22.843,-7.614l23.604,-7.107l51.777,-13.198l26.65,-5.584l26.65,-6.091l24.366,-4.569l44.924,-8.122l41.117,-6.091l40.356,-5.077l124.113,-15.228l48.731,-7.107l26.65,-4.061l51.777,-9.644l51.777,-11.168l50.254,-12.183l25.127,-6.599l32.742,-9.137l160.661,-50.762l41.117,-13.706l19.797,-7.106l54.062,-20.813l41.117,-13.198l15.99,-5.584l17.513,-7.614l5.33,-3.553l11.421,-8.122l7.614,-7.614l6.092,-8.122l7.614,-13.198l6.091,-14.214l12.945,-31.472l7.614,-16.751l8.376,-16.752l18.274,-28.426l12.944,-16.752l13.706,-16.244l15.99,-15.736l16.751,-14.721l17.513,-14.721l14.467,-9.644l14.467,-9.138l19.798,-10.66l20.558,-9.644l18.274,-7.615l18.275,-7.106l5.462,-1.821" style="fill:none;fill-rule:nonzero;stroke:#ffe5ad;stroke-width:1.25px;"/><path class="contour" id="C18" d="M3333.33,580.43l-1.496,1.091l-15.99,11.675l-36.549,23.351l-16.751,9.137l-17.513,8.629l-15.228,7.615l-98.986,46.193l-55.584,25.381l-20.559,10.152l-62.437,31.98l-21.32,9.645l-23.604,10.152l-24.366,10.153l-22.081,8.629l-66.244,22.843l-41.118,12.691l-15.99,4.568l-17.512,4.569l-9.899,1.523l-30.457,2.538l-9.137,1.015l-6.853,2.03l-25.889,9.138l-40.355,11.167l-21.32,5.584l-12.183,3.553l-12.183,5.076l-8.376,4.061l-12.182,8.63l-44.163,34.01l-25.127,17.259l-3.046,2.539l-9.899,8.629l-22.081,21.828l-18.274,19.797l-15.99,18.274l-18.275,23.35l-60.152,76.651l-12.183,15.228l-28.935,32.996l-9.898,12.69l-8.376,11.675l-5.33,8.122l-9.137,16.244l-7.614,15.229l-6.092,15.228l-8.375,22.843l-21.32,68.021l-4.569,13.706l-2.284,4.06l-3.046,4.061l-18.274,14.214l-18.274,11.675l-9.899,6.091l-19.036,10.66l-41.117,20.305l-24.365,12.183l-22.843,13.198l-15.229,9.137l-19.797,13.706l-22.843,18.274l-18.274,16.244l-41.879,39.087l-12.944,10.66l-6.853,5.583l-9.137,6.092l-19.797,12.183l-10.66,5.076l-16.751,7.614l-17.513,6.599l-11.422,4.061l-15.228,4.061l-57.869,11.675l-49.493,11.168l-16.751,3.553l-8.376,1.015l-12.944,1.523l-38.071,3.554l-3.807,0.507l-9.899,1.523l-14.467,3.553l-7.614,2.031l-7.615,3.046l-8.375,3.553l-7.615,4.061l-6.091,3.553l-4.569,4.061l-5.576,5.949" style="fill:none;fill-rule:nonzero;stroke:#ffe5ad;stroke-width:1.25px;"/><path class="contour" id="D17" d="M0,1552.67l46.276,-31.552l79.188,-56.346l28.935,-21.32l12.182,-10.152l11.422,-10.152l11.421,-10.66l34.264,-34.011l17.513,-15.228l12.183,-9.137l12.944,-9.138l13.706,-8.629l33.503,-19.29l20.559,-12.69l24.365,-16.244l15.99,-11.675l19.797,-16.244l22.843,-22.843l7.614,-9.644l9.899,-13.199l6.091,-11.675l5.33,-11.675l4.569,-12.69l3.046,-12.691l1.523,-11.675l0.761,-12.183l0.761,-28.427l0.762,-13.705l3.046,-17.259l2.284,-8.122l5.33,-12.691l6.091,-11.167l9.899,-13.198l10.66,-13.198l11.421,-11.676l12.944,-11.675l13.706,-11.675l9.137,-7.107l42.64,-31.472l17.513,-13.706l15.99,-14.721l13.706,-14.213l12.183,-14.213l12.183,-14.721l11.421,-14.721l21.32,-30.457l20.558,-32.996l9.138,-16.751l7.614,-14.213l6.091,-14.721l5.33,-12.183l5.33,-12.691l13.706,-40.101l3.807,-10.66l4.569,-10.66l9.137,-16.752l11.421,-15.736l10.66,-10.66l10.66,-9.137l11.422,-9.137l14.467,-8.63l30.457,-16.244l19.797,-8.629l20.559,-8.122l20.558,-7.107l22.082,-7.106l19.797,-5.077l20.558,-4.568l24.366,-4.569l48.731,-7.106l99.747,-11.676l76.143,-9.644l60.914,-7.107l45.686,-6.091l73.858,-10.66l47.97,-8.122l47.209,-8.63l66.244,-12.69l37.31,-7.615l38.072,-9.137l89.848,-21.827l67.767,-15.229l33.503,-8.629l21.32,-6.092l41.878,-12.69l20.559,-7.107l22.843,-8.122l60.153,-23.35l16.751,-7.107l9.899,-5.076l9.898,-5.584l11.422,-8.629l9.898,-10.66l7.614,-11.676l6.092,-12.69l4.568,-13.706l3.808,-14.721l10.66,-43.147l3.807,-13.198l3.045,-10.153l4.569,-10.66l4.569,-9.644l5.33,-9.138l8.375,-12.69l9.899,-12.691l12.183,-13.198l12.944,-12.69l15.228,-12.183l15.229,-11.168l16.751,-9.644l15.99,-8.122l15.99,-7.107l17.513,-6.599l18.275,-6.091l25.127,-7.107l51.777,-13.198l45.685,-12.691l15.121,-4.866" style="fill:none;fill-rule:nonzero;stroke:#ffe5ad;stroke-width:1.25px;"/><path class="contour" id="C17" d="M3333.33,551.43l-10.633,7.756l-31.219,22.335l-14.467,10.66l-15.228,9.137l-31.98,18.275l-16.752,8.629l-65.483,32.488l-28.172,12.69l-42.64,19.29l-12.183,5.583l-15.99,8.122l-57.869,30.965l-21.32,11.168l-22.843,10.66l-13.705,6.091l-15.229,5.584l-26.65,8.629l-28.173,7.107l-30.457,6.599l-32.741,5.076l-31.219,3.554l-28.934,2.03l-16.751,0l-14.467,-0.508l-15.99,-1.015l-10.66,-1.015l-3.808,-1.015l-11.421,1.015l-5.33,1.523l-12.183,5.584l-9.137,6.599l-12.944,10.152l-8.376,6.091l-9.137,5.584l-9.899,5.076l-21.32,8.122l-44.924,17.259l-12.944,4.061l-27.412,7.615l-18.274,4.568l-9.898,4.061l-20.559,9.645l-21.32,9.645l-7.614,4.061l-13.706,9.137l-16.751,13.705l-6.092,6.599l-8.375,11.168l-51.778,68.529l-17.512,22.335l-11.422,13.198l-41.878,46.701l-15.229,17.766l-28.934,35.534l-13.706,17.259l-6.853,9.137l-0.761,1.523l-2.284,5.076l-19.036,54.823l-7.614,19.289l-8.376,19.797l-9.899,19.797l-9.137,14.721l-9.898,13.706l-12.183,14.213l-12.183,12.691l-14.467,12.69l-15.229,12.183l-15.99,12.183l-66.244,49.239l-67.006,51.27l-18.274,13.198l-18.274,12.182l-16.752,10.153l-18.274,10.152l-21.32,10.153l-22.843,9.644l-22.842,8.122l-19.798,5.584l-19.035,5.076l-16.752,3.554l-15.99,3.045l-51.777,8.63l-15.99,3.045l-18.274,4.061l-18.274,4.569l-15.99,5.076l-15.99,6.092l-15.99,6.599l-15.229,7.614l-13.705,8.629l-12.945,9.645l-9.898,9.137l-6.822,7.472" style="fill:none;fill-rule:nonzero;stroke:#ffe5ad;stroke-width:1.25px;"/><path class="contour" id="D16" d="M0,1615.94l69.119,-54.719l22.081,-16.244l47.209,-34.01l15.99,-12.691l15.228,-13.705l13.706,-14.214l12.944,-14.721l21.32,-24.873l27.411,-33.503l12.183,-12.69l12.945,-12.183l11.421,-8.122l7.614,-5.076l9.899,-5.584l35.026,-19.29l11.421,-7.614l16.751,-11.675l15.99,-12.691l15.229,-13.705l12.944,-13.198l12.183,-13.198l12.183,-13.706l10.66,-13.706l9.898,-14.721l7.615,-13.705l6.091,-14.214l3.807,-11.675l3.046,-11.168l3.046,-14.213l6.091,-41.117l3.046,-13.706l3.046,-10.66l4.568,-10.152l8.376,-13.198l10.66,-13.198l12.183,-13.198l13.705,-12.691l25.127,-22.335l41.879,-35.026l15.99,-14.213l14.467,-14.213l13.706,-14.721l11.421,-12.691l9.899,-13.198l19.035,-25.888l21.32,-32.488l19.798,-32.488l9.137,-16.243l7.614,-16.752l6.853,-16.751l5.33,-13.198l3.807,-13.198l9.137,-34.011l5.33,-16.244l6.853,-16.243l6.853,-11.676l8.376,-11.675l6.091,-7.614l7.614,-7.107l7.614,-6.599l17.513,-12.183l19.797,-11.167l19.036,-8.63l20.559,-7.614l19.797,-7.107l19.036,-5.076l20.558,-4.061l30.457,-5.076l22.843,-2.03l95.94,-6.092l24.366,-2.538l34.264,-3.553l178.174,-22.843l140.103,-19.797l55.584,-8.122l28.173,-5.076l26.65,-5.077l19.035,-4.06l18.275,-4.061l62.437,-16.244l22.843,-5.584l20.558,-4.569l19.797,-3.553l23.605,-4.061l90.609,-13.706l21.32,-3.553l22.082,-4.061l44.163,-10.152l21.32,-5.584l20.558,-6.091l19.036,-7.107l19.036,-7.614l17.512,-8.122l14.468,-7.107l13.705,-8.122l6.853,-5.076l9.137,-8.122l9.137,-10.66l7.615,-14.213l3.807,-13.198l2.284,-13.198l3.046,-37.057l1.523,-15.228l2.284,-16.244l3.046,-15.228l3.807,-15.737l4.568,-15.228l6.853,-14.721l6.853,-12.183l7.614,-11.168l9.899,-11.167l11.421,-10.66l15.99,-12.691l17.513,-11.167l14.467,-7.615l15.229,-7.614l19.036,-7.614l19.797,-7.107l20.558,-6.599l84.519,-25.381l42.64,-13.705l21.32,-7.107l23.604,-8.63l23.062,-8.927" style="fill:none;fill-rule:nonzero;stroke:#ffe5ad;stroke-width:1.25px;"/><path class="contour" id="C16" d="M3333.33,523.926l-28.146,20.539l-18.274,12.69l-17.513,12.183l-19.036,11.676l-18.274,11.167l-12.183,6.599l-28.934,15.229l-40.356,19.797l-85.28,41.117l-24.366,12.183l-19.035,9.645l-47.209,25.888l-19.797,10.152l-16.751,8.122l-16.752,7.615l-17.513,6.599l-21.319,7.106l-17.513,4.569l-17.513,3.553l-15.99,3.046l-15.229,2.03l-15.228,1.523l-24.366,1.016l-13.706,-0l-13.705,-0.508l-19.797,-1.523l-42.64,-5.076l-19.798,-1.523l-19.797,-0.508l-19.035,1.523l-7.615,1.523l-9.137,3.046l-7.614,3.553l-9.137,6.092l-8.376,6.091l-17.513,14.213l-10.66,8.122l-12.944,8.63l-15.99,8.629l-17.513,8.63l-23.604,10.152l-24.366,10.152l-52.538,20.305l-44.925,16.752l-17.512,5.583l-15.229,5.077l-28.934,14.213l-19.036,8.122l-6.091,2.538l-6.092,5.076l-12.944,12.183l-5.33,5.584l-6.091,7.106l-45.686,57.869l-12.183,14.213l-59.391,61.93l-9.899,10.66l-2.284,2.03l-3.807,5.584l-6.092,10.66l-14.467,30.457l-8.376,18.274l-34.264,84.265l-8.376,18.274l-6.852,12.691l-7.615,12.69l-8.375,12.183l-10.66,13.706l-11.422,13.198l-11.421,11.675l-23.604,22.843l-25.889,22.843l-13.706,11.675l-28.173,22.335l-17.512,12.691l-17.513,12.183l-19.036,11.675l-17.513,9.645l-18.274,9.137l-30.457,13.198l-19.797,7.106l-20.559,6.599l-21.32,6.092l-21.32,5.584l-66.244,16.751l-21.32,6.091l-19.036,6.092l-18.274,6.599l-20.558,8.629l-19.798,9.138l-18.274,9.137l-19.797,10.66l-19.036,11.675l-22.081,14.721l-16.752,13.706l-15.99,16.751l-8.819,11.025" style="fill:none;fill-rule:nonzero;stroke:#ffe5ad;stroke-width:1.25px;"/><path class="contour" id="D15" d="M140.333,1666.67l-1.163,-0.873l-13.706,-14.721l-9.137,-14.213l-3.046,-8.629l-2.284,-16.752l1.523,-11.675l4.569,-11.168l5.33,-10.66l6.091,-9.644l6.853,-9.138l6.853,-7.614l36.548,-36.041l14.467,-15.736l12.183,-14.721l19.797,-25.381l38.833,-52.792l9.137,-10.66l10.66,-9.645l9.137,-7.106l18.275,-11.168l29.695,-15.229l13.706,-7.614l9.137,-5.584l12.944,-10.152l12.945,-11.168l12.183,-11.675l24.365,-26.396l11.422,-13.706l10.66,-13.706l9.898,-14.213l9.137,-14.213l8.376,-15.229l7.614,-15.736l3.808,-11.675l3.807,-12.183l13.705,-54.315l4.569,-12.691l4.569,-8.629l8.375,-13.706l10.66,-13.198l12.183,-12.69l13.706,-12.691l47.97,-43.655l31.218,-30.457l14.467,-15.229l14.467,-15.736l25.889,-31.472l24.366,-34.518l10.66,-17.259l10.66,-17.767l9.898,-18.274l8.376,-17.259l7.614,-17.767l6.853,-17.767l5.33,-16.243l12.183,-44.671l4.569,-12.183l3.807,-9.644l4.568,-9.645l8.376,-13.706l9.898,-12.69l10.66,-9.137l11.422,-8.63l13.706,-7.614l14.467,-6.599l22.843,-8.122l13.705,-3.553l28.935,-5.077l15.228,-1.523l24.366,-1.522l47.208,-2.031l28.173,-1.523l56.346,-4.061l28.173,-3.045l28.172,-3.554l35.026,-5.076l105.839,-18.782l54.822,-8.122l54.062,-7.614l83.757,-10.152l54.823,-8.122l21.32,-3.554l21.32,-4.061l18.274,-4.06l17.513,-4.061l59.391,-15.737l38.833,-8.629l19.036,-3.553l24.365,-4.061l25.127,-3.554l50.255,-5.584l73.858,-7.614l35.787,-4.568l22.843,-4.061l22.843,-4.569l22.843,-5.584l21.32,-5.583l20.558,-6.6l20.559,-8.121l19.036,-8.63l16.751,-10.152l7.614,-5.584l8.376,-7.614l6.853,-8.122l3.807,-6.092l7.614,-18.274l2.284,-10.66l1.523,-11.168l0.762,-11.167l-0,-11.168l-2.285,-33.503l0,-15.736l3.046,-23.35l3.046,-14.721l5.33,-13.706l6.091,-13.706l7.615,-13.705l10.66,-13.198l9.898,-10.66l12.183,-10.153l15.99,-12.183l17.513,-11.167l21.32,-11.168l22.081,-10.66l22.082,-9.645l22.842,-9.137l23.605,-9.137l118.021,-43.147l67.767,-25.889l14.657,-5.374" style="fill:none;fill-rule:nonzero;stroke:#ffe5ad;stroke-width:1.25px;"/><path class="contour" id="C15" d="M3333.33,499.045l-27.385,19.024l-19.035,12.69l-38.833,24.874l-20.559,12.182l-20.558,11.676l-19.797,10.152l-20.559,10.152l-65.483,30.965l-105.838,47.716l-70.052,30.965l-32.741,13.198l-15.99,6.092l-16.751,5.583l-22.082,5.584l-22.843,4.061l-22.081,2.031l-22.081,-0l-21.32,-1.523l-20.559,-3.046l-19.797,-4.061l-38.833,-9.137l-16.751,-3.553l-16.752,-2.031l-18.274,-1.523l-18.274,0.508l-16.752,2.538l-9.137,2.538l-10.66,4.569l-7.614,5.076l-11.421,10.152l-5.33,7.614l-16.752,27.412l-9.137,13.198l-9.899,9.137l-9.137,7.614l-11.421,7.107l-23.604,13.706l-15.229,8.122l-15.99,8.122l-25.127,11.167l-19.036,7.614l-20.558,8.122l-53.3,19.29l-120.306,41.625l-12.183,4.06l-4.568,2.031l-1.523,1.015l-6.092,3.554l-9.137,5.583l-10.66,8.122l-12.944,10.153l-12.183,10.152l-12.183,11.168l-12.182,11.675l-22.082,22.843l-8.376,10.152l-15.228,18.782l-21.32,28.427l-12.944,19.289l-12.183,19.797l-6.092,10.66l-5.33,11.168l-9.898,22.335l-8.376,22.335l-15.228,43.148l-8.376,21.32l-11.422,21.32l-6.091,10.152l-12.183,18.782l-12.944,17.767l-34.264,42.64l-15.99,19.797l-9.899,10.66l-10.66,11.167l-10.66,10.66l-22.843,19.797l-20.558,16.244l-8.376,5.584l-5.33,3.046l-17.513,8.122l-26.65,12.182l-6.091,2.539l-5.33,1.522l-22.843,5.584l-15.99,3.554l-9.899,1.015l-15.228,1.015l-13.706,1.523l-15.99,2.538l-21.32,6.091l-15.228,5.077l-20.559,8.121l-9.137,4.569l-18.274,10.66l-15.229,10.66l-3.807,2.538l-25.889,20.812l-12.182,9.138l-16.752,9.644l-80.711,47.717l-26.65,15.736l-12.183,8.122l-9.146,6.456" style="fill:none;fill-rule:nonzero;stroke:#ffe5ad;stroke-width:1.25px;"/><path class="contour" id="D14" d="M221.559,1666.67l-10.053,-7.979l-13.706,-13.706l-8.376,-10.66l-6.091,-11.168l-3.046,-7.106l-2.284,-9.645l-0.762,-10.152l1.523,-14.721l2.285,-7.107l3.807,-8.122l4.568,-8.122l6.853,-9.645l25.127,-33.502l61.676,-86.803l6.853,-8.63l7.614,-9.137l8.376,-8.629l6.091,-5.076l10.66,-6.599l43.402,-22.336l10.659,-6.599l11.422,-8.629l6.091,-5.584l8.376,-8.122l8.376,-9.137l13.705,-17.259l28.173,-37.056l19.036,-26.396l8.376,-13.199l7.614,-12.69l6.853,-12.69l6.091,-13.199l6.853,-15.228l17.513,-47.209l7.614,-15.736l7.614,-15.228l9.138,-13.706l10.66,-12.691l9.898,-11.167l86.803,-89.849l13.706,-15.228l25.888,-30.965l12.944,-16.244l12.183,-16.243l10.66,-16.244l9.137,-14.214l9.138,-14.721l7.614,-15.228l7.614,-14.721l13.706,-30.457l22.081,-58.884l6.092,-14.213l5.33,-11.168l6.091,-10.66l10.66,-13.706l9.137,-8.121l10.66,-6.599l13.706,-7.107l13.706,-4.569l15.228,-3.553l18.274,-3.553l19.798,-2.538l20.558,-2.539l118.783,-11.675l25.127,-3.045l25.127,-3.554l25.127,-4.061l25.127,-5.076l24.366,-5.584l24.366,-6.091l48.731,-13.706l23.604,-5.584l22.843,-5.583l25.127,-4.569l25.127,-4.061l25.128,-3.553l128.681,-15.229l25.127,-3.553l25.127,-4.061l25.127,-4.569l17.513,-4.061l81.473,-19.797l19.035,-4.568l20.559,-3.554l19.797,-3.553l42.64,-6.091l21.32,-2.031l33.503,-3.046l75.381,-4.061l16.752,-1.015l17.513,-2.03l24.365,-3.554l23.604,-4.568l22.843,-5.076l22.843,-6.092l22.082,-6.599l21.32,-7.106l16.751,-6.6l15.99,-7.614l13.706,-7.614l12.944,-8.122l9.898,-8.122l9.138,-8.629l4.568,-6.092l2.284,-4.568l6.092,-13.706l3.807,-14.213l2.284,-14.721l1.523,-14.721l0.762,-15.736l0.761,-49.239l1.523,-14.214l1.523,-9.645l3.045,-9.644l6.092,-14.721l6.091,-10.66l6.853,-10.66l9.899,-11.675l11.421,-10.66l11.422,-10.153l12.944,-10.152l15.228,-11.168l15.99,-10.66l16.752,-10.66l17.513,-9.645l15.228,-8.629l15.229,-7.614l15.99,-7.615l21.32,-9.137l22.081,-9.137l44.163,-16.751l47.208,-17.259l48.732,-17.259l24.366,-8.122l25.127,-7.614l25.127,-6.6l20.558,-4.06l4.661,-0.806" style="fill:none;fill-rule:nonzero;stroke:#ffe5ad;stroke-width:1.25px;"/><path class="contour" id="C14" d="M3333.33,476.467l-16.725,11.652l-48.731,32.488l-19.797,12.183l-39.594,22.335l-17.513,9.137l-36.549,16.752l-51.015,21.827l-90.61,35.533l-42.64,15.737l-68.529,23.858l-61.675,19.797l-13.706,4.061l-12.944,3.045l-17.513,3.554l-19.036,2.03l-15.229,0l-15.228,-1.015l-18.274,-3.046l-19.036,-3.553l-50.254,-11.168l-21.32,-4.061l-21.32,-2.538l-21.32,-1.523l-20.559,0l-13.705,1.016l-12.945,2.03l-6.853,2.031l-6.852,3.045l-8.376,4.061l-7.614,5.077l-9.138,8.121l-7.614,9.138l-8.376,12.69l-15.228,27.411l-6.092,10.153l-6.852,9.645l-6.853,8.121l-7.615,8.122l-8.375,7.615l-13.706,11.167l-14.467,10.153l-15.99,10.152l-16.751,9.137l-16.752,8.122l-17.513,7.614l-19.797,8.122l-19.797,7.614l-40.356,14.214l-83.757,27.919l-24.365,9.137l-26.65,11.675l-21.32,10.153l-21.32,11.167l-21.32,11.675l-21.32,13.198l-19.797,12.691l-22.082,15.228l-18.274,13.706l-19.036,15.229l-2.284,2.538l-4.569,4.568l-13.705,14.214l-16.752,19.797l-15.228,20.812l-6.853,10.66l-6.092,9.645l-7.614,16.244l-6.853,16.751l-20.558,60.407l-16.752,36.548l-9.898,17.259l-10.66,16.244l-38.072,57.869l-31.98,50.254l-11.421,16.244l-6.853,9.137l-9.137,9.137l-9.899,9.137l-11.421,8.63l-12.183,7.614l-11.421,6.599l-9.137,4.061l-9.137,3.553l-7.615,3.046l-6.091,1.523l-3.807,0.507l-51.777,10.66l-22.082,5.077l-16.751,5.583l-7.615,3.046l-17.512,8.122l-6.853,3.553l-5.33,3.554l-10.66,7.614l-44.163,37.056l-19.036,14.213l-14.467,9.645l-19.797,12.691l-21.32,12.182l-86.041,47.209l-12.945,7.107l-9.684,6.456" style="fill:none;fill-rule:nonzero;stroke:#ffe5ad;stroke-width:1.25px;"/><path class="contour" id="D13" d="M337.903,1664.27l-6.092,-6.092l-5.33,-6.599l-4.568,-6.599l-3.807,-6.599l-3.808,-7.107l-2.284,-7.106l0,-9.137l1.523,-6.6l3.046,-6.091l5.33,-6.599l7.614,-6.599l9.137,-7.107l11.422,-6.091l12.182,-6.092l12.183,-5.076l10.66,-3.553l9.137,-2.031l7.615,-1.522l6.091,-0.508l3.807,0l0.762,0.508l12.182,0.507l21.32,2.538l3.046,0.508l3.046,-0.508l6.853,-2.03l17.513,-6.599l6.852,-3.554l3.808,-2.538l3.807,-4.568l4.568,-10.153l0.762,-5.583l-0,-4.569l-0.762,-4.568l-5.33,-15.737l-3.807,-11.167l-3.807,-6.599l-5.33,-5.584l-12.183,-13.706l-6.091,-8.629l-6.853,-13.706l-2.284,-5.076l-0.762,-3.046l19.036,-29.442l3.807,-7.614l2.284,-8.122l0,-3.553l-0.761,-6.599l-10.66,-32.488l-2.284,-11.168l-0.762,-6.091l0,-2.538l2.284,-7.107l4.569,-10.66l7.614,-14.213l27.412,-53.808l37.31,-74.62l8.375,-16.243l9.899,-17.259l11.421,-17.259l11.422,-16.752l15.99,-21.32l26.65,-32.487l63.96,-75.128l22.842,-26.904l21.32,-27.919l10.66,-14.721l19.798,-29.442l15.228,-26.903l12.944,-26.904l22.082,-46.193l8.375,-17.259l10.66,-15.737l9.138,-11.675l11.421,-10.66l10.66,-7.614l10.66,-6.091l10.66,-5.077l14.467,-5.583l22.082,-6.092l22.842,-5.076l24.366,-4.061l25.127,-3.046l76.143,-9.645l25.889,-3.553l25.888,-4.568l25.127,-4.569l25.127,-5.584l25.127,-6.091l84.519,-21.828l18.274,-4.568l19.036,-3.554l21.32,-3.553l21.32,-3.046l24.366,-3.045l73.097,-7.107l49.492,-5.584l24.366,-3.046l48.731,-7.106l25.128,-5.076l24.365,-5.584l44.163,-11.168l31.219,-7.107l22.842,-4.568l22.843,-3.553l42.64,-6.599l21.32,-3.046l22.082,-2.031l19.797,-1.523l22.081,-1.522l44.163,-2.031l23.604,-1.523l23.605,-2.03l22.842,-3.046l19.797,-3.553l19.798,-4.061l21.32,-5.584l22.081,-6.599l22.843,-7.614l22.843,-8.63l21.32,-9.137l19.035,-9.645l12.945,-7.614l11.421,-8.122l4.569,-4.061l6.091,-6.091l6.091,-7.107l4.569,-8.122l4.569,-9.645l3.807,-10.66l3.045,-14.213l1.523,-14.213l3.807,-37.564l4.569,-30.965l5.33,-28.934l3.046,-13.706l4.568,-13.198l3.046,-6.599l6.853,-11.167l8.376,-10.66l11.421,-12.183l13.706,-11.675l15.228,-12.183l12.183,-9.137l27.411,-19.29l14.468,-9.645l19.797,-11.675l22.081,-11.168l14.467,-7.106l15.229,-6.599l19.035,-7.614l20.559,-7.615l20.559,-7.106l43.401,-14.721l23.604,-7.107l23.605,-6.091l24.365,-6.092l19.797,-4.061l19.797,-3.553l26.65,-3.553l21.32,-1.523l22.843,-1.523l22.082,-0.508l70.051,-0.507l105.838,-0l24.366,-0.508l23.604,-2.031l14.468,-2.03l13.705,-3.046l19.036,-6.091l19.797,-9.137l12.944,-6.599l8.823,-5.882" style="fill:none;fill-rule:nonzero;stroke:#ffe5ad;stroke-width:1.25px;"/><path class="contour" id="C13" d="M3333.33,454.214l-32.715,22.738l-34.264,22.843l-17.513,11.167l-18.274,10.66l-26.65,14.721l-31.98,15.229l-17.513,7.106l-35.025,13.198l-32.742,10.66l-20.558,6.599l-41.117,12.183l-70.813,20.813l-50.255,14.213l-41.878,10.66l-41.117,9.137l-23.604,4.569l-22.843,3.045l-25.889,2.031l-11.421,-0l-25.127,-1.015l-24.366,-2.031l-75.381,-9.645l-25.127,-2.538l-19.798,-1.523l-18.274,-0.507l-17.513,0.507l-15.99,2.539l-6.853,2.03l-12.182,5.584l-6.853,4.568l-7.615,7.107l-6.091,7.614l-7.614,13.706l-19.797,45.178l-8.376,15.736l-8.376,13.198l-9.898,11.676l-10.66,11.167l-12.183,10.66l-22.843,15.229l-16.751,9.644l-17.513,9.138l-19.036,8.121l-21.32,9.138l-22.081,9.137l-19.797,7.106l-73.098,24.874l-22.081,7.614l-23.604,9.645l-24.366,9.644l-22.843,10.153l-22.843,10.66l-35.025,18.274l-36.549,22.335l-35.787,23.858l-19.036,14.721l-19.035,16.244l-21.32,19.797l-19.797,19.797l-18.275,19.798l-14.467,16.751l-12.944,15.228l-20.559,26.904l-26.65,39.087l-9.898,12.69l-15.99,20.813l-11.422,15.228l-8.375,16.244l-15.229,32.488l-6.091,11.167l-22.843,38.579l-9.137,17.259l-13.706,28.935l-6.853,12.69l-9.898,14.213l-10.66,11.676l-9.899,9.644l-6.091,4.061l-3.046,1.523l-13.706,6.599l-6.853,2.538l-51.015,17.259l-25.127,9.137l-22.082,9.138l-12.183,6.091l-15.228,9.645l-14.467,10.152l-7.615,6.599l-33.502,33.503l-13.706,12.69l-5.33,4.569l-8.376,6.599l-11.421,7.614l-12.944,8.122l-12.183,7.107l-65.483,35.026l-21.32,11.675l-15.99,9.137l-20.807,13.563m-902.15,-0l-2.939,-2.395" style="fill:none;fill-rule:nonzero;stroke:#ffe5ad;stroke-width:1.25px;"/><path class="contour" id="D12" d="M1025.91,1666.67l-6.531,-2.903l-6.092,-3.046l-5.33,-3.553l-9.898,-8.63l-32.742,-31.98l-15.228,-13.198l-14.467,-10.66l-15.229,-9.644l-17.513,-8.63l-44.163,-18.782l-51.015,-22.843l-25.889,-10.66l-18.274,-6.599l-12.944,-6.091l-11.422,-3.553l-9.137,-2.539l-28.934,-4.568l-9.137,-1.523l-9.138,-2.538l-10.66,-4.569l-6.852,-4.568l-6.092,-5.076l-25.888,-27.919l-25.127,-22.843l-10.66,-9.645l-8.376,-9.137l-3.807,-5.584l-3.807,-6.091l-6.853,-12.691l-5.33,-12.69l-4.569,-13.706l-8.376,-30.457l-3.045,-10.152l-3.807,-7.107l-15.229,-30.457l-0.761,-2.538l0.761,-13.198l2.284,-13.199l3.807,-15.736l5.33,-17.766l6.853,-18.782l8.376,-19.797l9.899,-19.29l10.66,-18.782l10.66,-17.766l10.66,-16.752l9.898,-14.213l31.98,-43.148l23.604,-29.442l58.63,-71.574l22.843,-29.949l10.66,-15.229l9.899,-14.721l9.137,-14.721l8.376,-14.721l14.467,-28.934l20.558,-44.163l7.614,-14.213l9.138,-14.213l10.66,-13.198l12.182,-11.676l6.853,-5.076l11.422,-6.599l12.183,-5.584l12.944,-5.076l14.467,-4.568l21.32,-4.569l22.843,-4.061l23.604,-3.553l79.189,-10.66l26.65,-4.061l24.365,-4.569l24.366,-5.076l25.127,-5.076l74.62,-16.752l22.843,-5.076l23.604,-4.061l23.604,-3.553l25.127,-3.046l24.366,-2.03l25.127,-1.523l75.382,-4.061l47.208,-3.553l22.843,-2.538l22.081,-2.539l22.082,-3.045l22.081,-4.061l29.696,-6.599l23.604,-6.092l53.3,-14.721l25.889,-6.599l26.65,-6.091l26.65,-5.584l26.65,-4.568l25.127,-3.554l25.127,-3.045l25.127,-2.031l53.3,-4.061l34.264,-3.046l16.752,-2.03l17.512,-2.538l17.513,-3.046l21.32,-4.061l19.797,-5.076l24.366,-6.091l23.604,-6.092l22.843,-7.107l22.081,-7.614l20.559,-8.122l19.036,-9.644l15.228,-11.168l8.376,-7.614l9.899,-14.721l6.091,-15.736l3.807,-15.229l2.284,-16.244l4.569,-48.731l3.807,-20.813l4.569,-15.736l4.568,-15.228l5.33,-14.721l6.853,-14.721l7.614,-13.706l9.138,-13.706l4.568,-5.583l11.421,-12.183l12.183,-11.168l14.467,-12.183l14.468,-11.167l13.705,-9.645l12.945,-8.63l16.751,-10.152l16.751,-9.137l20.559,-9.645l22.081,-9.137l22.082,-8.629l22.843,-8.122l22.842,-7.615l23.605,-6.599l24.365,-6.091l36.549,-7.107l31.98,-4.061l22.843,-1.523l23.604,-1.015l21.32,-0.507l41.878,0.507l75.382,3.554l24.366,1.015l24.365,-0l23.604,-1.015l23.605,-2.031l17.513,-3.553l16.751,-4.569l19.797,-7.107l19.797,-9.137l18.275,-10.152l17.512,-11.675l15.229,-10.66l14.467,-11.675l21.372,-18.065" style="fill:none;fill-rule:nonzero;stroke:#ffe5ad;stroke-width:1.25px;"/><path class="contour" id="C12" d="M3333.33,427.957l-16.725,12.446l-18.274,12.691l-37.31,24.873l-35.026,22.335l-17.512,10.66l-18.275,9.645l-21.32,10.152l-19.035,8.122l-19.797,7.614l-19.798,6.6l-20.558,6.599l-21.32,6.091l-23.604,6.091l-98.986,24.366l-53.3,12.691l-53.3,11.167l-24.366,5.076l-25.127,4.061l-24.365,3.046l-25.128,2.538l-15.989,0.508l-16.752,-0l-22.843,-0.508l-22.843,-1.523l-110.407,-12.69l-15.228,-1.015l-10.66,-0.508l-12.183,0.508l-10.66,1.015l-11.421,2.03l-10.66,3.046l-10.66,4.061l-9.138,6.091l-5.33,4.569l-9.137,10.66l-5.33,10.152l-3.807,10.66l-10.66,36.041l-5.33,13.198l-6.091,13.706l-4.569,8.122l-5.33,8.122l-3.807,5.076l-14.467,14.721l-16.751,13.198l-14.468,9.645l-15.228,8.629l-15.229,7.614l-15.99,7.107l-16.751,7.107l-41.117,17.259l-72.336,27.919l-31.218,12.183l-22.843,9.644l-22.843,10.153l-22.081,10.152l-22.082,10.66l-21.32,11.675l-20.558,11.676l-19.797,11.167l-18.275,11.675l-36.548,24.366l-16.752,12.691l-14.467,11.167l-26.65,22.843l-12.183,11.675l-28.934,28.935l-80.711,85.279l-31.219,31.473l-11.421,10.66l-6.092,5.076l-3.807,2.03l-1.523,0.508l-9.898,5.076l-12.944,8.122l-13.706,9.645l-6.092,5.076l-4.568,4.569l-6.092,8.629l-6.852,12.183l-5.33,14.213l-21.32,63.96l-6.853,19.29l-3.807,8.629l-4.569,8.63l-8.376,12.69l-6.853,8.63l-4.568,4.061l-11.422,9.137l-19.035,12.69l-11.422,6.599l-9.137,4.569l-51.015,22.843l-12.183,5.584l-19.797,11.167l-6.092,4.569l-6.853,5.584l-42.64,35.533l-7.614,7.614l-22.081,22.843l-8.376,8.122l-5.33,4.061l-17.513,12.69l-19.797,12.691l-86.803,54.315l-12.183,7.107l-8.375,4.568l-13.706,4.569l-7.244,1.38" style="fill:none;fill-rule:nonzero;stroke:#ffe5ad;stroke-width:1.25px;"/><path class="contour" id="D11" d="M1168.62,1630.77l-4.568,-1.016l-8.376,-1.522l-9.137,-3.046l-19.797,-8.63l-13.706,-6.599l-9.898,-6.091l-57.869,-37.056l-21.32,-13.706l-47.97,-26.396l-11.421,-7.614l-19.036,-14.214l-22.081,-20.812l-10.66,-8.122l-23.605,-17.259l-6.091,-3.553l-37.31,-15.229l-18.274,-4.061l-14.467,-4.061l-10.66,-4.061l-12.183,-6.091l-11.422,-6.599l-8.375,-5.076l-22.843,-17.767l-7.614,-5.584l-9.138,-5.076l-15.228,-8.63l-12.183,-6.599l-6.853,-4.568l-5.33,-4.061l-9.898,-9.137l-33.503,-29.442l-1.523,-0.508l-4.569,-2.538l-9.137,-6.599l-12.183,-11.167l-9.137,-9.645l-8.375,-11.675l-6.853,-12.183l-6.092,-12.691l-3.807,-11.675l-2.284,-12.183l-1.523,-17.259l1.523,-17.259l3.807,-16.244l6.853,-15.736l7.614,-13.706l9.137,-13.198l19.797,-29.442l22.843,-31.472l23.604,-30.965l38.833,-48.731l25.127,-32.488l22.082,-29.949l23.604,-34.01l10.66,-17.26l9.137,-15.736l31.219,-61.929l9.137,-14.721l6.091,-9.645l7.615,-9.645l7.614,-8.122l8.376,-7.106l5.33,-4.061l11.421,-7.107l15.229,-7.106l16.751,-6.092l22.081,-5.584l22.843,-4.061l24.366,-3.553l73.858,-10.66l25.128,-4.061l33.502,-6.091l92.895,-20.305l22.842,-4.569l23.605,-4.061l18.274,-2.538l18.274,-2.03l26.65,-2.538l53.3,-2.031l80.711,-1.523l28.173,-1.015l28.173,-1.523l27.412,-1.522l27.411,-2.539l27.411,-3.045l26.65,-4.061l15.99,-3.554l15.229,-3.553l21.32,-5.584l65.483,-18.782l22.081,-6.599l22.843,-5.583l47.208,-9.138l24.366,-3.553l28.173,-3.046l64.721,-6.599l31.98,-4.568l16.752,-3.046l15.99,-3.046l26.65,-6.091l98.985,-22.843l20.559,-5.584l17.513,-5.584l15.99,-6.091l14.467,-6.599l12.944,-7.107l9.899,-6.599l8.375,-7.614l5.33,-5.584l6.853,-11.167l4.569,-11.168l3.807,-16.244l2.284,-16.751l3.807,-52.285l1.523,-11.168l1.523,-10.659l9.137,-30.458l6.853,-14.721l6.853,-12.182l7.614,-11.676l8.376,-11.675l10.66,-12.69l12.183,-11.676l15.228,-13.198l12.183,-9.644l12.944,-9.138l13.706,-9.137l15.229,-8.629l16.751,-8.122l16.751,-7.614l17.513,-7.615l22.843,-9.137l23.604,-8.122l24.366,-7.614l16.751,-4.568l17.513,-4.061l22.082,-4.569l22.842,-3.046l18.275,-1.523l18.274,-1.015l18.274,-0.507l18.275,0.507l27.411,1.015l27.411,2.539l51.777,5.076l15.229,1.015l15.99,1.015l19.036,0.508l18.274,-0l13.706,-1.015l14.467,-1.016l13.705,-2.03l13.706,-3.046l14.467,-3.553l12.945,-5.076l9.137,-4.061l19.035,-10.66l17.513,-12.183l15.99,-13.198l15.99,-14.214l78.427,-73.097l2.62,-2.328" style="fill:none;fill-rule:nonzero;stroke:#ffe5ad;stroke-width:1.25px;"/><path class="contour" id="C11" d="M3333.33,395.832l-33.476,25.789l-15.99,11.168l-33.503,21.828l-36.548,23.858l-19.798,12.182l-21.319,11.676l-24.366,12.182l-14.467,6.6l-22.082,8.629l-22.081,8.122l-22.843,7.107l-23.604,6.599l-22.843,6.091l-50.254,12.183l-53.3,12.69l-41.879,8.63l-20.558,3.553l-25.889,4.569l-25.127,3.553l-19.797,2.538l-20.559,2.538l-19.797,1.523l-21.32,1.015l-24.365,0l-22.843,-1.015l-23.605,-2.03l-22.842,-2.538l-67.767,-9.138l-16.752,-1.522l-15.99,-1.016l-19.797,0l-18.274,1.016l-18.275,2.538l-16.751,3.553l-13.706,4.569l-12.944,5.583l-9.898,6.599l-7.615,6.599l-5.33,6.6l-6.853,13.198l-5.33,14.721l-7.614,30.457l-3.807,12.183l-4.569,11.675l-6.852,11.167l-6.853,9.645l-12.183,12.183l-14.467,11.675l-13.706,8.63l-14.467,8.122l-16.751,8.629l-16.752,7.614l-54.823,23.351l-32.741,14.213l-44.163,20.813l-43.401,21.319l-41.879,21.828l-21.32,11.675l-20.558,11.676l-19.797,12.69l-20.559,12.69l-38.071,26.397l-19.036,14.213l-36.549,29.442l-16.751,15.228l-15.229,13.706l-57.868,57.361l-34.264,32.488l-37.31,33.502l-17.513,15.229l-17.513,14.213l-15.99,12.183l-12.944,9.137l-9.899,6.599l-6.853,4.061l-3.045,1.015l-24.366,10.153l-15.99,8.629l-7.614,4.569l-6.853,4.568l-5.33,4.569l-4.569,4.569l-3.807,4.568l-2.284,4.569l-4.569,10.152l-3.046,10.66l-9.137,37.564l-5.33,15.736l-3.807,10.66l-4.568,9.645l-5.33,9.645l-6.092,9.137l-7.614,9.644l-9.137,9.138l-5.33,4.061l-5.33,4.568l-11.422,8.122l-20.558,13.198l-31.98,19.797l-11.422,7.107l-6.852,5.076l-6.092,4.569l-22.081,22.335l-12.944,13.198l-12.945,10.152l-12.183,11.168l-6.852,7.107l-16.752,18.781l-11.421,10.66l-12.183,10.66l-25.889,17.259l-11.421,6.599l-38.071,19.29l-10.66,4.569l-12.183,4.568l-13.706,3.553l-5.33,1.016l-15.229,-0" style="fill:none;fill-rule:nonzero;stroke:#ffe5ad;stroke-width:1.25px;"/><path class="contour" id="D10" d="M1192.99,1586.61l-11.421,-1.015l-10.66,-2.031l-11.422,-3.046l-16.751,-6.091l-26.65,-12.183l-15.99,-7.614l-19.036,-10.66l-22.843,-14.721l-6.852,-6.091l-10.66,-11.168l-38.833,-43.655l-8.376,-8.122l-5.33,-3.553l-9.137,-4.569l-12.183,-5.076l-31.98,-12.183l-16.751,-8.63l-6.853,-4.568l-12.944,-11.675l-6.092,-8.63l-6.853,-11.675l-3.045,-3.553l-3.808,-3.046l-16.751,-9.137l-6.853,-5.076l-38.071,-27.412l-6.853,-5.076l-7.614,-3.553l-21.32,-8.63l-36.549,-14.721l-17.513,-7.614l-13.705,-6.599l-15.229,-8.122l-15.99,-8.63l-15.229,-10.66l-12.182,-9.137l-11.422,-10.66l-8.375,-9.644l-7.615,-9.645l-4.568,-8.63l-4.569,-12.183l-2.284,-12.182l0.761,-12.183l2.285,-11.168l7.614,-16.244l8.376,-15.736l10.66,-16.244l10.66,-15.736l22.842,-31.98l66.245,-88.325l48.731,-70.559l18.274,-27.919l34.264,-57.869l9.899,-15.228l9.137,-12.691l10.66,-11.675l9.899,-9.137l10.66,-8.63l12.944,-8.629l12.183,-6.092l9.898,-4.061l22.082,-6.599l18.274,-4.568l19.036,-3.554l101.27,-17.259l43.401,-8.629l83.757,-18.274l20.559,-4.061l17.512,-3.046l18.275,-2.538l25.127,-2.538l16.751,-1.016l44.163,-1.015l92.133,0l23.604,-0.507l27.412,-0.508l27.411,-1.523l26.65,-1.523l22.081,-1.523l22.082,-2.03l21.32,-2.031l17.513,-2.538l17.512,-3.045l20.559,-4.061l20.559,-5.076l19.797,-5.077l66.244,-19.289l17.513,-5.076l17.513,-4.061l21.32,-4.061l20.558,-4.061l22.081,-3.046l59.392,-6.599l17.513,-2.538l20.558,-3.046l20.559,-4.061l22.843,-4.568l57.868,-13.706l66.244,-14.213l19.036,-4.569l19.797,-5.584l18.274,-6.599l12.183,-5.076l11.422,-5.584l12.183,-6.599l10.66,-7.106l5.33,-4.569l5.33,-5.076l6.852,-9.137l6.092,-10.153l5.33,-14.213l3.046,-15.229l2.284,-15.736l3.046,-49.239l2.284,-16.243l2.284,-13.199l3.046,-13.198l6.091,-15.736l6.853,-15.228l8.376,-15.229l6.853,-10.152l7.614,-9.645l11.421,-11.675l12.945,-11.168l11.421,-9.137l12.944,-8.63l14.467,-7.614l13.706,-7.106l15.229,-6.092l15.228,-5.584l15.229,-5.076l39.594,-11.167l17.513,-4.569l18.274,-4.061l15.99,-3.046l15.229,-2.538l12.944,-2.03l24.366,-2.538l24.365,-2.031l25.127,-1.015l24.366,-0.508l34.264,0.508l70.813,2.538l26.65,0.508l26.65,-0.508l25.127,-1.523l25.127,-2.538l15.99,-2.538l14.467,-3.553l19.798,-6.599l10.66,-5.077l9.137,-5.076l15.99,-10.66l14.467,-12.183l13.706,-13.705l13.705,-14.721l32.742,-38.072l28.172,-29.949l14.468,-14.721l12.182,-11.168l12.945,-11.167l7.188,-5.882" style="fill:none;fill-rule:nonzero;stroke:#ffe5ad;stroke-width:1.25px;"/><path class="contour" id="C10" d="M3333.33,358.7l-19.77,17.236l-31.98,25.888l-16.752,12.183l-21.32,15.229l-19.035,12.182l-38.072,23.351l-18.274,10.66l-19.036,10.66l-20.558,10.152l-20.559,9.645l-22.081,9.137l-16.752,6.092l-17.513,6.091l-17.512,5.584l-36.549,10.66l-45.686,11.167l-22.842,5.077l-39.595,7.106l-44.162,6.092l-25.889,3.045l-26.65,2.031l-25.889,2.03l-26.65,1.016l-25.888,0.507l-27.411,-1.015l-26.65,-1.523l-26.65,-2.538l-69.29,-7.107l-15.99,-1.015l-15.229,-0.508l-25.888,-0.507l-25.128,1.015l-23.604,1.523l-15.228,1.523l-14.467,1.523l-15.99,2.538l-14.468,3.553l-10.66,3.046l-9.137,4.061l-6.091,3.045l-5.33,3.554l-7.614,6.599l-6.853,7.106l-9.899,13.199l-8.376,14.213l-15.228,30.457l-12.944,22.335l-6.853,10.153l-8.376,10.152l-7.614,8.122l-8.376,7.614l-9.137,7.107l-12.183,8.122l-12.944,7.106l-21.32,10.153l-60.153,26.396l-36.548,17.259l-17.513,9.137l-16.752,9.645l-16.751,10.152l-18.274,11.675l-17.513,11.676l-35.787,24.873l-37.31,26.904l-17.513,13.705l-29.696,23.858l-31.98,27.412l-45.685,42.64l-79.189,77.158l-28.173,27.411l-16.751,14.721l-19.036,16.244l-19.797,16.244l-20.559,15.736l-20.558,14.721l-19.797,12.69l-18.275,11.168l-16.751,9.137l-13.706,7.107l-9.898,4.061l-6.092,2.538l-3.045,0.507l-9.137,4.569l-16.752,10.152l-10.66,8.122l-9.137,8.63l-9.137,11.675l-5.33,8.122l-3.807,8.629l-9.137,26.397l-5.33,13.198l-6.092,12.182l-7.614,12.183l-9.137,10.153l-13.706,13.198l-44.924,36.548l-9.137,7.615l-8.376,8.629l-9.899,9.645l-3.807,5.076l-3.045,6.091l-7.615,19.798l-4.568,9.137l-9.137,14.213l-12.945,14.213l-17.513,19.29l-14.467,14.213l-9.898,8.122l-8.376,5.076l-15.99,8.122l-11.421,4.569l-6.092,2.03l-11.421,3.554l-6.092,1.522l-12.182,1.523l-6.092,0.508l-5.33,-0" style="fill:none;fill-rule:nonzero;stroke:#ffe5ad;stroke-width:1.25px;"/><path class="contour" id="C9" d="M1078.01,1476.45l-7.615,-16.244l-2.284,-3.046l-3.046,-3.553l-7.614,-5.584l-19.797,-13.706l-6.853,-3.553l-41.117,-18.274l-6.092,-2.538l-4.568,-3.554l-6.853,-6.091l-32.741,-34.011l-3.807,-4.061l-3.046,-2.03l-35.787,-15.229l-41.117,-20.812l-5.33,-3.553l-12.945,-9.645l-54.061,-41.625l-22.843,-9.137l-19.797,-10.152l-20.559,-12.691l-17.512,-13.198l-15.229,-15.228l-7.614,-10.153l-5.33,-10.152l-3.807,-10.152l-2.285,-16.244l1.523,-15.229l3.807,-11.675l5.33,-10.66l8.376,-14.721l137.057,-208.631l21.32,-35.026l10.66,-15.228l10.66,-14.721l11.421,-13.706l14.468,-14.213l16.751,-12.691l10.66,-6.599l10.66,-5.584l12.944,-5.583l13.706,-5.077l21.32,-6.091l22.081,-5.076l46.447,-9.137l69.29,-12.183l86.042,-16.752l21.32,-4.061l21.32,-3.045l29.695,-4.061l15.229,-1.016l25.127,-1.522l22.081,-0.508l93.656,1.015l24.366,0l34.264,-1.015l22.081,-1.015l44.163,-3.046l24.366,-2.03l23.604,-2.538l24.366,-3.046l16.751,-3.046l17.513,-3.046l19.036,-4.061l19.036,-4.568l36.548,-10.153l46.447,-14.72l19.797,-6.092l21.32,-5.584l25.889,-5.076l14.467,-2.03l24.366,-3.046l60.914,-5.076l18.274,-2.031l18.274,-2.538l21.32,-3.553l20.559,-3.553l65.483,-13.199l70.051,-13.705l22.843,-3.554l17.513,-2.538l16.751,-1.015l18.274,0.508l11.422,2.03l9.898,3.046l6.853,4.061l9.137,9.645l4.569,11.675l-0,13.198l-2.284,13.706l-6.092,13.705l-9.137,14.214l-11.421,13.705l-18.275,16.244l-15.228,10.66l-16.752,9.137l-14.467,7.107l-14.467,6.599l-19.036,7.107l-52.538,20.304l-16.751,7.107l-18.275,7.614l-16.751,7.615l-16.752,8.629l-19.035,10.152l-18.274,10.66l-17.513,11.168l-15.99,11.675l-25.127,19.29l-15.229,12.69l-29.696,25.381l-13.705,13.198l-28.935,30.457l-55.584,61.422l-23.604,24.366l-78.427,75.127l-26.65,24.874l-15.229,13.705l-16.751,14.214l-19.036,15.228l-23.604,18.275l-25.127,17.766l-22.843,14.721l-21.32,12.691l-16.751,9.137l-34.265,18.274l-9.137,6.599l-8.376,7.107l-25.127,24.873l-21.32,18.274l-9.137,10.66l-26.65,39.087l-29.695,36.548l-12.183,15.737l-9.137,13.705l-6.092,11.168l-4.568,10.152l-9.899,27.919l-4.569,11.168l-5.33,10.66l-6.852,10.152l-9.138,9.645l-10.66,9.645l-6.091,4.568l-13.706,8.122l-7.614,3.046l-7.614,2.538l-15.229,3.046l-7.614,1.015l-9.137,0l-9.137,-0.508l-9.137,-1.522l-7.615,-1.523l-6.853,-1.523l-8.375,-3.046l-7.615,-3.046l-8.375,-3.553l-7.615,-4.061l-8.375,-5.076l-7.615,-6.091l-6.852,-6.092l-6.853,-6.599l-6.092,-7.107l-5.33,-6.599l-8.375,-12.182l-3.807,-8.122" style="fill:none;fill-rule:nonzero;stroke:#ffe5ad;stroke-width:1.25px;"/><path class="contour" id="C8" d="M1137.4,1457.16l-4.569,-9.645l-2.284,-4.568l-3.807,-5.076l-6.853,-7.615l-3.807,-3.045l-7.614,-4.061l-6.092,-3.046l-6.853,-2.538l-3.045,-0.508l-6.853,-3.553l-12.944,-6.091l-13.706,-7.615l-76.143,-45.178l-73.097,-41.625l-37.31,-22.335l-95.94,-58.376l-15.99,-10.66l-14.467,-10.66l-11.421,-10.152l-9.138,-10.66l-6.091,-8.63l-6.091,-15.228l-2.285,-10.153l0,-10.152l3.046,-15.736l5.33,-15.736l7.614,-16.244l15.229,-31.98l9.137,-16.244l57.869,-96.955l38.832,-61.93l9.899,-15.228l11.421,-15.229l6.853,-8.629l7.614,-8.63l9.138,-8.629l15.99,-12.691l18.274,-11.675l12.944,-6.599l13.706,-6.091l12.944,-5.077l13.706,-4.06l23.604,-6.092l24.366,-5.584l53.3,-10.152l54.061,-9.645l54.061,-8.629l27.412,-4.061l27.411,-3.046l27.412,-2.538l27.411,-1.523l12.944,0l18.275,-0.508l69.29,1.016l25.888,-0l26.65,-1.016l25.127,-1.015l25.889,-1.015l51.015,-4.061l25.127,-2.03l25.128,-3.046l24.365,-3.046l24.366,-4.061l22.843,-4.061l22.843,-5.076l31.98,-9.137l66.244,-20.812l22.843,-6.6l15.228,-3.045l15.229,-2.538l12.183,-1.523l22.081,-1.523l20.559,-0.508l48.731,-0.507l19.797,-1.016l20.559,-1.522l17.512,-1.523l17.513,-2.538l15.229,-2.538l93.656,-17.259l19.797,-3.046l18.274,-2.031l11.421,0l10.66,1.016l11.422,3.553l3.045,2.03l4.569,4.569l1.523,6.091l-0,7.107l-2.284,7.107l-7.615,11.167l-10.66,11.168l-9.898,7.614l-9.137,5.584l-10.66,5.584l-16.752,8.122l-18.274,7.614l-82.996,29.95l-22.843,9.137l-27.411,12.182l-18.274,8.63l-16.752,9.137l-20.558,11.675l-19.036,11.676l-19.036,13.705l-19.035,13.198l-17.513,14.214l-33.503,29.442l-14.467,14.721l-12.944,14.72l-11.422,13.199l-38.833,49.239l-10.66,13.705l-12.182,13.198l-14.468,15.229l-15.228,14.721l-15.99,14.213l-33.503,28.427l-23.604,18.274l-45.686,34.01l-15.228,13.199l-16.752,13.705l-36.548,33.503l-19.036,16.751l-19.036,16.244l-19.035,14.721l-56.346,42.133l-9.137,7.614l-19.797,12.69l-8.376,5.076l-19.036,9.645l-5.33,3.554l-4.568,4.061l-3.046,2.538l-6.091,8.629l-9.138,13.198l-9.898,15.229l-11.422,20.812l-15.99,29.442l-8.375,18.274l-6.092,16.752l-9.898,29.442l-4.569,12.182l-5.33,9.138l-3.807,4.568l-3.807,4.061l-3.807,3.553l-4.569,3.046l-5.33,2.538l-6.091,2.538l-6.092,1.523l-6.091,1.015l-6.091,0.508l-7.615,-0.508l-6.853,-1.015l-6.852,-2.538l-6.092,-2.538l-6.853,-4.569l-4.568,-3.553l-4.569,-4.061l-5.33,-6.599l-4.568,-7.107l-4.569,-6.599l-6.091,-13.198l-3.046,-9.137" style="fill:none;fill-rule:nonzero;stroke:#ffe5ad;stroke-width:1.25px;"/><path class="contour" id="C7" d="M1224.51,1422.03l-6.506,7.713l-9.173,7.034l-7.801,0.949l-7.875,-3.345l-6.023,-5.296l-11.289,-11.054l-8.456,-10.644l-10.726,-9.157l-8.601,-5.534l-7.614,-3.046l-24.366,-10.66l-23.604,-11.675l-24.366,-13.198l-26.65,-15.229l-80.711,-46.701l-85.28,-47.716l-16.752,-9.645l-31.98,-20.305l-15.99,-12.182l-14.467,-12.691l-11.421,-12.183l-9.137,-12.69l-7.615,-13.706l-3.045,-9.137l-3.046,-17.259l0.761,-17.259l3.046,-17.767l4.569,-17.766l6.091,-18.275l16.752,-35.533l24.365,-47.716l15.99,-28.427l15.229,-23.858l17.513,-26.904l12.182,-15.736l13.706,-14.721l10.66,-9.644l9.137,-7.107l9.899,-6.599l16.751,-8.63l17.513,-7.614l23.604,-8.629l25.127,-7.107l26.65,-6.091l26.65,-5.584l52.539,-10.153l26.65,-4.061l26.65,-3.553l23.604,-3.046l24.366,-2.538l24.366,-2.03l22.842,-1.015l23.605,-1.016l23.604,-0.507l88.326,-0.508l47.969,-1.523l25.889,-1.015l52.539,-3.046l26.65,-2.538l51.015,-4.568l48.732,-5.584l24.365,-3.554l23.605,-4.06l20.558,-4.061l19.036,-4.569l76.904,-18.782l12.183,-2.538l17.513,-2.538l10.66,-0.508l7.614,0l11.421,0.508l10.66,1.015l12.945,3.046l11.421,3.553l9.899,4.569l7.614,6.091l3.807,5.076l2.284,9.138l-1.523,7.106l-3.045,7.614l-6.853,9.645l-9.137,10.66l-9.899,10.66l-15.228,13.198l-15.99,13.706l-70.052,56.853l-16.751,14.721l-16.752,15.736l-15.228,15.229l-15.229,16.244l-46.447,51.269l-12.183,13.198l-12.944,12.691l-14.467,13.198l-13.706,10.66l-13.705,10.152l-18.275,11.675l-36.548,21.828l-18.274,11.675l-12.183,8.122l-15.99,12.183l-11.422,9.645l-9.898,10.152l-12.183,12.691l-11.422,12.69l-32.741,40.102l-11.421,14.213l-12.945,14.214l-12.944,13.705l-13.706,13.198l-14.467,13.198l-18.274,14.721l-61.676,46.194l-19.035,15.736l-10.597,12.455l-9.657,12.029l-8.679,16.355l-5.029,10.677l-4.705,9.249l-6.387,10.282l-7.939,13.11Z" style="fill:none;fill-rule:nonzero;stroke:#ffe5ad;stroke-width:1.25px;"/><path class="contour" id="C6" d="M1160.25,1331.27l-11.422,-0.508l-12.183,-1.523l-18.274,-4.568l-17.513,-5.584l-17.512,-7.614l-16.752,-8.122l-16.751,-9.137l-19.797,-11.168l-67.768,-42.132l-50.254,-29.95l-16.751,-10.66l-15.99,-10.66l-13.706,-11.167l-12.944,-11.676l-11.422,-11.167l-9.137,-11.675l-8.375,-11.168l-6.853,-11.168l-4.569,-10.66l-3.807,-13.705l-1.523,-10.153l-0.761,-10.152l0.761,-11.168l3.046,-17.766l4.568,-14.721l5.33,-15.229l10.66,-28.427l9.138,-22.842l6.091,-12.183l9.899,-18.782l7.614,-12.691l16.751,-24.365l9.899,-11.675l8.376,-9.138l9.137,-8.122l9.137,-7.106l11.421,-7.107l19.036,-9.137l20.558,-8.122l21.32,-7.107l22.082,-5.583l22.081,-5.077l23.605,-4.568l22.842,-4.569l47.209,-7.106l23.604,-3.046l24.366,-3.046l30.457,-2.03l24.366,-1.015l23.604,-0.508l23.604,-0l70.052,0.508l28.172,-0.508l27.412,-0.508l55.584,-2.03l51.777,-3.046l120.306,-8.629l95.94,-6.599l22.081,-0.508l20.559,0.508l11.421,1.522l9.899,2.539l8.375,4.06l3.807,4.061l2.285,5.584l-0,3.046l-1.523,8.629l-5.33,9.138l-8.376,10.66l-9.898,11.167l-25.128,23.858l-48.731,45.178l-66.244,61.93l-14.467,12.69l-14.467,12.183l-13.706,10.66l-10.66,7.614l-19.797,12.691l-33.503,19.797l-13.706,8.122l-12.944,9.137l-15.99,11.675l-14.467,12.691l-21.32,21.32l-15.229,19.289l-10.66,14.721l-29.695,42.64l-9.137,12.691l-12.183,15.228l-12.183,14.721l-13.706,14.213l-14.467,14.214l-15.99,13.198l-15.99,11.675l-16.751,11.675l-15.99,8.63l-15.99,8.122l-16.752,7.614l-16.751,7.107l-17.513,5.583l-11.421,2.538l-11.422,2.031l-13.706,1.523l-8.375,-0" style="fill:none;fill-rule:nonzero;stroke:#ffe5ad;stroke-width:1.25px;"/><path class="contour" id="D5" d="M3333.33,307l-13.785,12.126l-9.792,9.601l-38.072,42.132l-15.228,14.721l-15.99,14.721l-15.99,12.183l-15.99,11.675l-15.229,10.153l-15.228,9.137l-32.742,18.782l-17.513,9.137l-17.513,8.629l-22.081,9.645l-22.081,9.137l-21.32,8.122l-22.082,7.107l-21.32,6.599l-36.548,10.152l-21.32,4.569l-20.559,4.568l-23.604,3.554l-22.843,3.045l-23.604,2.539l-53.3,4.061l-26.65,1.522l-26.65,0.508l-41.117,-0l-25.889,-0.508l-122.59,-5.583l-76.142,-2.031l-22.082,-1.015l-16.751,-1.523l-16.752,-2.03l-15.99,-2.539l-15.99,-3.553l-15.99,-5.076l-14.467,-5.584l-8.375,-4.568l-7.615,-5.077l-11.421,-9.137l-9.137,-11.167l-7.615,-12.183l-6.091,-12.691l-4.569,-14.721l-3.045,-15.228l-1.523,-15.229l0.761,-18.274l3.807,-18.782l4.569,-15.736l6.091,-15.229l8.376,-15.228l9.899,-14.214l11.421,-13.705l8.376,-8.122l9.898,-7.614l12.945,-8.63l14.467,-8.122l15.228,-6.599l15.99,-5.584l15.99,-4.568l31.219,-6.599l40.356,-7.615l53.3,-8.629l26.649,-4.061l27.412,-3.553l26.65,-3.046l27.411,-2.538l33.503,-2.031l26.65,-0.507l26.65,-0l52.539,0.507l26.65,0.508l25.127,-1.015l24.365,-1.523l19.036,-2.031l18.274,-3.553l16.752,-4.568l12.183,-4.569l11.421,-5.076l9.899,-6.092l12.944,-10.66l7.614,-8.629l9.899,-12.691l8.375,-13.198l23.605,-41.117l8.375,-13.198l9.137,-13.706l9.899,-13.705l13.706,-15.229l14.467,-14.721l15.228,-13.705l16.752,-13.706l17.513,-12.691l4.044,-2.328" style="fill:none;fill-rule:nonzero;stroke:#ffe5ad;stroke-width:1.25px;"/><path class="contour" id="C5" d="M1169.38,1288.13l-10.66,0l-22.843,-3.553l-16.751,-4.569l-16.752,-6.091l-11.421,-5.584l-11.422,-6.091l-19.035,-11.676l-17.513,-12.69l-17.513,-13.706l-42.64,-34.518l-50.254,-39.594l-31.219,-26.396l-14.467,-13.198l-13.706,-13.706l-10.66,-14.213l-5.33,-8.63l-2.284,-6.599l-3.046,-9.137l-1.522,-9.645l-0.762,-11.167l0.762,-11.676l2.284,-12.69l6.091,-27.919l4.569,-15.229l5.33,-14.721l5.33,-11.675l13.706,-22.335l7.614,-10.152l9.898,-11.168l10.66,-10.66l15.229,-11.168l11.421,-6.599l12.183,-5.583l22.082,-8.122l24.365,-6.599l25.127,-5.584l25.889,-4.569l25.889,-3.553l27.411,-3.553l19.036,-2.031l39.594,-3.553l20.558,-1.015l20.559,-0.508l22.843,-0l44.924,0.508l72.336,2.538l142.387,3.045l48.731,0.508l64.721,-1.523l20.559,0l18.274,1.015l15.99,2.538l8.376,3.046l6.091,3.553l3.046,2.539l1.523,2.538l2.284,8.122l-2.284,9.644l-5.33,11.676l-9.137,12.69l-11.422,13.198l-12.944,13.706l-14.467,13.705l-15.229,14.214l-16.751,13.705l-17.513,13.706l-17.513,12.183l-38.071,24.873l-19.036,12.183l-10.66,7.614l-9.898,7.107l-15.99,13.198l-15.99,13.706l-14.467,13.706l-13.706,14.213l-12.944,14.721l-12.183,14.213l-33.503,43.148l-22.081,26.396l-20.559,22.335l-11.421,11.168l-15.229,14.213l-15.99,13.198l-17.513,12.183l-17.513,9.645l-19.035,8.122l-11.422,4.061l-12.944,2.538l-12.183,1.523l-12.944,0.507" style="fill:none;fill-rule:nonzero;stroke:#ffe5ad;stroke-width:1.25px;"/><path class="contour" id="D4" d="M3333.33,270.171l-12.917,7.287l-19.036,12.182l-16.752,12.183l-15.228,13.198l-10.66,10.153l-9.899,10.66l-32.741,40.102l-9.899,10.66l-10.66,9.644l-15.99,13.198l-17.512,11.676l-18.275,11.675l-19.035,10.66l-20.559,10.152l-21.32,9.645l-18.274,7.614l-20.559,7.615l-20.558,7.106l-44.163,13.706l-22.843,6.599l-15.99,4.061l-15.99,3.553l-23.604,4.061l-23.604,3.554l-24.366,3.045l-47.209,4.061l-23.604,1.523l-48.731,1.015l-25.127,-0.507l-121.067,-4.061l-86.042,-1.523l-26.65,-1.523l-20.558,-1.523l-20.559,-2.03l-19.797,-3.554l-18.274,-4.568l-12.945,-5.076l-12.182,-5.584l-9.138,-5.584l-10.66,-8.63l-9.137,-10.66l-7.614,-11.167l-4.569,-11.168l-3.807,-11.167l-1.523,-11.676l0,-12.182l1.523,-11.676l3.046,-12.182l4.569,-11.676l6.091,-11.675l9.137,-12.183l10.66,-12.183l12.183,-10.66l13.706,-9.644l12.183,-6.599l13.705,-5.584l14.467,-5.076l16.752,-4.061l16.751,-3.554l128.682,-24.365l41.878,-6.599l20.559,-3.046l21.32,-2.031l18.274,-1.522l19.036,-0.508l18.274,-0l19.035,0.508l22.843,1.522l46.447,3.554l20.559,1.015l19.797,0.508l24.366,-0.508l23.604,-1.523l22.843,-3.046l21.32,-5.076l15.99,-5.076l14.467,-6.091l5.33,-3.046l15.99,-10.66l13.706,-12.183l11.421,-15.228l6.092,-10.153l5.329,-10.66l4.569,-11.675l12.183,-35.026l5.33,-14.213l6.853,-14.213l6.853,-13.706l10.66,-15.736l9.137,-11.168l10.66,-10.66l11.421,-10.152l16.752,-12.183l15.99,-10.152l19.035,-10.153l18.275,-7.106l15.989,-5.584l16.752,-4.569l5.346,-1.313" style="fill:none;fill-rule:nonzero;stroke:#ffe5ad;stroke-width:1.25px;"/><path class="contour" id="C4" d="M1165.58,1239.39l-10.66,-0l-10.66,-1.523l-9.137,-2.031l-12.183,-4.06l-11.422,-5.077l-14.467,-9.137l-15.228,-10.152l-13.706,-11.675l-13.706,-12.183l-40.355,-36.041l-26.65,-22.843l-22.843,-18.782l-30.457,-23.858l-12.945,-10.152l-10.66,-10.66l-6.091,-8.122l-6.091,-10.153l-4.569,-10.152l-2.284,-10.152l-1.523,-11.168l-0,-11.675l0.761,-11.168l2.285,-11.167l3.045,-10.153l4.569,-9.645l6.853,-11.167l8.375,-10.66l10.66,-10.66l9.899,-7.614l18.274,-10.66l8.376,-3.554l18.274,-6.091l19.797,-5.076l21.32,-4.569l25.127,-4.061l25.889,-3.553l25.127,-3.046l40.356,-4.061l40.355,-2.538l52.539,-1.523l54.823,-1.015l28.173,0.508l28.934,1.522l28.173,1.523l27.411,2.031l27.411,2.538l25.889,3.553l19.797,3.046l18.274,4.061l15.99,5.076l13.706,5.584l10.66,8.122l3.807,5.584l1.523,3.553l0,8.122l-2.284,8.122l-5.33,9.137l-6.853,9.137l-12.944,13.706l-15.229,13.705l-54.061,46.701l-27.412,25.889l-13.705,12.69l-27.412,27.919l-49.493,52.793l-28.934,29.442l-12.944,11.675l-13.706,11.675l-13.705,10.66l-14.468,9.645l-14.467,7.614l-13.705,6.599l-15.229,5.076l-14.467,3.046l-14.467,1.523" style="fill:none;fill-rule:nonzero;stroke:#ffe5ad;stroke-width:1.25px;"/><path class="contour" id="D3" d="M3333.33,242.733l-22.055,11.374l-19.035,10.66l-19.036,11.168l-17.513,11.167l-17.513,11.676l-21.32,16.243l-13.705,11.168l-12.183,11.675l-41.879,41.117l-11.421,11.168l-12.183,10.152l-14.467,11.168l-15.99,10.66l-14.467,8.122l-14.467,7.614l-22.082,10.152l-22.843,9.138l-24.365,8.629l-19.797,6.599l-19.798,6.092l-20.558,6.091l-21.32,5.076l-21.32,4.569l-22.081,4.061l-21.32,3.553l-23.605,3.046l-22.843,2.03l-25.888,1.523l-22.843,0.508l-23.604,0.507l-24.366,-0.507l-159.9,-5.584l-51.777,-2.538l-25.127,-2.031l-23.604,-2.538l-22.843,-4.061l-21.32,-5.076l-16.751,-6.599l-9.138,-5.076l-7.614,-5.076l-12.183,-12.183l-7.614,-13.198l-2.284,-8.63l-1.523,-8.629l0.761,-9.645l2.285,-9.645l5.33,-12.183l7.614,-11.675l9.898,-9.645l12.183,-9.137l13.706,-7.614l12.944,-6.091l14.467,-5.077l19.036,-5.076l19.797,-4.061l20.559,-3.045l89.848,-14.721l28.173,-4.061l34.264,-3.554l33.503,-2.03l19.797,-1.015l19.036,-0.508l17.513,-0l34.264,1.015l57.869,3.046l35.025,-0l15.99,-1.015l15.99,-1.523l18.274,-2.538l18.275,-4.061l24.365,-7.107l22.843,-9.137l17.513,-9.137l16.752,-10.153l9.898,-7.614l9.137,-7.614l9.137,-8.63l7.615,-9.137l10.66,-14.721l8.375,-15.736l7.615,-16.244l17.512,-47.716l6.092,-13.705l7.614,-13.199l8.376,-12.182l10.66,-11.168l11.421,-10.152l15.229,-9.138l13.706,-7.106l7.614,-3.046l21.32,-6.599l21.32,-5.076l22.081,-4.569l104.289,-17.651" style="fill:none;fill-rule:nonzero;stroke:#ffe5ad;stroke-width:1.25px;"/><path class="contour" id="C3" d="M1161.01,1187.11l-12.183,-1.015l-10.66,-2.031l-19.035,-6.599l-17.513,-8.629l-15.229,-10.66l-15.228,-11.168l-15.229,-12.69l-38.833,-34.518l-47.97,-40.102l-9.898,-10.153l-9.899,-9.644l-5.33,-7.615l-6.853,-13.198l-3.807,-12.183l-1.523,-12.182l1.523,-11.676l3.046,-9.137l5.33,-8.629l3.807,-4.061l9.137,-8.63l12.183,-7.614l12.183,-5.584l13.706,-5.076l19.797,-5.076l21.32,-4.569l22.843,-3.553l38.071,-4.569l54.823,-4.568l55.584,-3.554l23.604,-1.015l23.605,-0.507l26.649,-0l15.99,1.015l15.99,1.523l23.605,3.045l22.081,5.077l19.797,6.091l15.99,6.599l12.944,7.614l7.615,8.122l3.045,6.092l1.523,4.568l-0.761,11.675l-4.569,12.183l-7.614,12.691l-9.137,13.198l-11.421,13.706l-12.945,13.705l-26.65,27.919l-25.888,26.396l-24.366,22.843l-15.229,14.721l-15.99,14.214l-16.751,13.705l-16.751,12.183l-12.945,7.107l-13.705,6.091l-15.229,5.076l-18.274,3.046l-8.376,0" style="fill:none;fill-rule:nonzero;stroke:#ffe5ad;stroke-width:1.25px;"/><path class="contour" id="D2" d="M3333.33,210.468l-20.532,12.167l-43.401,24.366l-34.264,20.304l-32.742,20.813l-16.751,11.675l-16.752,12.183l-14.467,11.675l-14.467,12.183l-50.254,44.163l-12.944,10.152l-13.706,10.152l-20.559,13.198l-21.32,12.183l-18.274,9.645l-19.797,8.63l-20.559,8.629l-19.035,6.599l-19.797,6.599l-19.798,5.584l-20.558,4.568l-16.751,3.554l-17.513,3.046l-18.275,2.03l-19.035,1.523l-25.127,1.523l-25.889,0.507l-25.888,-0.507l-46.448,-1.523l-107.361,-4.569l-48.731,-2.538l-27.412,-2.03l-26.65,-2.031l-25.127,-3.045l-22.843,-4.061l-15.228,-3.554l-12.944,-4.568l-4.569,-2.538l-11.421,-7.107l-7.615,-8.122l-3.807,-7.614l-1.523,-8.122l1.523,-8.63l3.807,-7.106l8.376,-10.153l12.183,-9.137l12.944,-6.599l15.229,-6.091l21.32,-5.584l22.842,-4.569l24.366,-4.061l48.732,-5.583l49.492,-5.077l52.539,-4.061l25.888,-1.522l41.118,-0l19.797,0.507l60.914,3.554l24.366,0.507l15.99,0l15.99,-1.015l19.797,-2.031l19.797,-3.553l14.467,-3.046l13.706,-4.061l19.035,-6.091l18.275,-7.107l19.797,-9.644l19.035,-10.153l18.275,-11.167l16.751,-11.676l17.513,-13.705l15.228,-14.721l10.66,-10.66l9.138,-11.168l15.228,-20.305l19.797,-29.949l9.899,-14.213l8.376,-10.66l9.137,-9.645l15.99,-13.706l15.99,-10.152l17.512,-8.63l19.036,-7.106l19.797,-5.584l20.559,-4.569l19.797,-3.553l22.081,-2.538l22.082,-1.015l15.228,-0l0.735,0.081" style="fill:none;fill-rule:nonzero;stroke:#ffe5ad;stroke-width:1.25px;"/><path class="contour" id="C2" d="M1138.92,1126.2l-4.569,-0.508l-8.376,-2.538l-9.137,-3.046l-10.66,-5.076l-10.66,-6.091l-6.852,-5.076l-15.229,-10.153l-22.081,-16.751l-27.412,-20.813l-12.183,-10.659l-11.421,-11.168l-8.376,-11.168l-3.807,-6.091l-2.284,-6.092l-1.523,-10.152l2.284,-9.645l5.33,-8.629l5.33,-5.076l6.092,-4.569l9.898,-5.584l11.422,-4.568l15.99,-4.569l16.751,-3.553l18.274,-3.046l38.833,-4.568l38.833,-4.061l19.797,-1.016l31.219,-1.523l21.32,0l21.32,0.508l21.319,1.523l19.798,2.03l18.274,3.046l9.137,2.538l7.614,2.538l9.899,5.584l7.614,6.092l3.046,4.06l3.046,9.645l-0,5.584l-3.046,9.645l-4.569,10.152l-8.375,11.675l-9.899,11.676l-9.899,10.152l-10.66,10.66l-11.421,10.152l-12.183,9.645l-12.944,9.645l-13.706,9.137l-13.705,8.63l-13.706,7.614l-14.467,7.106l-12.183,5.077l-11.422,4.568l-9.898,3.046l-9.899,2.538l-9.898,1.523l-9.137,0.507l-6.853,-0.507" style="fill:none;fill-rule:nonzero;stroke:#ffe5ad;stroke-width:1.25px;"/><path class="contour" id="D1" d="M2817.11,463.246l-22.082,0.508l-22.081,-0.508l-53.3,-2.03l-86.041,-5.584l-74.62,-4.061l-38.072,-2.538l-20.558,-2.031l-18.275,-2.538l-17.512,-3.046l-10.66,-3.045l-9.138,-3.046l-6.852,-3.553l-5.33,-4.061l-0.762,-2.031l-0.761,-1.523l0.761,-2.538l2.285,-3.553l4.568,-3.553l13.706,-5.584l15.228,-4.061l18.275,-3.553l20.558,-2.539l22.082,-2.03l47.208,-3.046l48.731,-1.015l21.32,0l20.559,0.508l67.006,3.045l22.842,0.508l22.843,-0.508l23.605,-1.522l23.604,-2.539l22.843,-4.061l13.705,-3.045l14.468,-3.554l19.035,-5.076l18.274,-5.584l18.275,-6.599l25.888,-10.66l19.036,-8.629l22.081,-11.675l20.559,-11.676l19.797,-11.675l18.274,-11.675l14.467,-9.645l21.32,-15.228l33.503,-26.396l49.493,-41.118l15.99,-12.182l12.944,-8.63l13.706,-7.107l12.944,-5.076l12.945,-3.046l9.137,-0.507l8.375,1.523l5.33,2.538l3.046,3.553l0.762,4.061l-1.523,4.569l-1.523,4.061l-7.614,9.644l-10.66,10.153l-18.275,13.705l-68.528,48.224l-35.026,25.889l-35.787,27.919l-48.731,42.132l-15.99,13.706l-15.99,12.183l-16.752,11.167l-17.513,10.66l-18.274,10.153l-15.228,7.106l-15.99,7.107l-16.752,6.091l-12.944,4.061l-12.944,3.554l-18.275,4.061l-19.035,3.045l-15.99,2.031l-15.99,1.015" style="fill:none;fill-rule:nonzero;stroke:#ffe5ad;stroke-width:1.25px;"/><path class="contour" id="C1" d="M1162.53,1073.91l-10.66,-0.507l-10.66,-1.523l-19.797,-4.061l-9.899,-3.046l-18.274,-6.599l-9.137,-3.553l-16.751,-9.137l-7.615,-4.569l-7.614,-5.584l-6.091,-5.584l-4.569,-6.091l-2.284,-5.584l-1.523,-5.584l0.761,-5.076l3.046,-5.584l3.807,-4.568l5.33,-3.554l6.092,-3.553l7.614,-3.553l8.376,-3.046l18.274,-5.584l12.183,-3.045l24.365,-5.077l12.945,-2.03l12.944,-1.523l12.944,-1.015l23.604,-0l12.183,1.015l11.422,1.523l11.421,2.03l11.422,3.046l9.898,3.046l8.376,4.061l7.614,4.568l4.569,5.076l3.045,4.569l1.523,5.076l0.762,5.076l-0.762,7.107l-3.046,7.107l-3.807,7.614l-10.66,12.183l-6.852,6.091l-6.853,5.584l-7.615,5.076l-9.898,5.584l-10.66,4.569l-11.422,4.061l-8.375,2.03l-9.137,1.523l-9.899,1.015l-10.66,0" style="fill:none;fill-rule:nonzero;stroke:#ffe5ad;stroke-width:1.25px;"/></g></svg>