<?xml version="1.0" encoding="UTF-8" standalone="no"?><!DOCTYPE svg PUBLIC "-//W3C//DTD SVG 1.1//EN" "http://www.w3.org/Graphics/SVG/1.1/DTD/svg11.dtd"><svg width="100%" height="100%" viewBox="0 0 8334 8334" version="1.1" xmlns="http://www.w3.org/2000/svg" xmlns:xlink="http://www.w3.org/1999/xlink" xml:space="preserve" xmlns:serif="http://www.serif.com/" style="fill-rule:evenodd;clip-rule:evenodd;stroke-linejoin:round;stroke-miterlimit:2;"><g id="Layer-1" serif:id="Layer 1"><path d="M3151.46,6410.19c-372.214,-0 -729.925,-62.349 -1063.18,-177.254c-12.54,-4.384 -24.911,-8.769 -37.45,-13.142c-24.911,-8.757 -49.677,-17.972 -74.275,-27.633c-0.457,-0.301 -1.072,-0.457 -1.674,-0.614c-36.378,-14.033 -72.624,-28.837 -108.412,-44.244c-10.118,-4.228 -84.862,-37.739 -91.054,-40.606c487.565,592.519 922.152,1228.05 1314.29,1888.98l73.841,123.963l155.98,-268.765c359.217,-619.249 774.013,-1201.79 1228.22,-1753.55c-423.252,200.683 -896.638,312.865 -1396.28,312.865Z" style="fill:url(#_Linear1);fill-rule:nonzero;"/><path d="M1328.01,4317.83c0.759,-1012 821.424,-1832.22 1833.57,-1832.22c997.943,0 1809.71,797.43 1832.81,1789.94c-380.67,621.345 -1066.21,1036.6 -1846.71,1036.6c-762.532,0 -1434.17,-396.522 -1819.67,-994.317Zm2356.23,1.349c-0,-288.653 -234.001,-522.653 -522.654,-522.653c-288.664,-0 -522.665,234 -522.665,522.653c-0,288.653 234.001,522.654 522.665,522.654c288.653,-0 522.654,-234.001 522.654,-522.654Z" style="fill:url(#_Linear2);"/><path d="M1255.79,2488.34c-2.855,8.588 -4.288,17.177 -4.288,25.766c0,40.04 32.186,76.526 75.816,76.526c30.054,0 56.519,-17.876 68.673,-45.063c250.347,-555.767 836.879,-1086.52 1695.93,-1042.89l11.443,0c108.002,0 201.706,-74.382 228.882,-179.53c17.888,-70.817 -33.62,-141.634 -106.569,-145.211c-36.86,-1.952 -73.407,-2.915 -109.641,-2.915c-903.179,-0 -1607.17,598.806 -1860.25,1313.31Z" style="fill:url(#_Radial3);fill-rule:nonzero;"/><path d="M5434.48,4841.45l-458.534,478l-0,140.947l2321.21,2441.45l136.093,136.13c88.271,88.283 205.657,136.888 330.488,136.888c124.83,-0 242.204,-48.605 330.487,-136.888c88.284,-88.284 136.9,-205.658 136.9,-330.5c0,-124.806 -48.641,-242.192 -136.912,-330.463l-136.828,-136.804l-2522.9,-2398.76Z" style="fill:url(#_Linear4);fill-rule:nonzero;"/><path d="M3186.6,144.664c-11.503,-0.301 -146.645,1.554 -153.475,1.867c-178.964,6.529 -353.88,29.525 -523.822,66.493c-14.298,3.108 -118.373,28.271 -139.803,34.174c-16.78,4.348 -112.483,32.307 -142.923,42.256c-712.085,231.761 -1310.77,724.818 -1681.11,1363.59c-5.915,10.564 -11.805,21.116 -17.72,31.692c-242.324,433.093 -380.272,932.354 -380.272,1463.93c-0,1659.06 1344.96,3004.01 3004.01,3004.01c812.752,0 1549.69,-322.489 2090.59,-846.311c29.211,-31.68 59.024,-63.059 88.548,-94.45c509.211,-538.097 821.136,-1264.78 821.136,-2064.17c-0,-1645.69 -1323.52,-2982.27 -2965.16,-3003.08Zm-2459.38,3003.08c0,-1336.88 1083.67,-2420.54 2420.54,-2420.54c1337.5,0 2421.16,1083.66 2421.16,2420.54c-0,1337.81 -1083.66,2421.16 -2421.16,2421.16c-1336.86,-0 -2420.54,-1083.35 -2420.54,-2421.16Z" style="fill:url(#_Linear5);fill-rule:nonzero;"/></g><defs><linearGradient id="_Linear1" x1="0" y1="0" x2="1" y2="0" gradientUnits="userSpaceOnUse" gradientTransform="matrix(0,5205.19,-5205.19,0,3161.57,2415.21)"><stop offset="0" style="stop-color:#9a9073;stop-opacity:1"/><stop offset="0.88" style="stop-color:#ebc971;stop-opacity:1"/><stop offset="0.94" style="stop-color:#f6d373;stop-opacity:1"/><stop offset="1" style="stop-color:#f9d673;stop-opacity:1"/></linearGradient><linearGradient id="_Linear2" x1="0" y1="0" x2="1" y2="0" gradientUnits="userSpaceOnUse" gradientTransform="matrix(0,4012.04,-4012.04,0,3161.19,2431.46)"><stop offset="0" style="stop-color:#f9d673;stop-opacity:1"/><stop offset="1" style="stop-color:#cda669;stop-opacity:1"/></linearGradient><radialGradient id="_Radial3" cx="0" cy="0" r="1" gradientUnits="userSpaceOnUse" gradientTransform="matrix(-1826.34,1256.52,-1256.52,-1826.34,3128.01,1140.84)"><stop offset="0" style="stop-color:#c8ebff;stop-opacity:1"/><stop offset="0.46" style="stop-color:#cde9fa;stop-opacity:1"/><stop offset="1" style="stop-color:#cfe9f8;stop-opacity:1"/></radialGradient><linearGradient id="_Linear4" x1="0" y1="0" x2="1" y2="0" gradientUnits="userSpaceOnUse" gradientTransform="matrix(-7069.66,-7069.66,7069.66,-7069.66,8137.32,8081.09)"><stop offset="0" style="stop-color:#163774;stop-opacity:1"/><stop offset="0.2" style="stop-color:#1c4795;stop-opacity:1"/><stop offset="0.58" style="stop-color:#1d4a9b;stop-opacity:1"/><stop offset="1" style="stop-color:#1d4a9b;stop-opacity:1"/></linearGradient><linearGradient id="_Linear5" x1="0" y1="0" x2="1" y2="0" gradientUnits="userSpaceOnUse" gradientTransform="matrix(-6888.71,-6888.71,6888.71,-6888.71,8071.63,8070.38)"><stop offset="0" style="stop-color:#1d4a9b;stop-opacity:1"/><stop offset="0.41" style="stop-color:#21509f;stop-opacity:1"/><stop offset="0.51" style="stop-color:#2354a1;stop-opacity:1"/><stop offset="1" style="stop-color:#56a9d3;stop-opacity:1"/></linearGradient></defs></svg>