<?xml version="1.0" encoding="UTF-8" standalone="no"?><!DOCTYPE svg PUBLIC "-//W3C//DTD SVG 1.1//EN" "http://www.w3.org/Graphics/SVG/1.1/DTD/svg11.dtd"><svg width="100%" height="100%" viewBox="0 0 8334 8334" version="1.1" xmlns="http://www.w3.org/2000/svg" xmlns:xlink="http://www.w3.org/1999/xlink" xml:space="preserve" xmlns:serif="http://www.serif.com/" style="fill-rule:evenodd;clip-rule:evenodd;stroke-linejoin:round;stroke-miterlimit:2;"><g id="Layer-1" serif:id="Layer 1"><path d="M3741.78,6282.28c-315.911,0 -619.513,-52.917 -902.361,-150.441c-10.642,-3.721 -21.142,-7.443 -31.785,-11.154c-21.143,-7.432 -42.162,-15.253 -63.039,-23.453c-0.389,-0.255 -0.91,-0.388 -1.421,-0.521c-30.876,-11.911 -61.639,-24.476 -92.013,-37.552c-8.588,-3.588 -72.026,-32.031 -77.281,-34.464c413.813,502.892 782.662,1042.29 1115.48,1603.24l62.671,105.212l132.386,-228.11c304.88,-525.578 656.932,-1020 1042.43,-1488.3c-359.229,170.326 -761.008,265.539 -1185.08,265.539Z" style="fill:url(#_Linear1);fill-rule:nonzero;"/><path d="M2194.16,4506.42c0.644,-858.921 697.172,-1555.07 1556.22,-1555.07c846.99,-0 1535.96,676.806 1555.57,1519.18c-323.088,527.357 -904.927,879.797 -1567.37,879.797c-647.188,0 -1217.23,-336.542 -1544.42,-843.912Zm1999.82,1.145c-0,-244.99 -198.605,-443.594 -443.595,-443.594c-245,-0 -443.604,198.604 -443.604,443.594c-0,244.99 198.604,443.595 443.604,443.595c244.99,-0 443.595,-198.605 443.595,-443.595Z" style="fill:url(#_Linear2);"/><path d="M2132.86,2953.66c-2.423,7.29 -3.64,14.579 -3.64,21.869c0,33.983 27.318,64.951 64.348,64.951c25.508,-0 47.97,-15.172 58.285,-38.247c212.479,-471.699 710.289,-922.164 1439.4,-885.134l9.712,-0c91.666,-0 171.196,-63.131 194.26,-152.374c15.182,-60.104 -28.534,-120.209 -90.448,-123.246c-31.285,-1.656 -62.303,-2.474 -93.056,-2.474c-766.56,0 -1364.06,508.229 -1578.86,1114.65Z" style="fill:url(#_Radial3);fill-rule:nonzero;"/><path d="M5677,4948.37l-389.166,405.704l0.059,119.686l1972.09,2074.14l115.622,115.652c74.993,75.003 174.692,116.325 280.692,116.378c106.001,0.052 205.649,-41.171 280.578,-116.1c74.93,-74.93 116.163,-174.578 116.111,-280.588c-0.053,-105.98 -41.406,-205.68 -116.399,-280.673l-116.245,-116.225l-2143.34,-2037.98Z" style="fill:url(#_Linear4);fill-rule:nonzero;"/><path d="M3771.61,964.507c-9.764,-0.256 -124.463,1.318 -130.26,1.584c-151.893,5.541 -300.351,25.058 -444.586,56.435c-12.136,2.638 -100.468,23.995 -118.656,29.004c-14.242,3.691 -95.469,27.42 -121.304,35.865c-604.372,196.703 -1112.5,615.178 -1426.81,1157.33c-5.02,8.966 -10.019,17.922 -15.039,26.898c-205.67,367.582 -322.751,791.322 -322.751,1242.49c0,1408.11 1141.51,2549.61 2549.61,2549.61c689.811,-0 1315.27,-273.708 1774.36,-718.294c24.793,-26.888 50.096,-53.521 75.154,-80.164c432.185,-456.701 696.927,-1073.46 696.927,-1751.94c0,-1396.76 -1123.32,-2531.15 -2516.64,-2548.82Zm-2087.37,2548.82c-0,-1134.65 919.751,-2054.39 2054.39,-2054.39c1135.18,0 2054.93,919.741 2054.93,2054.39c-0,1135.45 -919.741,2054.93 -2054.93,2054.93c-1134.64,-0 -2054.39,-919.476 -2054.39,-2054.93Z" style="fill:url(#_Linear5);fill-rule:nonzero;"/></g><defs><linearGradient id="_Linear1" x1="0" y1="0" x2="1" y2="0" gradientUnits="userSpaceOnUse" gradientTransform="matrix(961.677,4098.36,-4098.36,961.677,3790.86,6063.03)"><stop offset="0" style="stop-color:#f0bc45;stop-opacity:1"/><stop offset="1" style="stop-color:#936c00;stop-opacity:1"/></linearGradient><linearGradient id="_Linear2" x1="0" y1="0" x2="1" y2="0" gradientUnits="userSpaceOnUse" gradientTransform="matrix(-7.10543e-15,3405.16,-3405.16,-7.10543e-15,3750.05,2905.39)"><stop offset="0" style="stop-color:#f9d673;stop-opacity:1"/><stop offset="1" style="stop-color:#f0bc45;stop-opacity:1"/></linearGradient><radialGradient id="_Radial3" cx="0" cy="0" r="1" gradientUnits="userSpaceOnUse" gradientTransform="matrix(-1550.08,1066.46,-1066.46,-1550.08,3721.88,1809.99)"><stop offset="0" style="stop-color:#c8ebff;stop-opacity:1"/><stop offset="0.46" style="stop-color:#cde9fa;stop-opacity:1"/><stop offset="1" style="stop-color:#cfe9f8;stop-opacity:1"/></radialGradient><linearGradient id="_Linear4" x1="0" y1="0" x2="1" y2="0" gradientUnits="userSpaceOnUse" gradientTransform="matrix(-2807.39,-2036.43,2034.42,-2804.61,8351.46,7322.5)"><stop offset="0" style="stop-color:#0d1951;stop-opacity:1"/><stop offset="0.35" style="stop-color:#1b4390;stop-opacity:1"/><stop offset="1" style="stop-color:#1d4a9b;stop-opacity:1"/></linearGradient><linearGradient id="_Linear5" x1="0" y1="0" x2="1" y2="0" gradientUnits="userSpaceOnUse" gradientTransform="matrix(-3472.18,-3464.66,3464.66,-3472.18,5543.19,5309.31)"><stop offset="0" style="stop-color:#1d4a9b;stop-opacity:1"/><stop offset="0.57" style="stop-color:#2c61aa;stop-opacity:1"/><stop offset="0.79" style="stop-color:#4b90ca;stop-opacity:1"/><stop offset="1" style="stop-color:#69bce8;stop-opacity:1"/></linearGradient></defs></svg>