<?xml version="1.0" encoding="UTF-8" standalone="no"?><!DOCTYPE svg PUBLIC "-//W3C//DTD SVG 1.1//EN" "http://www.w3.org/Graphics/SVG/1.1/DTD/svg11.dtd"><svg width="100%" height="100%" viewBox="0 0 8334 8334" version="1.1" xmlns="http://www.w3.org/2000/svg" xmlns:xlink="http://www.w3.org/1999/xlink" xml:space="preserve" xmlns:serif="http://www.serif.com/" style="fill-rule:evenodd;clip-rule:evenodd;stroke-linejoin:round;stroke-miterlimit:2;"><g id="Layer-1" serif:id="Layer 1"><g><path d="M4538.06,2184.76c0,191.859 -155.528,347.388 -347.387,347.388c-191.859,-0 -347.399,-155.529 -347.399,-347.388c0,-191.858 155.54,-347.387 347.399,-347.387c191.859,0 347.387,155.529 347.387,347.387" style="fill:url(#_Linear1);fill-rule:nonzero;"/><path d="M4191.19,2860.86c-373.625,-0 -676.621,-303.133 -676.621,-676.621c0,-373.626 302.996,-676.621 676.621,-676.621c373.626,0 676.621,302.995 676.621,676.621c0,373.488 -302.995,676.621 -676.621,676.621m245.928,-1839.18c-79.304,-16.828 -161.63,-25.639 -245.928,-25.639c-84.955,-0 -167.673,8.811 -247.507,25.777c-538.531,113.754 -942.144,591.262 -942.144,1162.42c-0,657.291 532.234,1189.64 1189.65,1189.64c655.85,0 1188.07,-532.349 1188.07,-1189.64c-0,-571.551 -404.132,-1049.32 -942.144,-1162.56" style="fill:url(#_Linear2);fill-rule:nonzero;"/><path d="M4190.4,132.157c-136.279,-0 -246.758,110.479 -246.758,246.758l-0,863.635l493.516,0l-0,-863.635c-0,-136.279 -110.479,-246.758 -246.758,-246.758" style="fill:url(#_Linear3);fill-rule:nonzero;"/><path d="M2203.82,7882.15l-105.323,-26.492l-114.527,345.507l-43.458,-385.251l-74.46,-36.365l29.341,-80.065l-98.173,-65.095l40.229,-165.021l86.374,28.626l52.281,-216.967l-175.7,-140.073l620.395,-1700.98l575.207,222.918l-792.186,2219.25Z" style="fill:url(#_Linear4);fill-rule:nonzero;"/><path d="M2309.59,6201.1l971.254,-2719.92l319.338,146.947l-1041.63,2857.48l-248.96,-284.507Z" style="fill:url(#_Linear5);fill-rule:nonzero;"/><path d="M5998.57,6201.1l-971.254,-2719.92l-319.338,146.947l1041.63,2857.48l248.961,-284.507Z" style="fill:url(#_Linear6);fill-rule:nonzero;"/><path d="M6470.71,7469.37l-86.386,28.637l-52.269,-216.967l175.7,-140.085l-96.154,-263.631l36.538,-14.06c108.852,-41.866 163.163,-164.063 121.297,-272.915l-0,-0.012c-41.878,-108.853 -164.075,-163.164 -272.928,-121.286l-29.652,11.395l-379.496,-1040.47l-575.208,222.93l792.186,2219.25l105.324,-26.504l114.515,345.519l43.47,-385.263l74.46,-36.365l-29.341,-80.065l98.161,-65.106l-40.217,-165.009Z" style="fill:url(#_Linear7);fill-rule:nonzero;"/></g><path d="M4626.23,3941.61l-944.381,0l-228.824,627.696l0,179.518l329.303,0l0,-322.336l37.219,-0l-0,322.336l329.302,0l0,-322.336l35.766,-0l-0,322.336l329.303,0l-0,-322.336l37.091,-0l0,322.336l329.303,0l-0,-110.202l-254.082,-697.012Zm2907.44,0c-166.496,-1404.01 -1196.09,-2542.89 -2543.55,-2872.32c346.13,248.557 572.197,654.258 573.258,1111.79c606.521,386.636 1039.72,1021.18 1156.11,1760.53l-1332.2,0l225.929,632.829l0,-147.951l35.904,-0l-0,248.557l26.307,73.779l302.869,0l-0,-322.336l37.218,-0l-0,322.336l329.303,0l-0,-322.336l37.218,-0l0,322.336l329.165,0l-0,-322.336l35.903,-0l0,322.336l329.176,0l0,-322.336l37.219,-0l-0,322.336l329.302,0l0,-578.517l37.219,-0l-0,578.517l209.366,0l0,-807.214l-155.713,0Zm-4146.01,807.214l28.142,0l0,-77.332l-28.142,77.332Zm-570.098,-2573.93c3.022,-457.128 230.934,-861.917 578.518,-1109.16c-1354.43,324.966 -2390.74,1466.87 -2557.89,2875.88l-194.246,0l-0,807.214l209.493,0l0,-578.517l37.219,-0l-0,578.517l329.176,0l-0,-322.336l35.903,-0l0,322.336l329.176,0l0,-322.336l37.207,-0l0,322.336l329.303,0l-0,-322.336l37.218,-0l0,322.336l329.176,0l0,-322.336l37.219,-0l-0,322.336l277.621,0l51.682,-144.664l-0,-177.672l35.765,-0l-0,77.458l200.82,-562.336l-1268.42,0c117.053,-743.296 553.663,-1380.6 1165.06,-1766.72" style="fill:url(#_Radial8);fill-rule:nonzero;"/><path d="M5481.51,6477.55l-329.003,-329.003l-1394.57,1394.55l-748.232,-748.232l-329.003,329.015l748.232,748.22l-0.058,0.058l329.003,329.014l0.058,-0.057l0.057,0.057l329.003,-329.014l-0.057,-0.046l1394.57,-1394.57Z" style="fill:url(#_Linear9);fill-rule:nonzero;"/></g><defs><linearGradient id="_Linear1" x1="0" y1="0" x2="1" y2="0" gradientUnits="userSpaceOnUse" gradientTransform="matrix(-5663.48,7883.23,-7883.23,-5663.48,5933.7,375.378)"><stop offset="0" style="stop-color:#1d4a9b;stop-opacity:1"/><stop offset="0.61" style="stop-color:#2a5ea8;stop-opacity:1"/><stop offset="0.82" style="stop-color:#498cc7;stop-opacity:1"/><stop offset="1" style="stop-color:#69bce8;stop-opacity:1"/></linearGradient><linearGradient id="_Linear2" x1="0" y1="0" x2="1" y2="0" gradientUnits="userSpaceOnUse" gradientTransform="matrix(-5663.48,7883.23,-7883.23,-5663.48,5933.7,375.378)"><stop offset="0" style="stop-color:#1d4a9b;stop-opacity:1"/><stop offset="0.61" style="stop-color:#2a5ea8;stop-opacity:1"/><stop offset="0.82" style="stop-color:#498cc7;stop-opacity:1"/><stop offset="1" style="stop-color:#69bce8;stop-opacity:1"/></linearGradient><linearGradient id="_Linear3" x1="0" y1="0" x2="1" y2="0" gradientUnits="userSpaceOnUse" gradientTransform="matrix(-5663.48,7883.23,-7883.23,-5663.48,5933.7,375.378)"><stop offset="0" style="stop-color:#1d4a9b;stop-opacity:1"/><stop offset="0.61" style="stop-color:#2a5ea8;stop-opacity:1"/><stop offset="0.82" style="stop-color:#498cc7;stop-opacity:1"/><stop offset="1" style="stop-color:#69bce8;stop-opacity:1"/></linearGradient><linearGradient id="_Linear4" x1="0" y1="0" x2="1" y2="0" gradientUnits="userSpaceOnUse" gradientTransform="matrix(-5663.48,7883.23,-7883.23,-5663.48,5933.7,375.378)"><stop offset="0" style="stop-color:#1d4a9b;stop-opacity:1"/><stop offset="0.61" style="stop-color:#2a5ea8;stop-opacity:1"/><stop offset="0.82" style="stop-color:#498cc7;stop-opacity:1"/><stop offset="1" style="stop-color:#69bce8;stop-opacity:1"/></linearGradient><linearGradient id="_Linear5" x1="0" y1="0" x2="1" y2="0" gradientUnits="userSpaceOnUse" gradientTransform="matrix(-5663.48,7883.23,-7883.23,-5663.48,5933.7,375.378)"><stop offset="0" style="stop-color:#1d4a9b;stop-opacity:1"/><stop offset="0.61" style="stop-color:#2a5ea8;stop-opacity:1"/><stop offset="0.82" style="stop-color:#498cc7;stop-opacity:1"/><stop offset="1" style="stop-color:#69bce8;stop-opacity:1"/></linearGradient><linearGradient id="_Linear6" x1="0" y1="0" x2="1" y2="0" gradientUnits="userSpaceOnUse" gradientTransform="matrix(-5663.48,7883.23,-7883.23,-5663.48,5933.7,375.378)"><stop offset="0" style="stop-color:#1d4a9b;stop-opacity:1"/><stop offset="0.61" style="stop-color:#2a5ea8;stop-opacity:1"/><stop offset="0.82" style="stop-color:#498cc7;stop-opacity:1"/><stop offset="1" style="stop-color:#69bce8;stop-opacity:1"/></linearGradient><linearGradient id="_Linear7" x1="0" y1="0" x2="1" y2="0" gradientUnits="userSpaceOnUse" gradientTransform="matrix(-5663.48,7883.23,-7883.23,-5663.48,5933.7,375.378)"><stop offset="0" style="stop-color:#1d4a9b;stop-opacity:1"/><stop offset="0.61" style="stop-color:#2a5ea8;stop-opacity:1"/><stop offset="0.82" style="stop-color:#498cc7;stop-opacity:1"/><stop offset="1" style="stop-color:#69bce8;stop-opacity:1"/></linearGradient><radialGradient id="_Radial8" cx="0" cy="0" r="1" gradientUnits="userSpaceOnUse" gradientTransform="matrix(3153.29,1576.65,-1576.65,3153.29,4166.39,1531.69)"><stop offset="0" style="stop-color:#fff;stop-opacity:1"/><stop offset="1" style="stop-color:#f9d673;stop-opacity:1"/></radialGradient><linearGradient id="_Linear9" x1="0" y1="0" x2="1" y2="0" gradientUnits="userSpaceOnUse" gradientTransform="matrix(4273.72,-829.814,608.147,3132.09,1207.78,8004.68)"><stop offset="0" style="stop-color:#748746;stop-opacity:1"/><stop offset="0.53" style="stop-color:#82935b;stop-opacity:1"/><stop offset="1" style="stop-color:#b2baa0;stop-opacity:1"/></linearGradient></defs></svg>