<?xml version="1.0" encoding="UTF-8" standalone="no"?><!DOCTYPE svg PUBLIC "-//W3C//DTD SVG 1.1//EN" "http://www.w3.org/Graphics/SVG/1.1/DTD/svg11.dtd"><svg width="100%" height="100%" viewBox="0 0 8334 8334" version="1.1" xmlns="http://www.w3.org/2000/svg" xmlns:xlink="http://www.w3.org/1999/xlink" xml:space="preserve" xmlns:serif="http://www.serif.com/" style="fill-rule:evenodd;clip-rule:evenodd;stroke-linejoin:round;stroke-miterlimit:2;"><g id="Layer-1" serif:id="Layer 1"><g id="Muted-Edit-Tools" serif:id="Muted Edit Tools"><path id="Carto" d="M2531.53,4931.89l-56.275,0l-153.978,-153.978l-153.973,153.978l-1507.87,0l0,-840.787l219.018,-0c1.119,-1403.5 1066.96,-2580.84 2503.94,-2902.4c-293.102,231.217 -481.088,589.347 -481.088,991.098c0,10.869 0.137,21.707 0.41,32.511c-662.247,387.781 -1138,1073.09 -1254.8,1878.79l1158.74,-0l-274.12,840.787Zm2407.38,-3748.96c1450.24,313.013 2529.09,1496.13 2530.22,2908.17l204.771,-0l0,840.787l-1568.66,0l466.979,-466.979l-373.808,-373.808l467.397,-0c-115.899,-799.439 -585.186,-1480.36 -1239.41,-1869.7c0.446,-13.812 0.671,-27.679 0.671,-41.599c-0,-405.135 -191.158,-765.902 -488.163,-996.873Zm-1237.13,2908.17l921.606,-0l221.658,533.11c7.437,17.885 18.229,33.824 31.537,47.131l-260.548,260.546l-1262.89,0l348.634,-840.787Zm1840.01,121.277l121.278,-121.277l329.105,-0l373.808,373.808l-466.979,466.979l-105.081,0l-216.657,-661.766c-7.245,-22.129 -19.53,-41.801 -35.474,-57.744Zm-568.818,719.51l-150.699,0l106.442,-106.441l44.257,106.441Zm67.298,-217.994l398.399,-398.397l201.802,616.391l-509.563,0l-90.638,-217.994Zm347.532,-553.768l-408.1,408.096l-198.379,-477.121l583.881,-0l22.598,69.025Zm-2428.76,-69.025l584.868,-0l-348.635,840.787l-510.354,0l274.121,-840.787Zm1548.22,-2974.09c437.248,140.727 756.922,544.127 773.32,1024.03c-125.098,-63.619 -256.036,-116.952 -391.765,-158.923c-1.18,-4.329 -2.398,-8.642 -3.653,-12.94c22.344,-51.015 34.447,-105.585 34.447,-162.293c0,-283.117 -301.685,-512.973 -673.278,-512.973c-324.014,-0 -594.877,174.764 -658.927,407.215c-66.019,79.565 -115.915,172.988 -144.67,275.252c-136.675,41.071 -268.572,93.64 -394.631,156.618c19.559,-473.506 334.478,-871.235 766.046,-1013.5c118.119,-11.638 238.111,-17.61 359.64,-17.61c112.565,-0 223.811,5.123 333.471,15.127Z" style="fill:#a0a9ba;"/><g id="Highlighted"><path id="Edit-Tools-" serif:id="Edit Tools " d="M2633.37,5090.01l540.376,-1657.45c10.84,-33.248 35.575,-60.154 67.796,-73.746c32.221,-13.591 68.754,-12.53 100.131,2.91l317.666,156.312c57.074,28.084 82.528,95.663 58.164,154.422l-733.276,1768.41l-350.857,-350.857Zm2346.33,-521.78l-372.404,-895.667c-24.406,-58.7 0.938,-126.267 57.929,-154.435l316.254,-156.312c31.36,-15.5 67.904,-16.621 100.155,-3.074c32.252,13.547 57.033,40.429 67.917,73.674l238.249,727.718l-408.1,408.096Zm775.401,713.804l806.548,2463.55c20.16,61.577 -11.931,128.08 -72.679,150.614c-60.748,22.534 -128.446,-6.952 -153.321,-66.779l-918.603,-2209.33l338.055,-338.056Zm-3207.38,1211.53l-554.951,1338.35c-24.816,59.845 -92.475,89.398 -153.242,66.932c-60.766,-22.465 -92.931,-88.923 -72.849,-150.518l500.54,-1535.27l280.502,280.498Zm376.053,-906.912l-315.602,761.125l-290.246,-290.242l264.734,-811.997l341.114,341.114Zm2514.89,-1271.15l265.567,811.157l-347.756,347.756l-316.21,-760.516l398.399,-398.397Zm-1027.5,-3224.7c497.94,112.053 870.068,557.368 870.068,1089.01c0,617.589 -500.026,1117.83 -1116.26,1117.83c-617.735,-0 -1117.84,-500.216 -1117.84,-1117.83c-0,-531.274 371.666,-976.318 870.059,-1088.86l0,-718.142c0,-136.406 110.582,-246.987 246.988,-246.987c136.406,-0 246.988,110.581 246.988,246.987l-0,717.99Zm-246.193,1839.18c414.238,0 750.168,-336.083 750.168,-750.167c-0,-414.238 -335.93,-750.168 -750.168,-750.168c-414.238,-0 -750.167,335.93 -750.167,750.168c-0,414.084 335.929,750.167 750.167,750.167Zm347.195,-749.638c-0,192.038 -155.673,347.711 -347.711,347.711c-192.037,0 -347.722,-155.673 -347.722,-347.711c-0,-192.037 155.685,-347.71 347.722,-347.71c192.038,-0 347.711,155.673 347.711,347.71Z" style="fill:url(#_Linear1);"/></g><path d="M6365.98,4464.91l-538.36,-538.36l-2281.98,2281.96l-1224.36,-1224.36l-538.36,538.379l1224.36,1224.34l-0.094,0.094l538.36,538.379l0.094,-0.094l0.095,0.094l538.36,-538.379l-0.095,-0.076l2281.98,-2281.98Z" style="fill:#a0a9ba;fill-rule:nonzero;"/></g></g><defs><linearGradient id="_Linear1" x1="0" y1="0" x2="1" y2="0" gradientUnits="userSpaceOnUse" gradientTransform="matrix(-6100.63,-6600.33,6600.33,-6100.63,8160.94,7978.45)"><stop offset="0" style="stop-color:#1d4a9b;stop-opacity:1"/><stop offset="0.61" style="stop-color:#2a5ea8;stop-opacity:1"/><stop offset="0.82" style="stop-color:#498cc7;stop-opacity:1"/><stop offset="1" style="stop-color:#69bce8;stop-opacity:1"/></linearGradient></defs></svg>