<?xml version="1.0" encoding="UTF-8" standalone="no"?><!DOCTYPE svg PUBLIC "-//W3C//DTD SVG 1.1//EN" "http://www.w3.org/Graphics/SVG/1.1/DTD/svg11.dtd"><svg width="100%" height="100%" viewBox="0 0 1000 1000" version="1.1" xmlns="http://www.w3.org/2000/svg" xmlns:xlink="http://www.w3.org/1999/xlink" xml:space="preserve" xmlns:serif="http://www.serif.com/" style="fill-rule:evenodd;clip-rule:evenodd;stroke-linejoin:round;stroke-miterlimit:2;"><g id="App-BG" serif:id="App BG"><path d="M982.759,258.621l-0,482.758c-0,133.221 -108.159,241.38 -241.38,241.38l-482.758,-0c-133.221,-0 -241.38,-108.159 -241.38,-241.38l0,-482.758c0,-133.221 108.159,-241.38 241.38,-241.38l482.758,0c133.221,0 241.38,108.159 241.38,241.38Z" style="fill:url(#_Radial1);"/><path d="M982.759,258.621l-0,482.758c-0,133.221 -108.159,241.38 -241.38,241.38l-482.758,-0c-133.221,-0 -241.38,-108.159 -241.38,-241.38l0,-482.758c0,-133.221 108.159,-241.38 241.38,-241.38l482.758,0c133.221,0 241.38,108.159 241.38,241.38Zm-16.336,-0c-0,-124.205 -100.839,-225.044 -225.044,-225.044l-482.758,0c-124.205,0 -225.044,100.839 -225.044,225.044l0,482.758c0,124.205 100.839,225.044 225.044,225.044l482.758,-0c124.205,-0 225.044,-100.839 225.044,-225.044l-0,-482.758Z" style="fill:#ffe5ad;"/></g><g id="Carto"><path d="M137.542,766.468l-59.205,-64.635l653.629,-598.719l59.205,64.635l-653.629,598.719Z" style="fill:#fff;"/><path d="M432.779,518.392l89.845,-82.538l20.942,-160.857l-101.056,92.837l28.174,30.669l-3.541,3.253l-28.174,-30.669l-31.329,28.781l28.174,30.668l-3.402,3.126l-28.174,-30.668l-31.329,28.781l28.174,30.668l-3.529,3.242l-28.174,-30.668l-101.055,92.836l164.454,-9.461Zm-276.605,254.109c138.559,119.031 336.055,137.403 493.043,50.978c259.243,-192.478 65.388,-117.445 -151.715,-55.677c-91.496,16.224 -188.172,-6.288 -263.869,-66.46l199.146,-182.95l-164.454,9.461l28.174,30.668l-3.416,3.138l-28.174,-30.668l-31.316,28.77l28.174,30.668l-3.541,3.253l-28.174,-30.668l-31.329,28.781l28.174,30.668l-3.541,3.253l-28.174,-30.668l-31.316,28.768l28.175,30.669l-3.416,3.138l-28.174,-30.669l-31.317,28.77l28.174,30.668l-3.541,3.253l-28.174,-30.668l-31.329,28.781l50.566,55.042l-3.541,3.253l-50.566,-55.042l-19.918,18.298l70.555,76.802l14.814,-13.61Zm603.096,-244.093c-55.25,194.078 -86.36,323.525 41.598,155.753c100.452,-149.295 99.546,-348.175 -7.708,-496.841l18.48,-16.977l-70.555,-76.801l-19.931,18.31l50.566,55.042l-3.541,3.253l-50.566,-55.043l-31.316,28.77l28.174,30.668l-3.416,3.138l-28.174,-30.668l-31.317,28.77l28.174,30.668l-3.54,3.252l-28.174,-30.668l-31.328,28.781l28.174,30.668l-3.541,3.253l-28.174,-30.668l-31.317,28.769l28.174,30.669l-3.541,3.253l-28.174,-30.669l-31.329,28.781l28.174,30.668l-3.402,3.126l-28.174,-30.668l-20.942,160.857l193.065,-177.364c53.833,80.95 67.999,179.745 43.581,269.918" style="fill:url(#_Radial2);fill-rule:nonzero;"/></g><defs><radialGradient id="_Radial1" cx="0" cy="0" r="1" gradientUnits="userSpaceOnUse" gradientTransform="matrix(965.517,0,0,965.517,17.2414,500)"><stop offset="0" style="stop-color:#ffe5ad;stop-opacity:1"/><stop offset="1" style="stop-color:#fff;stop-opacity:1"/></radialGradient><radialGradient id="_Radial2" cx="0" cy="0" r="1" gradientUnits="userSpaceOnUse" gradientTransform="matrix(-534.302,62.3895,-62.4269,-534.309,715.981,736.764)"><stop offset="0" style="stop-color:#fff;stop-opacity:1"/><stop offset="1" style="stop-color:#f9d673;stop-opacity:1"/></radialGradient></defs></svg>