<?xml version="1.0" encoding="UTF-8" standalone="no"?><!DOCTYPE svg PUBLIC "-//W3C//DTD SVG 1.1//EN" "http://www.w3.org/Graphics/SVG/1.1/DTD/svg11.dtd"><svg width="100%" height="100%" viewBox="0 0 1000 1000" version="1.1" xmlns="http://www.w3.org/2000/svg" xmlns:xlink="http://www.w3.org/1999/xlink" xml:space="preserve" xmlns:serif="http://www.serif.com/" style="fill-rule:evenodd;clip-rule:evenodd;stroke-linejoin:round;stroke-miterlimit:2;"><g id="App-BG" serif:id="App BG"><path d="M982.759,258.621l-0,482.758c-0,133.221 -108.159,241.38 -241.38,241.38l-482.758,-0c-133.221,-0 -241.38,-108.159 -241.38,-241.38l0,-482.758c0,-133.221 108.159,-241.38 241.38,-241.38l482.758,0c133.221,0 241.38,108.159 241.38,241.38Z" style="fill:url(#_Radial1);"/><path d="M982.759,258.621l-0,482.758c-0,133.221 -108.159,241.38 -241.38,241.38l-482.758,-0c-133.221,-0 -241.38,-108.159 -241.38,-241.38l0,-482.758c0,-133.221 108.159,-241.38 241.38,-241.38l482.758,0c133.221,0 241.38,108.159 241.38,241.38Zm-16.336,-0c-0,-124.205 -100.839,-225.044 -225.044,-225.044l-482.758,0c-124.205,0 -225.044,100.839 -225.044,225.044l0,482.758c0,124.205 100.839,225.044 225.044,225.044l482.758,-0c124.205,-0 225.044,-100.839 225.044,-225.044l-0,-482.758Z" style="fill:#ffe5ad;"/></g><g id="Edit-Tools" serif:id="Edit Tools"><path d="M538.131,282.634c-0,21.042 -17.058,38.1 -38.1,38.1c-21.042,-0 -38.101,-17.058 -38.101,-38.1c-0,-21.042 17.059,-38.1 38.101,-38.1c21.042,0 38.1,17.058 38.1,38.1" style="fill:url(#_Linear2);fill-rule:nonzero;"/><path d="M500.087,356.785c-40.977,-0 -74.208,-33.247 -74.208,-74.209c-0,-40.978 33.231,-74.209 74.208,-74.209c40.978,0 74.209,33.231 74.209,74.209c0,40.962 -33.231,74.209 -74.209,74.209m26.973,-201.713c-8.698,-1.846 -17.727,-2.812 -26.973,-2.812c-9.317,-0 -18.389,0.966 -27.145,2.827c-59.064,12.476 -103.33,64.847 -103.33,127.489c-0,72.089 58.373,130.474 130.475,130.474c71.931,0 130.303,-58.385 130.303,-130.474c-0,-62.685 -44.324,-115.085 -103.33,-127.504" style="fill:url(#_Linear3);fill-rule:nonzero;"/><path d="M500,57.513c-14.946,0 -27.063,12.117 -27.063,27.064l-0,94.719l54.126,0l0,-94.719c0,-14.947 -12.116,-27.064 -27.063,-27.064" style="fill:url(#_Linear4);fill-rule:nonzero;"/><path d="M698.312,723.127l-106.523,-298.308l-35.023,16.116l114.241,313.396l27.305,-31.204Z" style="fill:url(#_Linear5);fill-rule:nonzero;"/><path d="M750.095,862.225l-9.475,3.141l-5.732,-23.796l19.27,-15.364l-10.546,-28.914l4.007,-1.542c11.939,-4.591 17.895,-17.993 13.304,-29.932l-0,-0.001c-4.593,-11.939 -17.995,-17.895 -29.934,-13.302l-3.252,1.25l-41.621,-114.114l-63.087,24.45l86.884,243.397l11.551,-2.906l12.56,37.895l4.767,-42.254l8.167,-3.989l-3.218,-8.781l10.766,-7.14l-4.411,-18.098Z" style="fill:url(#_Linear6);fill-rule:nonzero;"/><path d="M282.122,907.498l-11.552,-2.906l-12.561,37.894l-4.766,-42.253l-8.166,-3.988l3.218,-8.781l-10.767,-7.14l4.412,-18.098l9.473,3.139l5.734,-23.796l-19.27,-15.362l68.042,-186.556l63.086,24.449l-86.883,243.398Z" style="fill:url(#_Linear7);fill-rule:nonzero;"/><path d="M293.722,723.127l106.522,-298.308l35.024,16.116l-114.242,313.396l-27.304,-31.204Z" style="fill:url(#_Linear8);fill-rule:nonzero;"/></g><defs><radialGradient id="_Radial1" cx="0" cy="0" r="1" gradientUnits="userSpaceOnUse" gradientTransform="matrix(965.517,0,0,965.517,17.2414,500)"><stop offset="0" style="stop-color:#ffe5ad;stop-opacity:1"/><stop offset="1" style="stop-color:#fff;stop-opacity:1"/></radialGradient><linearGradient id="_Linear2" x1="0" y1="0" x2="1" y2="0" gradientUnits="userSpaceOnUse" gradientTransform="matrix(-621.145,864.597,-864.597,-621.145,691.198,84.1888)"><stop offset="0" style="stop-color:#1d4a9b;stop-opacity:1"/><stop offset="0.61" style="stop-color:#2a5ea8;stop-opacity:1"/><stop offset="0.82" style="stop-color:#498cc7;stop-opacity:1"/><stop offset="1" style="stop-color:#69bce8;stop-opacity:1"/></linearGradient><linearGradient id="_Linear3" x1="0" y1="0" x2="1" y2="0" gradientUnits="userSpaceOnUse" gradientTransform="matrix(-621.145,864.597,-864.597,-621.145,691.198,84.1888)"><stop offset="0" style="stop-color:#1d4a9b;stop-opacity:1"/><stop offset="0.61" style="stop-color:#2a5ea8;stop-opacity:1"/><stop offset="0.82" style="stop-color:#498cc7;stop-opacity:1"/><stop offset="1" style="stop-color:#69bce8;stop-opacity:1"/></linearGradient><linearGradient id="_Linear4" x1="0" y1="0" x2="1" y2="0" gradientUnits="userSpaceOnUse" gradientTransform="matrix(-621.145,864.597,-864.597,-621.145,691.198,84.1888)"><stop offset="0" style="stop-color:#1d4a9b;stop-opacity:1"/><stop offset="0.61" style="stop-color:#2a5ea8;stop-opacity:1"/><stop offset="0.82" style="stop-color:#498cc7;stop-opacity:1"/><stop offset="1" style="stop-color:#69bce8;stop-opacity:1"/></linearGradient><linearGradient id="_Linear5" x1="0" y1="0" x2="1" y2="0" gradientUnits="userSpaceOnUse" gradientTransform="matrix(-621.145,864.597,-864.597,-621.145,691.198,84.1888)"><stop offset="0" style="stop-color:#1d4a9b;stop-opacity:1"/><stop offset="0.61" style="stop-color:#2a5ea8;stop-opacity:1"/><stop offset="0.82" style="stop-color:#498cc7;stop-opacity:1"/><stop offset="1" style="stop-color:#69bce8;stop-opacity:1"/></linearGradient><linearGradient id="_Linear6" x1="0" y1="0" x2="1" y2="0" gradientUnits="userSpaceOnUse" gradientTransform="matrix(-621.145,864.597,-864.597,-621.145,691.198,84.1888)"><stop offset="0" style="stop-color:#1d4a9b;stop-opacity:1"/><stop offset="0.61" style="stop-color:#2a5ea8;stop-opacity:1"/><stop offset="0.82" style="stop-color:#498cc7;stop-opacity:1"/><stop offset="1" style="stop-color:#69bce8;stop-opacity:1"/></linearGradient><linearGradient id="_Linear7" x1="0" y1="0" x2="1" y2="0" gradientUnits="userSpaceOnUse" gradientTransform="matrix(-621.145,864.597,-864.597,-621.145,691.198,84.1888)"><stop offset="0" style="stop-color:#1d4a9b;stop-opacity:1"/><stop offset="0.61" style="stop-color:#2a5ea8;stop-opacity:1"/><stop offset="0.82" style="stop-color:#498cc7;stop-opacity:1"/><stop offset="1" style="stop-color:#69bce8;stop-opacity:1"/></linearGradient><linearGradient id="_Linear8" x1="0" y1="0" x2="1" y2="0" gradientUnits="userSpaceOnUse" gradientTransform="matrix(-621.145,864.597,-864.597,-621.145,691.198,84.1888)"><stop offset="0" style="stop-color:#1d4a9b;stop-opacity:1"/><stop offset="0.61" style="stop-color:#2a5ea8;stop-opacity:1"/><stop offset="0.82" style="stop-color:#498cc7;stop-opacity:1"/><stop offset="1" style="stop-color:#69bce8;stop-opacity:1"/></linearGradient></defs></svg>