<?xml version="1.0" encoding="UTF-8" standalone="no"?><!DOCTYPE svg PUBLIC "-//W3C//DTD SVG 1.1//EN" "http://www.w3.org/Graphics/SVG/1.1/DTD/svg11.dtd"><svg width="100%" height="100%" viewBox="0 0 1000 1000" version="1.1" xmlns="http://www.w3.org/2000/svg" xmlns:xlink="http://www.w3.org/1999/xlink" xml:space="preserve" xmlns:serif="http://www.serif.com/" style="fill-rule:evenodd;clip-rule:evenodd;stroke-linecap:round;stroke-linejoin:round;stroke-miterlimit:1.5;"><g id="App-BG" serif:id="App BG"><path d="M995.833,889.392c0,58.543 -47.898,106.441 -106.441,106.441l-780.57,0c-58.543,0 -106.441,-47.898 -106.441,-106.441l-0,-780.57c-0,-58.542 47.898,-106.441 106.441,-106.441l780.57,-0c58.543,-0 106.441,47.899 106.441,106.441l0,780.57Z" style="fill:#1d4a9b;fill-rule:nonzero;"/><path d="M995.833,889.392c0,58.543 -47.898,106.441 -106.441,106.441l-780.57,0c-58.543,0 -106.441,-47.898 -106.441,-106.441l-0,-780.57c-0,-58.542 47.898,-106.441 106.441,-106.441l780.57,-0c58.543,-0 106.441,47.899 106.441,106.441l0,780.57Z" style="fill:url(#_Radial1);fill-rule:nonzero;"/><path d="M924.872,889.392c0,19.514 -15.966,35.48 -35.48,35.48l-780.57,0c-19.532,0 -35.48,-15.966 -35.48,-35.48l-0,-780.57c-0,-19.514 15.948,-35.48 35.48,-35.48l780.57,-0c19.514,-0 35.48,15.966 35.48,35.48l0,780.57Z" style="fill:#fff;fill-rule:nonzero;"/></g><g id="Edit-Tools" serif:id="Edit Tools"><g id="Legs"><path d="M411.809,451.077l31.989,15.74l-173.682,418.864l141.693,-434.604Z" style="fill:#1d4a9b;stroke:#1d4a9b;stroke-width:39.62px;"/><path d="M555.837,466.817l31.847,-15.74l142.2,434.341l-174.047,-418.601Z" style="fill:#1d4a9b;stroke:#1d4a9b;stroke-width:39.62px;"/></g><g id="Head"><path d="M537.916,321.212c-0,19.338 -15.677,35.015 -35.015,35.015c-19.338,-0 -35.016,-15.677 -35.016,-35.015c-0,-19.339 15.678,-35.015 35.016,-35.015c19.338,0 35.015,15.676 35.015,35.015" style="fill:url(#_Linear2);fill-rule:nonzero;"/><path d="M502.953,389.359c-37.66,-0 -68.2,-30.555 -68.2,-68.2c-0,-37.66 30.54,-68.2 68.2,-68.2c37.66,-0 68.2,30.54 68.2,68.2c-0,37.645 -30.54,68.2 -68.2,68.2m24.788,-185.381c-7.993,-1.696 -16.291,-2.584 -24.788,-2.584c-8.563,0 -16.901,0.888 -24.948,2.598c-54.281,11.466 -94.963,59.597 -94.963,117.167c0,66.251 53.647,119.909 119.911,119.909c66.106,0 119.752,-53.658 119.752,-119.909c-0,-57.61 -40.735,-105.767 -94.964,-117.181" style="fill:url(#_Linear3);fill-rule:nonzero;"/><path d="M502.873,114.319c-13.736,0 -24.872,11.136 -24.872,24.872l-0,87.051l49.744,-0l-0,-87.051c-0,-13.736 -11.136,-24.872 -24.872,-24.872" style="fill:url(#_Linear4);fill-rule:nonzero;"/></g></g><defs><radialGradient id="_Radial1" cx="0" cy="0" r="1" gradientUnits="userSpaceOnUse" gradientTransform="matrix(993.452,0,0,993.452,2.38095,499.107)"><stop offset="0" style="stop-color:#0dcaf2;stop-opacity:1"/><stop offset="0.23" style="stop-color:#0fb7e5;stop-opacity:1"/><stop offset="0.53" style="stop-color:#158ac7;stop-opacity:1"/><stop offset="1" style="stop-color:#1d4a9b;stop-opacity:1"/></radialGradient><linearGradient id="_Linear2" x1="0" y1="0" x2="1" y2="0" gradientUnits="userSpaceOnUse" gradientTransform="matrix(-570.85,794.59,-794.59,-570.85,678.589,138.835)"><stop offset="0" style="stop-color:#1d4a9b;stop-opacity:1"/><stop offset="0.61" style="stop-color:#2a5ea8;stop-opacity:1"/><stop offset="0.82" style="stop-color:#498cc7;stop-opacity:1"/><stop offset="1" style="stop-color:#69bce8;stop-opacity:1"/></linearGradient><linearGradient id="_Linear3" x1="0" y1="0" x2="1" y2="0" gradientUnits="userSpaceOnUse" gradientTransform="matrix(-570.85,794.59,-794.59,-570.85,678.589,138.835)"><stop offset="0" style="stop-color:#1d4a9b;stop-opacity:1"/><stop offset="0.61" style="stop-color:#2a5ea8;stop-opacity:1"/><stop offset="0.82" style="stop-color:#498cc7;stop-opacity:1"/><stop offset="1" style="stop-color:#69bce8;stop-opacity:1"/></linearGradient><linearGradient id="_Linear4" x1="0" y1="0" x2="1" y2="0" gradientUnits="userSpaceOnUse" gradientTransform="matrix(-570.85,794.59,-794.59,-570.85,678.589,138.835)"><stop offset="0" style="stop-color:#1d4a9b;stop-opacity:1"/><stop offset="0.61" style="stop-color:#2a5ea8;stop-opacity:1"/><stop offset="0.82" style="stop-color:#498cc7;stop-opacity:1"/><stop offset="1" style="stop-color:#69bce8;stop-opacity:1"/></linearGradient></defs></svg>