<?xml version="1.0" encoding="UTF-8" standalone="no"?><!DOCTYPE svg PUBLIC "-//W3C//DTD SVG 1.1//EN" "http://www.w3.org/Graphics/SVG/1.1/DTD/svg11.dtd"><svg width="100%" height="100%" viewBox="0 0 1000 1000" version="1.1" xmlns="http://www.w3.org/2000/svg" xmlns:xlink="http://www.w3.org/1999/xlink" xml:space="preserve" xmlns:serif="http://www.serif.com/" style="fill-rule:evenodd;clip-rule:evenodd;stroke-linejoin:round;stroke-miterlimit:2;"><g id="App-BG" serif:id="App BG"><path d="M982.759,258.621l-0,482.758c-0,133.221 -108.159,241.38 -241.38,241.38l-482.758,-0c-133.221,-0 -241.38,-108.159 -241.38,-241.38l0,-482.758c0,-133.221 108.159,-241.38 241.38,-241.38l482.758,0c133.221,0 241.38,108.159 241.38,241.38Z" style="fill:url(#_Radial1);"/><path d="M982.759,258.621l-0,482.758c-0,133.221 -108.159,241.38 -241.38,241.38l-482.758,-0c-133.221,-0 -241.38,-108.159 -241.38,-241.38l0,-482.758c0,-133.221 108.159,-241.38 241.38,-241.38l482.758,0c133.221,0 241.38,108.159 241.38,241.38Zm-16.336,-0c-0,-124.205 -100.839,-225.044 -225.044,-225.044l-482.758,0c-124.205,0 -225.044,100.839 -225.044,225.044l0,482.758c0,124.205 100.839,225.044 225.044,225.044l482.758,-0c124.205,-0 225.044,-100.839 225.044,-225.044l-0,-482.758Z" style="fill:#ffe5ad;"/></g><g id="QA"><path d="M908.744,296.471l-96.028,-96.028l-407.041,407.037l-218.391,-218.391l-96.028,96.032l218.391,218.388l-0.017,0.016l96.028,96.032l0.017,-0.017l0.017,0.017l96.028,-96.032l-0.017,-0.013l407.041,-407.041Z" style="fill:url(#_Linear2);fill-rule:nonzero;"/></g><defs><radialGradient id="_Radial1" cx="0" cy="0" r="1" gradientUnits="userSpaceOnUse" gradientTransform="matrix(965.517,0,0,965.517,17.2414,500)"><stop offset="0" style="stop-color:#ffe5ad;stop-opacity:1"/><stop offset="1" style="stop-color:#fff;stop-opacity:1"/></radialGradient><linearGradient id="_Linear2" x1="0" y1="0" x2="1" y2="0" gradientUnits="userSpaceOnUse" gradientTransform="matrix(1247.4,-242.203,177.504,914.183,-338.655,742.203)"><stop offset="0" style="stop-color:#748746;stop-opacity:1"/><stop offset="0.53" style="stop-color:#82935b;stop-opacity:1"/><stop offset="1" style="stop-color:#b2baa0;stop-opacity:1"/></linearGradient></defs></svg>