<?xml version="1.0" encoding="UTF-8" standalone="no"?><!DOCTYPE svg PUBLIC "-//W3C//DTD SVG 1.1//EN" "http://www.w3.org/Graphics/SVG/1.1/DTD/svg11.dtd"><svg width="100%" height="100%" viewBox="0 0 1000 1000" version="1.1" xmlns="http://www.w3.org/2000/svg" xmlns:xlink="http://www.w3.org/1999/xlink" xml:space="preserve" xmlns:serif="http://www.serif.com/" style="fill-rule:evenodd;clip-rule:evenodd;stroke-linejoin:round;stroke-miterlimit:2;"><g id="App-BG" serif:id="App BG"><path d="M995.833,889.392c0,58.543 -47.898,106.441 -106.441,106.441l-780.57,0c-58.543,0 -106.441,-47.898 -106.441,-106.441l-0,-780.57c-0,-58.542 47.898,-106.441 106.441,-106.441l780.57,-0c58.543,-0 106.441,47.899 106.441,106.441l0,780.57Z" style="fill:#1d4a9b;fill-rule:nonzero;"/><path d="M995.833,889.392c0,58.543 -47.898,106.441 -106.441,106.441l-780.57,0c-58.543,0 -106.441,-47.898 -106.441,-106.441l-0,-780.57c-0,-58.542 47.898,-106.441 106.441,-106.441l780.57,-0c58.543,-0 106.441,47.899 106.441,106.441l0,780.57Z" style="fill:url(#_Radial1);fill-rule:nonzero;"/><path d="M924.872,889.392c0,19.514 -15.966,35.48 -35.48,35.48l-780.57,0c-19.532,0 -35.48,-15.966 -35.48,-35.48l-0,-780.57c-0,-19.514 15.948,-35.48 35.48,-35.48l780.57,-0c19.514,-0 35.48,15.966 35.48,35.48l0,780.57Z" style="fill:#fff;fill-rule:nonzero;"/></g><path id="QA" d="M859.954,320.765l-84.565,-84.565l-358.455,358.451l-192.323,-192.323l-84.565,84.569l192.323,192.32l-0.015,0.015l84.565,84.568l0.015,-0.015l0.015,0.015l84.566,-84.568l-0.015,-0.012l358.454,-358.455Z" style="fill:url(#_Linear2);fill-rule:nonzero;"/><defs><radialGradient id="_Radial1" cx="0" cy="0" r="1" gradientUnits="userSpaceOnUse" gradientTransform="matrix(993.452,0,0,993.452,2.38095,499.107)"><stop offset="0" style="stop-color:#0dcaf2;stop-opacity:1"/><stop offset="0.23" style="stop-color:#0fb7e5;stop-opacity:1"/><stop offset="0.53" style="stop-color:#158ac7;stop-opacity:1"/><stop offset="1" style="stop-color:#1d4a9b;stop-opacity:1"/></radialGradient><linearGradient id="_Linear2" x1="0" y1="0" x2="1" y2="0" gradientUnits="userSpaceOnUse" gradientTransform="matrix(-471.014,-1188.3,1188.3,-471.014,921.701,1377.46)"><stop offset="0" style="stop-color:#748746;stop-opacity:1"/><stop offset="0.53" style="stop-color:#69a14b;stop-opacity:1"/><stop offset="1" style="stop-color:#46fa5b;stop-opacity:1"/></linearGradient></defs></svg>