<?xml version="1.0" encoding="UTF-8" standalone="no"?><!DOCTYPE svg PUBLIC "-//W3C//DTD SVG 1.1//EN" "http://www.w3.org/Graphics/SVG/1.1/DTD/svg11.dtd"><svg width="100%" height="100%" viewBox="0 0 3334 3334" version="1.1" xmlns="http://www.w3.org/2000/svg" xmlns:xlink="http://www.w3.org/1999/xlink" xml:space="preserve" xmlns:serif="http://www.serif.com/" style="fill-rule:evenodd;clip-rule:evenodd;stroke-linecap:round;stroke-linejoin:round;"><g id="Complete"><path d="M251.752,746.676l1415.24,1018.32l1426.1,-1018.32" style="fill:none;fill-rule:nonzero;stroke:#000;stroke-width:319.42px;"/><path d="M2868.65,388.681l-2403.96,-0c-200.33,-0 -400.66,143.432 -400.66,425.995l-0,1703.98c-0,233.694 180.864,425.996 400.66,425.996l2403.96,-0c219.796,-0 400.661,-192.302 400.661,-425.996l-0,-1703.98c-0,-233.694 -180.865,-425.995 -400.661,-425.995Zm-2604.29,425.995c16.263,-87.837 68.705,-178.092 200.33,-212.998l2403.96,0c109.898,0 200.33,96.151 200.33,212.998l0,1703.98c0,116.847 -90.432,212.998 -200.33,212.998l-2403.96,-0c-109.898,-0 -200.33,-96.151 -200.33,-212.998l-0,-1703.98Z" style="fill-rule:nonzero;"/><path d="M2868.65,333.654c249.032,0 455.687,216.244 455.687,481.022l0,1703.98c0,264.779 -206.655,481.022 -455.687,481.022l-2403.96,0c-249.031,0 -455.687,-216.243 -455.687,-481.022l0,-1703.98c0,-320.147 228.71,-481.022 455.687,-481.022l2403.96,0Zm0,55.027l-2403.96,-0c-200.33,-0 -400.66,143.432 -400.66,425.995l-0,1703.98c-0,233.694 180.864,425.996 400.66,425.996l2403.96,-0c219.796,-0 400.661,-192.302 400.661,-425.996l-0,-1703.98c-0,-233.694 -180.865,-425.995 -400.661,-425.995Zm-2604.29,425.995c16.263,-87.837 68.705,-178.092 200.33,-212.998l2403.96,0c109.898,0 200.33,96.151 200.33,212.998l0,1703.98c0,116.847 -90.432,212.998 -200.33,212.998l-2403.96,-0c-109.898,-0 -200.33,-96.151 -200.33,-212.998l-0,-1703.98Zm55.029,5.276l-0.003,0.014l0,1698.69c0,85.77 64.635,157.971 145.304,157.971l2403.96,0c80.669,0 145.304,-72.201 145.304,-157.971l0,-1703.98c0,-85.77 -64.635,-157.971 -145.304,-157.971l-2396.49,0.003c-97.976,28.428 -139.076,96.112 -152.771,163.244Z"/></g></svg>