<?xml version="1.0" encoding="UTF-8" standalone="no"?><!DOCTYPE svg PUBLIC "-//W3C//DTD SVG 1.1//EN" "http://www.w3.org/Graphics/SVG/1.1/DTD/svg11.dtd"><svg width="100%" height="100%" viewBox="0 0 89 89" version="1.1" xmlns="http://www.w3.org/2000/svg" xmlns:xlink="http://www.w3.org/1999/xlink" xml:space="preserve" xmlns:serif="http://www.serif.com/" style="fill-rule:evenodd;clip-rule:evenodd;stroke-linejoin:round;stroke-miterlimit:2;"><path d="M77.778,77.778l-0,-52.778l-25,-25l-30.556,-0c-6.095,-0 -11.111,5.016 -11.111,11.111l0,66.667c0,6.095 5.016,11.111 11.111,11.111l44.445,-0c6.095,-0 11.111,-5.016 11.111,-11.111Zm-25,-61.111c-0,4.571 3.762,8.333 8.333,8.333l11.111,0l0,52.778c0,3.047 -2.508,5.555 -5.555,5.555l-44.445,0c-3.047,0 -5.555,-2.508 -5.555,-5.555l-0,-66.667c-0,-3.048 2.508,-5.555 5.555,-5.555l30.556,-0l-0,11.111Z" style="fill-rule:nonzero;"/><path d="M27.942,57.567l-3.393,0l-0,5.377c-0,0.768 -0.175,1.351 -0.524,1.748c-0.349,0.398 -0.79,0.596 -1.322,0.596c-0.557,0 -1.006,-0.196 -1.347,-0.589c-0.341,-0.393 -0.512,-0.97 -0.512,-1.73l0,-14.639c0,-0.846 0.187,-1.451 0.562,-1.814c0.374,-0.362 0.968,-0.544 1.783,-0.544l4.753,0c1.405,0 2.486,0.112 3.243,0.337c0.748,0.216 1.395,0.574 1.939,1.075c0.545,0.501 0.959,1.114 1.242,1.84c0.282,0.725 0.424,1.542 0.424,2.448c-0,1.935 -0.574,3.401 -1.722,4.399c-1.147,0.997 -2.856,1.496 -5.126,1.496Zm-0.898,-8.706l-2.495,0l-0,5.804l2.495,0c0.873,0 1.602,-0.095 2.189,-0.285c0.586,-0.19 1.033,-0.501 1.341,-0.933c0.307,-0.431 0.461,-0.997 0.461,-1.697c0,-0.838 -0.237,-1.52 -0.711,-2.047c-0.532,-0.561 -1.626,-0.842 -3.28,-0.842Z" style="fill-rule:nonzero;"/><path d="M40.178,45.972l4.827,0c1.256,0 2.333,0.121 3.231,0.363c0.898,0.242 1.713,0.695 2.445,1.36c1.904,1.693 2.856,4.267 2.856,7.722c0,1.14 -0.095,2.18 -0.287,3.122c-0.191,0.941 -0.486,1.79 -0.885,2.545c-0.399,0.756 -0.911,1.432 -1.534,2.028c-0.491,0.458 -1.027,0.825 -1.61,1.101c-0.582,0.277 -1.207,0.471 -1.877,0.583c-0.669,0.112 -1.424,0.169 -2.264,0.169l-4.827,-0c-0.674,-0 -1.181,-0.106 -1.522,-0.318c-0.341,-0.211 -0.563,-0.509 -0.667,-0.894c-0.104,-0.384 -0.156,-0.883 -0.156,-1.496l-0,-13.927c-0,-0.829 0.179,-1.429 0.536,-1.801c0.358,-0.371 0.936,-0.557 1.734,-0.557Zm1.435,3.045l-0,12.89l2.806,0c0.616,0 1.098,-0.017 1.447,-0.052c0.349,-0.034 0.711,-0.121 1.085,-0.259c0.374,-0.138 0.699,-0.332 0.973,-0.583c1.239,-1.088 1.859,-2.962 1.859,-5.622c-0,-1.875 -0.273,-3.278 -0.817,-4.211c-0.545,-0.933 -1.216,-1.526 -2.015,-1.781c-0.798,-0.255 -1.763,-0.382 -2.894,-0.382l-2.444,-0Z" style="fill-rule:nonzero;"/><path d="M67.72,48.939l-7.297,-0l-0,4.858l6.099,0c0.566,0 0.988,0.132 1.266,0.395c0.279,0.264 0.418,0.616 0.418,1.056c0,0.441 -0.141,0.79 -0.424,1.05c-0.283,0.259 -0.703,0.388 -1.26,0.388l-6.099,0l-0,6.258c-0,0.794 -0.173,1.384 -0.518,1.768c-0.345,0.384 -0.788,0.576 -1.328,0.576c-0.549,0 -0.996,-0.194 -1.341,-0.583c-0.345,-0.388 -0.518,-0.976 -0.518,-1.761l0,-14.614c0,-0.553 0.079,-1.004 0.237,-1.354c0.158,-0.35 0.405,-0.604 0.742,-0.764c0.337,-0.16 0.767,-0.24 1.291,-0.24l8.732,0c0.59,0 1.029,0.136 1.316,0.408c0.287,0.272 0.43,0.629 0.43,1.069c-0,0.449 -0.143,0.81 -0.43,1.082c-0.287,0.272 -0.726,0.408 -1.316,0.408Z" style="fill-rule:nonzero;"/></svg>