<?xml version="1.0" encoding="UTF-8" standalone="no"?><!DOCTYPE svg PUBLIC "-//W3C//DTD SVG 1.1//EN" "http://www.w3.org/Graphics/SVG/1.1/DTD/svg11.dtd"><svg width="100%" height="100%" viewBox="0 0 278 278" version="1.1" xmlns="http://www.w3.org/2000/svg" xmlns:xlink="http://www.w3.org/1999/xlink" xml:space="preserve" xmlns:serif="http://www.serif.com/" style="fill-rule:evenodd;clip-rule:evenodd;stroke-linejoin:round;stroke-miterlimit:2;"><g><g><path d="M268.202,70.31c-2.533,-13.978 -14.599,-24.157 -28.602,-27.335c-20.954,-4.445 -59.736,-7.622 -101.695,-7.622c-41.934,-0 -81.335,3.177 -102.315,7.622c-13.978,3.178 -26.069,12.712 -28.602,27.335c-2.557,15.89 -5.089,38.136 -5.089,66.737c-0,28.602 2.532,50.848 5.71,66.737c2.557,13.979 14.624,24.158 28.602,27.336c22.245,4.444 60.381,7.622 102.34,7.622c41.959,0 80.095,-3.178 102.34,-7.622c13.978,-3.178 26.045,-12.712 28.602,-27.336c2.532,-15.889 4.999,-37.197 4.999,-66.737c-0,-28.375 -3.112,-50.847 -6.29,-66.737Zm-164.609,111.229l0,-88.983l77.538,44.491l-77.538,44.492Z" style="fill-rule:nonzero;"/></g></g></svg>